<svg xmlns="http://www.w3.org/2000/svg" xmlns:xlink="http://www.w3.org/1999/xlink" width="331.029" height="243.618" viewBox="0 0 331.029 243.618">
  <defs>
    <style>
      .cls-1, .cls-13, .cls-14, .cls-20 {
        fill: none;
      }

      .cls-2 {
        fill: #9f323d;
      }

      .cls-3 {
        fill: #50909b;
      }

      .cls-4 {
        fill: #5faab2;
      }

      .cls-5 {
        opacity: 0.1;
      }

      .cls-32, .cls-5 {
        isolation: isolate;
      }

      .cls-6 {
        fill: #6da676;
      }

      .cls-7 {
        fill: #7dba86;
      }

      .cls-8 {
        fill: #e09614;
      }

      .cls-9 {
        fill: #efa818;
      }

      .cls-10 {
        fill: #932c3b;
      }

      .cls-11 {
        fill: #fdfbf4;
      }

      .cls-12 {
        fill: #304656;
      }

      .cls-13, .cls-14 {
        stroke: #2a3d49;
        stroke-linecap: round;
        stroke-linejoin: round;
      }

      .cls-13 {
        stroke-width: 1.829px;
      }

      .cls-14 {
        stroke-width: 1.72px;
      }

      .cls-15 {
        fill: #8c2a39;
      }

      .cls-16 {
        clip-path: url(#clip-path);
      }

      .cls-17 {
        fill: #eff5f0;
      }

      .cls-18 {
        fill: #fff;
      }

      .cls-19 {
        fill: #57575c;
      }

      .cls-19, .cls-26 {
        opacity: 0.12;
      }

      .cls-20 {
        stroke: #f8f4df;
        stroke-miterlimit: 10;
        stroke-width: 0.879px;
      }

      .cls-21, .cls-23 {
        fill: #f8f4df;
      }

      .cls-21 {
        opacity: 0.15;
      }

      .cls-22 {
        opacity: 0.61;
      }

      .cls-24 {
        fill: #b9882e;
      }

      .cls-25 {
        fill: #f6f4e1;
      }

      .cls-26 {
        fill: #3b3a3e;
      }

      .cls-27 {
        fill: #a67626;
      }

      .cls-28 {
        fill: #344a5e;
      }

      .cls-29 {
        fill: #24363f;
      }

      .cls-30 {
        fill: #f5efd9;
      }

      .cls-31 {
        fill: #e1a02b;
      }

      .cls-32 {
        fill: #555;
        opacity: 0.2;
        mix-blend-mode: multiply;
      }

      .cls-33 {
        fill: #f4eed9;
      }

      .cls-34 {
        fill: #415a74;
      }

      .cls-35 {
        fill: #4c888c;
      }

      .cls-36 {
        fill: #f5f5f5;
      }

      .cls-37 {
        fill: #f4a067;
      }

      .cls-38 {
        fill: #e89760;
      }

      .cls-39 {
        fill: #ffb9b9;
      }

      .cls-40 {
        fill: #2f2e41;
      }

      .cls-41 {
        fill: #6c63ff;
      }

      .cls-42 {
        fill: #333;
        opacity: 0.3;
      }
    </style>
    <clipPath id="clip-path">
      <path id="Trazado_278" data-name="Trazado 278" class="cls-1" d="M240.59,224.932c7.539-.039,14.445-2.455,13.986-2.042a23.351,23.351,0,1,0-25.872.133C228.241,222.615,233.051,224.971,240.59,224.932Z" transform="translate(-218.188 -180.163)"/>
    </clipPath>
  </defs>
  <g id="Grupo_894" data-name="Grupo 894" transform="translate(-23.996 -92.915)">
    <g id="Grupo_893" data-name="Grupo 893">
      <g id="Grupo_892" data-name="Grupo 892">
        <g id="Grupo_130" data-name="Grupo 130" transform="translate(-131.963 79.885)">
          <g id="_3569821" data-name="3569821" transform="translate(155.959 74.288)">
            <g id="OBJECTS" transform="translate(0 0)">
              <g id="Grupo_125" data-name="Grupo 125" transform="translate(0 0)">
                <g id="Grupo_124" data-name="Grupo 124">
                  <g id="Grupo_96" data-name="Grupo 96" transform="translate(0 11.292)">
                    <g id="Grupo_89" data-name="Grupo 89" transform="translate(27.534 35.278)">
                      <path id="Trazado_223" data-name="Trazado 223" class="cls-2" d="M165.033,215.155a.975.975,0,0,1-1.144-.768l-8.234-41.793a.974.974,0,0,1,1.912-.377L165.8,214.01A.974.974,0,0,1,165.033,215.155Z" transform="translate(-155.636 -171.431)"/>
                    </g>
                    <g id="Grupo_95" data-name="Grupo 95" transform="translate(0 0)">
                      <g id="Grupo_94" data-name="Grupo 94">
                        <g id="Grupo_90" data-name="Grupo 90" transform="translate(18.119 26.196)">
                          <path id="Trazado_224" data-name="Trazado 224" class="cls-3" d="M146.132,159.393s6.132,6.541,7.147,10.521c1.037,4.063-.709,6.262-2.591,7.412h0c-.365.261-.752.511-1.161.747-2.345,1.355-9.393,4.574-11.772,5.651a.364.364,0,0,1-.492-.459l8.778-23.715" transform="translate(-137.241 -156.472)"/>
                          <path id="Trazado_225" data-name="Trazado 225" class="cls-4" d="M154.527,156.607s6.132,6.541,7.147,10.521c1.037,4.063-.709,6.262-2.591,7.412h0a13.324,13.324,0,0,0,4.041-4.414c.543-1.141,3.088-7.12,3.74-8.552s1.128-2.634-.67-4.2c-1.944-1.694-10.015-3.689-10.015-3.689l-1.743,3.08Z" transform="translate(-145.636 -153.686)"/>
                          <path id="Trazado_226" data-name="Trazado 226" class="cls-5" d="M153.682,159.393s6.132,6.541,7.147,10.521c1.037,4.063-.709,6.262-2.591,7.412a7.691,7.691,0,0,0,.439-6.314,36.438,36.438,0,0,0-5.971-9.066Z" transform="translate(-144.791 -156.472)"/>
                        </g>
                        <g id="Grupo_91" data-name="Grupo 91" transform="translate(0 18.197)">
                          <path id="Trazado_227" data-name="Trazado 227" class="cls-6" d="M126.2,146.949s-6.541,6.132-10.521,7.147c-4.063,1.037-6.262-.708-7.412-2.591h0c-.261-.365-.512-.752-.748-1.16-1.355-2.345-4.574-9.393-5.651-11.772a.364.364,0,0,1,.459-.491l23.715,8.777" transform="translate(-101.838 -138.059)"/>
                          <path id="Trazado_228" data-name="Trazado 228" class="cls-7" d="M132.34,155.344s-6.541,6.132-10.521,7.147c-4.063,1.037-6.262-.708-7.412-2.591h0a13.318,13.318,0,0,0,4.414,4.041c1.14.543,7.119,3.088,8.551,3.741s2.634,1.127,4.2-.67c1.694-1.944,3.69-10.015,3.69-10.015l-3.081-1.743Z" transform="translate(-107.974 -146.453)"/>
                          <path id="Trazado_229" data-name="Trazado 229" class="cls-5" d="M132.34,154.5s-6.541,6.132-10.521,7.147c-4.063,1.037-6.262-.708-7.412-2.591a7.69,7.69,0,0,0,6.314.438,36.445,36.445,0,0,0,9.067-5.971Z" transform="translate(-107.974 -145.608)"/>
                        </g>
                        <g id="Grupo_92" data-name="Grupo 92" transform="translate(13.497)">
                          <path id="Trazado_230" data-name="Trazado 230" class="cls-8" d="M146.347,126.869s-6.131-6.541-7.147-10.521c-1.036-4.063.709-6.262,2.591-7.412h0c.365-.261.752-.512,1.161-.748,2.345-1.355,9.393-4.574,11.772-5.651a.364.364,0,0,1,.491.459l-8.777,23.715" transform="translate(-133.424 -102.503)"/>
                          <path id="Trazado_231" data-name="Trazado 231" class="cls-9" d="M141.133,133.005s-6.131-6.541-7.147-10.521c-1.036-4.063.709-6.262,2.591-7.412h0a13.31,13.31,0,0,0-4.04,4.414c-.544,1.141-3.088,7.12-3.741,8.552s-1.128,2.634.67,4.2c1.944,1.694,10.015,3.689,10.015,3.689l1.744-3.081Z" transform="translate(-128.21 -108.639)"/>
                          <path id="Trazado_232" data-name="Trazado 232" class="cls-5" d="M146.347,133.006s-6.131-6.541-7.147-10.521c-1.036-4.063.709-6.262,2.591-7.412a7.69,7.69,0,0,0-.438,6.314,36.444,36.444,0,0,0,5.97,9.066Z" transform="translate(-133.424 -108.64)"/>
                        </g>
                        <g id="Grupo_93" data-name="Grupo 93" transform="translate(26.031 13.613)">
                          <path id="Trazado_233" data-name="Trazado 233" class="cls-10" d="M158.407,147.239s6.542-6.132,10.521-7.147c4.063-1.037,6.263.708,7.412,2.591h0c.261.365.512.752.748,1.16,1.355,2.345,4.574,9.393,5.651,11.772a.364.364,0,0,1-.459.492l-23.715-8.778" transform="translate(-155.486 -134.316)"/>
                          <path id="Trazado_234" data-name="Trazado 234" class="cls-2" d="M155.621,142.025s6.542-6.132,10.521-7.147c4.063-1.037,6.262.708,7.412,2.591h0a13.319,13.319,0,0,0-4.414-4.041c-1.14-.543-7.12-3.088-8.552-3.741s-2.634-1.127-4.2.67c-1.694,1.944-3.689,10.015-3.689,10.015l3.081,1.743Z" transform="translate(-152.7 -129.102)"/>
                          <path id="Trazado_235" data-name="Trazado 235" class="cls-5" d="M158.407,147.239s6.542-6.132,10.521-7.147c4.063-1.037,6.263.708,7.412,2.591a7.69,7.69,0,0,0-6.314-.438,36.437,36.437,0,0,0-9.066,5.971Z" transform="translate(-155.486 -134.316)"/>
                        </g>
                      </g>
                      <path id="Trazado_236" data-name="Trazado 236" class="cls-11" d="M152.816,153.623a2.571,2.571,0,1,1-.25-3.628A2.571,2.571,0,0,1,152.816,153.623Z" transform="translate(-124.523 -125.38)"/>
                    </g>
                  </g>
                  <g id="Grupo_97" data-name="Grupo 97" transform="translate(57.217)">
                    <circle id="Elipse_1" data-name="Elipse 1" class="cls-12" cx="45.887" cy="45.887" r="45.887" transform="translate(0 64.894) rotate(-45)"/>
                    <circle id="Elipse_2" data-name="Elipse 2" class="cls-2" cx="19.478" cy="19.478" r="19.478" transform="translate(41.461 79.376) rotate(-76.717)"/>
                    <path id="Trazado_237" data-name="Trazado 237" class="cls-13" d="M220.451,161a38.733,38.733,0,0,1,58.35-23.382" transform="translate(-193.039 -105.41)"/>
                    <path id="Trazado_238" data-name="Trazado 238" class="cls-13" d="M320.092,241.789a38.781,38.781,0,0,1-43.1,20.059" transform="translate(-220.64 -159.21)"/>
                    <path id="Trazado_239" data-name="Trazado 239" class="cls-13" d="M332.181,146.623a36.774,36.774,0,0,1,12.993,47.807" transform="translate(-247.585 -112.75)"/>
                    <circle id="Elipse_3" data-name="Elipse 3" class="cls-13" cx="34.558" cy="34.558" r="34.558" transform="translate(30.336 30.336)"/>
                    <path id="Trazado_240" data-name="Trazado 240" class="cls-13" d="M303.048,259.272a32.2,32.2,0,0,1-26.969,4.2" transform="translate(-220.197 -167.745)"/>
                    <path id="Trazado_241" data-name="Trazado 241" class="cls-13" d="M351.9,185.074a32.238,32.238,0,0,1-.544,24.03" transform="translate(-256.946 -131.522)"/>
                    <path id="Trazado_242" data-name="Trazado 242" class="cls-13" d="M235.355,164.723a32.133,32.133,0,0,1,59.914.531" transform="translate(-200.316 -111.702)"/>
                    <path id="Trazado_243" data-name="Trazado 243" class="cls-13" d="M256.3,249.643a32.2,32.2,0,0,1-20.739-18.707" transform="translate(-200.415 -153.911)"/>
                    <circle id="Elipse_4" data-name="Elipse 4" class="cls-13" cx="29.853" cy="29.853" r="29.853" transform="translate(30.482 89.353) rotate(-80.405)"/>
                    <path id="Trazado_244" data-name="Trazado 244" class="cls-13" d="M330.211,179.932a27.722,27.722,0,0,1-10.723,38.335" transform="translate(-241.388 -129.012)"/>
                    <path id="Trazado_245" data-name="Trazado 245" class="cls-13" d="M259.148,159.472a27.736,27.736,0,0,1,29.107-3.911" transform="translate(-211.931 -115.913)"/>
                    <path id="Trazado_246" data-name="Trazado 246" class="cls-13" d="M255.485,228.48a27.752,27.752,0,0,1-15.642-29.112" transform="translate(-202.365 -138.5)"/>
                    <circle id="Elipse_5" data-name="Elipse 5" class="cls-13" cx="40.918" cy="40.918" r="40.918" transform="translate(17.458 98.037) rotate(-79.942)"/>
                    <circle id="Elipse_6" data-name="Elipse 6" class="cls-13" cx="25.651" cy="25.651" r="25.651" transform="translate(39.242 39.242)"/>
                    <path id="Trazado_247" data-name="Trazado 247" class="cls-13" d="M312.987,220.777a23.361,23.361,0,0,1-25.4,16.189" transform="translate(-225.813 -148.952)"/>
                    <path id="Trazado_248" data-name="Trazado 248" class="cls-13" d="M268.311,208.1a23.309,23.309,0,1,1,25.4-16.188" transform="translate(-206.541 -120.089)"/>
                    <path id="Trazado_249" data-name="Trazado 249" class="cls-13" d="M285.285,165.985a21.369,21.369,0,0,1,21.769,8.653" transform="translate(-224.691 -121.991)"/>
                    <path id="Trazado_250" data-name="Trazado 250" class="cls-13" d="M260.705,227.054a21.318,21.318,0,0,1-8.318-14.153" transform="translate(-208.63 -145.107)"/>
                    <path id="Trazado_251" data-name="Trazado 251" class="cls-13" d="M298.168,242.43a21.38,21.38,0,0,1-18.717,2.042" transform="translate(-221.843 -159.522)"/>
                    <path id="Trazado_252" data-name="Trazado 252" class="cls-13" d="M327.818,183.306a21.234,21.234,0,0,1,3.863,12.246" transform="translate(-245.455 -130.659)"/>
                    <circle id="Elipse_7" data-name="Elipse 7" class="cls-13" cx="43.321" cy="43.321" r="43.321" transform="translate(21.573 21.573)"/>
                    <path id="Trazado_253" data-name="Trazado 253" class="cls-14" d="M243.442,255.208a38.6,38.6,0,0,1-20.133-21.5" transform="translate(-194.435 -155.264)"/>
                    <path id="Trazado_254" data-name="Trazado 254" class="cls-15" d="M275.105,208.132a19.478,19.478,0,1,1,0-38.957" transform="translate(-210.212 -123.76)"/>
                    <circle id="Elipse_8" data-name="Elipse 8" class="cls-12" cx="4.025" cy="4.025" r="4.025" transform="translate(60.868 60.868)"/>
                  </g>
                  <g id="Grupo_113" data-name="Grupo 113" transform="translate(71.61 57.384)">
                    <g id="Grupo_112" data-name="Grupo 112" transform="translate(0 0)">
                      <g id="Grupo_99" data-name="Grupo 99" transform="translate(0.163 0.213)">
                        <g id="Grupo_98" data-name="Grupo 98" class="cls-16">
                          <path id="Trazado_255" data-name="Trazado 255" class="cls-17" d="M219.045,234.9c15.681.185,30.386-3.7,45.52.526.021,2.556.3,12.166.3,12.166l-45.513-.536S219.081,236.384,219.045,234.9Z" transform="translate(-218.607 -206.179)"/>
                          <path id="Trazado_256" data-name="Trazado 256" class="cls-18" d="M275.053,256.843l1.829-6.77a77.205,77.205,0,0,0-13.526-.295,85.392,85.392,0,0,0-8.54,1.161c-2.311.464-6.837,3.24-6.837,3.24S267.309,251.708,275.053,256.843Z" transform="translate(-232.732 -214.063)"/>
                          <path id="Trazado_257" data-name="Trazado 257" class="cls-18" d="M281.525,198.424a.788.788,0,1,1-.792-.784A.788.788,0,0,1,281.525,198.424Z" transform="translate(-248.34 -188.695)"/>
                          <path id="Trazado_258" data-name="Trazado 258" class="cls-18" d="M262.6,213.407a.787.787,0,1,1-.791-.784A.787.787,0,0,1,262.6,213.407Z" transform="translate(-239.102 -196.01)"/>
                          <path id="Trazado_259" data-name="Trazado 259" class="cls-18" d="M235.714,222.458a.787.787,0,1,1-.792-.784A.788.788,0,0,1,235.714,222.458Z" transform="translate(-225.975 -200.428)"/>
                          <path id="Trazado_260" data-name="Trazado 260" class="cls-18" d="M256.371,234.269a.787.787,0,1,1-.791-.783A.787.787,0,0,1,256.371,234.269Z" transform="translate(-236.06 -206.195)"/>
                          <path id="Trazado_261" data-name="Trazado 261" class="cls-18" d="M241.439,205.718a.787.787,0,1,1-.792-.784A.788.788,0,0,1,241.439,205.718Z" transform="translate(-228.77 -192.256)"/>
                          <path id="Trazado_262" data-name="Trazado 262" class="cls-18" d="M288.771,226.027a.787.787,0,1,1-.791-.784A.787.787,0,0,1,288.771,226.027Z" transform="translate(-251.877 -202.171)"/>
                          <path id="Trazado_263" data-name="Trazado 263" class="cls-18" d="M283.449,211.442a.5.5,0,1,1-.5-.494A.5.5,0,0,1,283.449,211.442Z" transform="translate(-249.564 -195.192)"/>
                          <path id="Trazado_264" data-name="Trazado 264" class="cls-18" d="M300.525,197.849a.5.5,0,1,1-.5-.493A.5.5,0,0,1,300.525,197.849Z" transform="translate(-257.9 -188.557)"/>
                          <path id="Trazado_265" data-name="Trazado 265" class="cls-18" d="M265.863,191.769a.5.5,0,1,1-.5-.493A.5.5,0,0,1,265.863,191.769Z" transform="translate(-240.978 -185.588)"/>
                          <path id="Trazado_266" data-name="Trazado 266" class="cls-18" d="M255.267,197.566a.5.5,0,1,1-.5-.494A.5.5,0,0,1,255.267,197.566Z" transform="translate(-235.806 -188.418)"/>
                          <path id="Trazado_267" data-name="Trazado 267" class="cls-18" d="M271.8,226.593a.5.5,0,1,1-.5-.494A.5.5,0,0,1,271.8,226.593Z" transform="translate(-243.875 -202.589)"/>
                          <path id="Trazado_268" data-name="Trazado 268" class="cls-18" d="M226.372,228.16a.5.5,0,1,1-.5-.494A.5.5,0,0,1,226.372,228.16Z" transform="translate(-221.699 -203.354)"/>
                          <path id="Trazado_269" data-name="Trazado 269" class="cls-18" d="M246,213.437a.5.5,0,1,1-.5-.494A.5.5,0,0,1,246,213.437Z" transform="translate(-231.282 -196.166)"/>
                          <path id="Trazado_270" data-name="Trazado 270" class="cls-18" d="M267.88,206.83a.5.5,0,1,1-.5-.493A.5.5,0,0,1,267.88,206.83Z" transform="translate(-241.963 -192.941)"/>
                          <path id="Trazado_271" data-name="Trazado 271" class="cls-18" d="M264.273,229.5a.5.5,0,1,1-.5-.493A.5.5,0,0,1,264.273,229.5Z" transform="translate(-240.202 -204.008)"/>
                          <path id="Trazado_272" data-name="Trazado 272" class="cls-18" d="M247.06,192.534a.5.5,0,1,1-.5-.493A.5.5,0,0,1,247.06,192.534Z" transform="translate(-231.799 -185.962)"/>
                          <path id="Trazado_273" data-name="Trazado 273" class="cls-18" d="M293.5,217.1a.5.5,0,1,1-.5-.494A.5.5,0,0,1,293.5,217.1Z" transform="translate(-254.47 -197.953)"/>
                          <path id="Trazado_274" data-name="Trazado 274" class="cls-18" d="M304.629,230.294a.5.5,0,1,1-.5-.493A.5.5,0,0,1,304.629,230.294Z" transform="translate(-259.904 -204.396)"/>
                          <path id="Trazado_275" data-name="Trazado 275" class="cls-18" d="M232.805,204.863a.5.5,0,1,1-.5-.493A.5.5,0,0,1,232.805,204.863Z" transform="translate(-224.84 -191.981)"/>
                          <path id="Trazado_276" data-name="Trazado 276" class="cls-3" d="M260.88,213.646h.288a.289.289,0,1,0,0-.578h-.489a42.558,42.558,0,0,1-1.363-5.3h.25a.289.289,0,0,0,0-.579h-.36a87.868,87.868,0,0,1-1.3-14.247s.014-.394-.007-.891h.267a.174.174,0,0,0,0-.347h-.287c-.009-.116-.019-.234-.033-.351h.181a.135.135,0,1,0,0-.27h-.218a1.652,1.652,0,0,0-.374-.952v-2.089a.155.155,0,1,0-.309,0v2.089a1.652,1.652,0,0,0-.374.952h-.308a.135.135,0,1,0,0,.27h.27c-.014.117-.025.234-.033.351h-.377a.174.174,0,1,0,0,.347h.357c-.021.5-.007.891-.007.891a87.867,87.867,0,0,1-1.3,14.247h-.395a.289.289,0,0,0,0,.579h.285a42.558,42.558,0,0,1-1.363,5.3h-.619a.289.289,0,0,0,0,.578h.418a15.544,15.544,0,0,1-3.279,5.73h2.032s1.7-4,4.437-4.124v0h.815v0c2.739.121,4.437,4.124,4.437,4.124h2.032A15.537,15.537,0,0,1,260.88,213.646Zm-5.223-.578a17.76,17.76,0,0,0,.992-4.032h1.367a21.917,21.917,0,0,0,.872,4.032Z" transform="translate(-233.917 -183.936)"/>
                          <path id="Trazado_277" data-name="Trazado 277" class="cls-18" d="M219.69,238.291l.078,15.183,45.284-.233-.069-13.352a55.816,55.816,0,0,1-9.479,1.417,84.992,84.992,0,0,1-14.97-1.413C232.239,238.052,220.552,237.853,219.69,238.291Z" transform="translate(-218.921 -208.445)"/>
                        </g>
                      </g>
                      <g id="Grupo_103" data-name="Grupo 103">
                        <g id="Grupo_100" data-name="Grupo 100" transform="translate(0 0.531)">
                          <path id="Trazado_279" data-name="Trazado 279" class="cls-19" d="M222.758,202.079a23.354,23.354,0,0,1,13.5-21.3,23.354,23.354,0,1,0,14.814,44,23.366,23.366,0,0,1-28.314-22.7Z" transform="translate(-217.87 -180.783)"/>
                        </g>
                        <g id="Grupo_102" data-name="Grupo 102" transform="translate(0)">
                          <g id="Grupo_101" data-name="Grupo 101">
                            <path id="Trazado_280" data-name="Trazado 280" class="cls-20" d="M240.272,224.515c7.539-.039,14.445-2.455,13.986-2.042a23.352,23.352,0,1,0-25.873.133C227.923,222.2,232.733,224.554,240.272,224.515Z" transform="translate(-217.87 -179.746)"/>
                          </g>
                          <path id="Trazado_281" data-name="Trazado 281" class="cls-21" d="M269.017,202.979a23.364,23.364,0,0,0-28.314-22.7,23.357,23.357,0,0,0,14.814,44A23.353,23.353,0,0,0,269.017,202.979Z" transform="translate(-222.426 -179.747)"/>
                        </g>
                      </g>
                      <g id="Grupo_104" data-name="Grupo 104" class="cls-22" transform="translate(24.859 2.987)">
                        <path id="Trazado_282" data-name="Trazado 282" class="cls-23" d="M283.725,206.74a1.07,1.07,0,0,1-1.075-1.065,18.311,18.311,0,0,0-15.312-17.968,1.07,1.07,0,1,1,.347-2.111,20.451,20.451,0,0,1,17.105,20.069A1.07,1.07,0,0,1,283.725,206.74Z" transform="translate(-266.441 -185.582)"/>
                      </g>
                      <g id="Grupo_111" data-name="Grupo 111" transform="translate(6.559 41.969)">
                        <g id="Grupo_106" data-name="Grupo 106" transform="translate(1.874 1.046)">
                          <rect id="Rectángulo_129" data-name="Rectángulo 129" class="cls-24" width="30.041" height="6.668" transform="matrix(1, -0.005, 0.005, 1, 0, 0.155)"/>
                          <g id="Grupo_105" data-name="Grupo 105" transform="translate(28.732 1.79)">
                            <path id="Trazado_283" data-name="Trazado 283" class="cls-25" d="M290.784,271.515a.279.279,0,0,1-.28-.278l-.019-3.669a.279.279,0,0,1,.558,0l.019,3.669A.28.28,0,0,1,290.784,271.515Z" transform="translate(-290.485 -267.288)"/>
                          </g>
                          <path id="Trazado_284" data-name="Trazado 284" class="cls-26" d="M249.777,270.854l-15.395.079-.033-6.458,15.395-.079" transform="translate(-234.348 -264.085)"/>
                        </g>
                        <g id="Grupo_108" data-name="Grupo 108" transform="translate(0.665)">
                          <path id="Trazado_285" data-name="Trazado 285" class="cls-27" d="M263.519,263.835l-30.484.157a1.048,1.048,0,0,1-1.05-1.039h0a1.048,1.048,0,0,1,1.039-1.05l30.484-.157a1.047,1.047,0,0,1,1.05,1.038h0A1.047,1.047,0,0,1,263.519,263.835Z" transform="translate(-231.985 -261.747)"/>
                          <g id="Grupo_107" data-name="Grupo 107" transform="translate(31.037 0.371)">
                            <path id="Trazado_286" data-name="Trazado 286" class="cls-25" d="M293.584,263.182a.153.153,0,0,1-.144-.1c-.085-.229-.3-.33-.647-.3a.153.153,0,0,1-.027-.305.826.826,0,0,1,.961.5.152.152,0,0,1-.09.2A.149.149,0,0,1,293.584,263.182Z" transform="translate(-292.627 -262.472)"/>
                          </g>
                          <path id="Trazado_287" data-name="Trazado 287" class="cls-26" d="M247.773,263.994l-14.759.076a1.027,1.027,0,0,1-1.029-1.019v-.041A1.027,1.027,0,0,1,233,261.981l14.759-.076" transform="translate(-231.985 -261.824)"/>
                        </g>
                        <g id="Grupo_110" data-name="Grupo 110" transform="translate(0 7.704)">
                          <rect id="Rectángulo_130" data-name="Rectángulo 130" class="cls-27" width="33.857" height="2.557" rx="1.279" transform="translate(0 0.174) rotate(-0.295)"/>
                          <g id="Grupo_109" data-name="Grupo 109" transform="translate(32.32 0.405)">
                            <path id="Trazado_288" data-name="Trazado 288" class="cls-25" d="M294.791,278.3a.153.153,0,0,1-.144-.1c-.086-.229-.3-.331-.647-.3a.153.153,0,1,1-.028-.305.827.827,0,0,1,.961.5.154.154,0,0,1-.09.2A.145.145,0,0,1,294.791,278.3Z" transform="translate(-293.834 -277.59)"/>
                          </g>
                          <path id="Trazado_289" data-name="Trazado 289" class="cls-26" d="M249.416,279.509l-17.688.091a1.028,1.028,0,0,1-1.029-1.019l0-.51a1.027,1.027,0,0,1,1.018-1.029l17.688-.091" transform="translate(-230.691 -276.874)"/>
                        </g>
                      </g>
                    </g>
                  </g>
                  <g id="Grupo_119" data-name="Grupo 119" transform="translate(16.012 47.417)">
                    <g id="Grupo_118" data-name="Grupo 118">
                      <g id="Grupo_117" data-name="Grupo 117">
                        <g id="Grupo_114" data-name="Grupo 114" transform="translate(17.96)">
                          <rect id="Rectángulo_131" data-name="Rectángulo 131" class="cls-28" width="9.604" height="5.723" transform="translate(6.329 23.109)"/>
                          <path id="Rectángulo_132" data-name="Rectángulo 132" class="cls-29" d="M7.08,0h8.1a7.079,7.079,0,0,1,7.079,7.079V18.8a7.079,7.079,0,0,1-7.079,7.079H7.08A7.08,7.08,0,0,1,0,18.8V7.08A7.08,7.08,0,0,1,7.08,0Z"/>
                          <rect id="Rectángulo_133" data-name="Rectángulo 133" class="cls-30" width="18.472" height="9.929" rx="4.524" transform="translate(1.895 2.222)"/>
                        </g>
                        <g id="Grupo_116" data-name="Grupo 116" transform="translate(0 25.878)">
                          <path id="Trazado_290" data-name="Trazado 290" class="cls-31" d="M146.369,218.625l-4.809.132a1.516,1.516,0,0,1-1.516-1.506l-.012-3.846a1.516,1.516,0,0,1,1.507-1.516l3.813.041a1.516,1.516,0,0,1,1.516,1.506l-.075,3.593c0,.831.209,1.627-.622,1.629" transform="translate(-136.496 -211.889)"/>
                          <path id="Trazado_291" data-name="Trazado 291" class="cls-29" d="M178.762,251.893l-42.622.133a2.921,2.921,0,0,1-2.921-2.9l-.095-30.268a2.921,2.921,0,0,1,2.9-2.921l42.622-.133a2.92,2.92,0,0,1,2.921,2.9l.095,30.268a2.92,2.92,0,0,1-2.9,2.921" transform="translate(-133.124 -213.799)"/>
                          <path id="Trazado_292" data-name="Trazado 292" class="cls-2" d="M144.391,225.187a1.34,1.34,0,1,1-1.344-1.336,1.34,1.34,0,0,1,1.344,1.336" transform="translate(-137.317 -217.729)"/>
                          <path id="Trazado_293" data-name="Trazado 293" class="cls-32" d="M184.724,237.97a15.331,15.331,0,1,1-15.378-15.282,15.331,15.331,0,0,1,15.378,15.282" transform="translate(-143.346 -217.161)"/>
                          <path id="Trazado_294" data-name="Trazado 294" class="cls-33" d="M213.884,224.367l-5.953.019c-.831,0-1.512-.426-1.514-.952L206.41,221c0-.527.677-.959,1.508-.962l5.952-.018c.831,0,1.512.426,1.514.952l.008,2.436c0,.526-.677.959-1.508.962" transform="translate(-168.902 -215.857)"/>
                          <g id="Grupo_115" data-name="Grupo 115" transform="translate(9.051 4.673)">
                            <path id="Trazado_295" data-name="Trazado 295" class="cls-28" d="M181.469,236.3a15.33,15.33,0,1,1-15.378-15.283A15.33,15.33,0,0,1,181.469,236.3" transform="translate(-150.809 -221.019)"/>
                            <path id="Trazado_296" data-name="Trazado 296" class="cls-34" d="M181.315,239.51A11.977,11.977,0,1,1,169.3,227.57a11.977,11.977,0,0,1,12.015,11.94" transform="translate(-154.007 -224.217)"/>
                            <path id="Trazado_297" data-name="Trazado 297" class="cls-35" d="M181.125,243.454a7.856,7.856,0,1,1-7.88-7.832,7.856,7.856,0,0,1,7.88,7.832" transform="translate(-157.938 -228.148)"/>
                            <path id="Trazado_298" data-name="Trazado 298" class="cls-3" d="M181.47,241.655a5.956,5.956,0,1,1-5.974-5.937,5.956,5.956,0,0,1,5.974,5.937" transform="translate(-159.962 -228.195)"/>
                            <path id="Trazado_299" data-name="Trazado 299" class="cls-36" d="M185.969,239.9a1.417,1.417,0,1,1-1.421-1.412,1.417,1.417,0,0,1,1.421,1.412" transform="translate(-166.591 -229.545)"/>
                          </g>
                        </g>
                      </g>
                    </g>
                  </g>
                  <g id="Grupo_122" data-name="Grupo 122" transform="translate(13.456 101.765)">
                    <g id="Grupo_121" data-name="Grupo 121">
                      <g id="Grupo_120" data-name="Grupo 120">
                        <rect id="Rectángulo_134" data-name="Rectángulo 134" class="cls-37" width="149.531" height="68.235"/>
                      </g>
                      <rect id="Rectángulo_135" data-name="Rectángulo 135" class="cls-5" width="55.206" height="68.235" transform="translate(94.325)"/>
                    </g>
                  </g>
                  <g id="Grupo_123" data-name="Grupo 123" transform="translate(13.307 97.93)">
                    <path id="Trazado_300" data-name="Trazado 300" class="cls-5" d="M211.789,253.242v-.229H127.838l.227,26.352v6.4H199.5l12.29-22.086v.222l12.294,22.093,53.414-.229v-6.4l.227-26.352Z" transform="translate(-127.838 -253.013)"/>
                    <path id="Trazado_301" data-name="Trazado 301" class="cls-38" d="M321.094,253.013,334.4,279.364h-55.34l-13.375-26.352Z" transform="translate(-171.213 -253.013)"/>
                  </g>
                  <path id="Trazado_302" data-name="Trazado 302" class="cls-37" d="M115.145,253.013l-13.307,26.352h70.484L185.7,253.013Z" transform="translate(-101.838 -155.572)"/>
                </g>
              </g>
            </g>
          </g>
        </g>
        <g id="Grupo_876" data-name="Grupo 876" transform="translate(94.025 -183.048)">
          <g id="Componente_15_1" data-name="Componente 15 – 1" transform="translate(143.475 275.963)">
            <path id="Trazado_919" data-name="Trazado 919" class="cls-39" d="M136.783,459.69v22.736h-6.5l-4.33-23.819Z" transform="translate(-72.252 -278.222)"/>
            <path id="Trazado_920" data-name="Trazado 920" class="cls-39" d="M23.4,459.69v22.736h-6.5l-4.331-23.819Z" transform="translate(-10.299 -278.222)"/>
            <path id="Trazado_921" data-name="Trazado 921" class="cls-39" d="M253.76,250.756s-10.439-7.5-11.744-3.915,7.829,10.113,7.829,10.113Z" transform="translate(-206.387 -236.892)"/>
            <path id="Trazado_922" data-name="Trazado 922" class="cls-40" d="M186.433,249.564c0,12.972,5.585,13.375,14.683,13.375s18.264-.4,18.264-13.375-7.375-23.487-16.474-23.487S186.433,236.592,186.433,249.564Z" transform="translate(-176.085 -226.077)"/>
            <path id="Trazado_923" data-name="Trazado 923" class="cls-39" d="M217.228,276.446s-1.3,9.786,4.893,10.439-20.225,2.61-20.225,2.61,6.85-6.2,3.262-11.091S217.228,276.446,217.228,276.446Z" transform="translate(-184.534 -253.122)"/>
            <path id="Trazado_924" data-name="Trazado 924" class="cls-40" d="M293.5,662.983l2.283,19.246s11.417,14.027,4.241,13.048-11.744.208-11.744-1.1-.169-5.967-1.147-5.967-1.789,7.362-1.789,7.362-2.936-.222-3.262-.548-.652-19-.652-19-.979-5.546.979-8.155a7.144,7.144,0,0,0,1.631-4.893Z" transform="translate(-227.86 -464.811)"/>
            <path id="Trazado_925" data-name="Trazado 925" class="cls-40" d="M178.928,662.517l2.283,19.246s11.417,14.027,4.241,13.048-11.744.208-11.744-1.1-.169-5.967-1.147-5.967-1.789,7.362-1.789,7.362-2.936-.222-3.262-.548-.652-19-.652-19-.979-5.546.979-8.155a7.144,7.144,0,0,0,1.631-4.893Z" transform="translate(-165.255 -464.556)"/>
            <path id="Trazado_926" data-name="Trazado 926" class="cls-40" d="M213.036,410.548s10.439,29.685,11.091,36.209-.652,28.706-.652,28.706,9.46,38.327,7.5,38.653-12.857,1.873-13.183.242-1.489-4.156-1.163-5.135-.979-4.567-.979-6.524-4.574-12.23-4.248-13.861-5.546-25.771-6.524-27.728-3.588-15.658-3.588-15.658-14.679,40.124-15.006,41.1-1.631,2.61-.979,2.936-.979,2.61-.979,2.61-3.38,13.535-3.38,14.187.652,8.037-.652,8.363-14.633.305-15.286-1.978,6.922-28.728,6.922-28.728,5.546-16.637,3.915-20.877,1.631-29.685,2.936-31.642,1.631-13.7,1.631-13.7Z" transform="translate(-164.358 -326.876)"/>
            <circle id="Elipse_53" data-name="Elipse 53" class="cls-39" cx="10.439" cy="10.439" r="10.439" transform="translate(16.546 7.829)"/>
            <path id="Trazado_927" data-name="Trazado 927" class="cls-41" d="M200.33,294.487s-11.744.326-12.4-.652-16.963,2.283-16.963,8.808,9.46,31.969,9.46,31.969,3.588,18.268,2.61,20.225,36.209-4.241,35.231-7.5-6.524-10.439.652-16.637a41.22,41.22,0,0,0,10.112-12.722l-8.481-22.508s-8.481-1.3-10.439,0S200.33,294.487,200.33,294.487Z" transform="translate(-167.636 -263.007)"/>
            <path id="Trazado_928" data-name="Trazado 928" class="cls-41" d="M271.3,297.773l2.283-1.631s21.2-22.182,15.658-26.423-13.7-8.155-17.615-8.481a14.037,14.037,0,0,1-7.177-3.262s-4.241-7.5-7.5-2.61-6.85,6.524-2.283,8.155,7.5.979,9.786,2.61,11.091,4.241,7.177,5.219a35.013,35.013,0,0,0-6.524,2.283l-4.241,7.5Z" transform="translate(-212.187 -241.175)"/>
            <path id="Trazado_929" data-name="Trazado 929" class="cls-39" d="M204.431,472.4s8.481,12.4,2.283,11.744-9.134-9.134-9.134-9.134Z" transform="translate(-182.176 -360.672)"/>
            <path id="Trazado_930" data-name="Trazado 930" class="cls-41" d="M169.237,309.862l-2.283,1.631s-7.5,41.1,0,51.867,8.155,10.113,8.155,10.113,1.3-.979,1.957,5.546-.326,9.134,1.631,9.134,10.765-1.957,10.112-3.588-4.893-11.091-5.219-13.375-1.957-7.5-2.61-10.439,2.936-4.567,1.3-10.765-3.915-17.289-3.915-19.573S169.237,309.862,169.237,309.862Z" transform="translate(-163.619 -271.859)"/>
            <path id="Trazado_931" data-name="Trazado 931" class="cls-40" d="M200.817,238.191c0,3.513,4.82,6.361,10.765,6.361S223,246.435,223,242.921s-5.472-11.091-11.417-11.091S200.817,234.678,200.817,238.191Z" transform="translate(-183.945 -229.221)"/>
            <path id="Trazado_932" data-name="Trazado 932" class="cls-40" d="M239.4,282.712s.439,11.825-11.312,11.173,1.588-10.108,1.588-10.108Z" transform="translate(-196.2 -257.023)"/>
          </g>
        </g>
      </g>
    </g>
    <ellipse id="Elipse_49" data-name="Elipse 49" class="cls-42" cx="78.542" cy="8.06" rx="78.542" ry="8.06" transform="translate(197.941 320.412)"/>
  </g>
</svg>
