<svg xmlns="http://www.w3.org/2000/svg" width="219.013" height="273.617" viewBox="0 0 219.013 273.617">
  <defs>
    <style>
      .cls-1 {
        fill: #3f3d56;
      }

      .cls-2 {
        fill: #fff;
      }

      .cls-3 {
        fill: #e6e6e6;
      }

      .cls-4 {
        fill: #6c63ff;
      }

      .cls-5 {
        fill: #ffb8b8;
      }

      .cls-6 {
        fill: #2f2e41;
      }

      .cls-7 {
        fill: #263238;
      }
    </style>
  </defs>
  <g id="Grupo_895" data-name="Grupo 895" transform="translate(-66.526 -58.161)">
    <g id="Grupo_896" data-name="Grupo 896">
      <g id="Grupo_808" data-name="Grupo 808" transform="translate(66.524 58.161)">
        <path id="Trazado_624" data-name="Trazado 624" class="cls-1" d="M664.814,151.133h-1.5V109.948a23.837,23.837,0,0,0-23.837-23.837H552.218a23.837,23.837,0,0,0-23.837,23.837V335.891a23.837,23.837,0,0,0,23.837,23.837h87.256a23.837,23.837,0,0,0,23.837-23.837V180.449h1.5Z" transform="translate(-445.799 -86.111)"/>
        <path id="Trazado_625" data-name="Trazado 625" class="cls-2" d="M651.353,102.606h-11.39a8.457,8.457,0,0,1-7.83,11.651H582.145a8.457,8.457,0,0,1-7.83-11.651H563.677a17.8,17.8,0,0,0-17.8,17.8V346.019a17.8,17.8,0,0,0,17.8,17.8h87.676a17.8,17.8,0,0,0,17.8-17.8h0V120.407a17.8,17.8,0,0,0-17.8-17.8Z" transform="translate(-456.717 -96.404)"/>
        <rect id="Rectángulo_176" data-name="Rectángulo 176" class="cls-3" width="50.982" height="87.094" transform="translate(99.664 48.216)"/>
        <rect id="Rectángulo_178" data-name="Rectángulo 178" class="cls-3" width="42.485" height="23.974" transform="translate(159.447 48.216)"/>
        <rect id="Rectángulo_179" data-name="Rectángulo 179" class="cls-3" width="42.485" height="25.795" transform="translate(159.447 78.866)"/>
        <rect id="Rectángulo_180" data-name="Rectángulo 180" class="cls-3" width="42.485" height="23.974" transform="translate(159.447 111.337)"/>
        <rect id="Rectángulo_181" data-name="Rectángulo 181" class="cls-4" width="101.982" height="75.955" transform="translate(99.727 142.133)"/>
        <path id="Trazado_626" data-name="Trazado 626" class="cls-5" d="M465.7,427.888l7.1,3.6c2.533,1.286,4.977,1.066,5.913-1.616h0a4.692,4.692,0,0,0-3.569-6.159l-6.744-1.259-28.885-9.583-17.5-12.407L415.6,410.686l20.218,10.91Z" transform="translate(-375.419 -282.281)"/>
        <path id="Trazado_627" data-name="Trazado 627" class="cls-5" d="M150.516,686.911l5.429-.905-.6-10.255h-5.731Z" transform="translate(-93.362 -421.694)"/>
        <path id="Trazado_628" data-name="Trazado 628" class="cls-5" d="M11.857,661.581l5.254,1.639,4.084-9.426-5.116-2.583Z" transform="translate(-7.398 -406.38)"/>
        <path id="Trazado_629" data-name="Trazado 629" class="cls-6" d="M387.016,330.165c10.338-4.4,23.214-1.611,35.788.322.117-2.341,1.535-5.191.05-6.825-1.805-1.985-1.639-4.07-.553-6.167,2.778-5.363-1.2-11.07-5.22-15.815a8.9,8.9,0,0,0-7.427-3.117l-7.443.532a8.914,8.914,0,0,0-7.915,6.371h0c-1.777,2.417-2.728,4.828-2.13,7.225-2.662,1.819-3.109,4.015-1.913,6.491a3.731,3.731,0,0,1-.046,4.551,21.013,21.013,0,0,0-3.124,6.206Z" transform="translate(-357.582 -218.674)"/>
        <path id="Trazado_630" data-name="Trazado 630" class="cls-6" d="M328.37,578.79l6.636,2.715,31.671-41.625,9.954,48.864,6.636-1.207c4.257-42.127,7.728-85.1,3.469-105.42l-24.583-1.056-11.16,35.592-5.429,24.13Z" transform="translate(-320.985 -332.575)"/>
        <path id="Trazado_631" data-name="Trazado 631" class="cls-6" d="M455.291,792.924h0a4.765,4.765,0,0,0,2.953-.314l3.225-1.451c2.7-.139,4.546.4,6.052-1.565a3.946,3.946,0,0,0,.461-3.978h0a3.974,3.974,0,0,0-3.245-2.361l-4.43-2.792-.233,2.093c-2.025,1.147-4.428.652-6.976-.465l-1.39,4.866a4.764,4.764,0,0,0,3.583,5.967Z" transform="translate(-397.838 -519.413)"/>
        <path id="Trazado_632" data-name="Trazado 632" class="cls-6" d="M311.039,768.867h0a4.765,4.765,0,0,0,2.9.662l3.522-.325c2.6.747,4.17,1.854,6.232.485a3.947,3.947,0,0,0,1.728-3.613h0a3.973,3.973,0,0,0-2.3-3.287l-3.283-4.079-.9,1.9c-2.287.427-4.4-.822-6.447-2.705l-2.9,4.151a4.764,4.764,0,0,0,1.451,6.807Z" transform="translate(-308.73 -505.338)"/>
        <circle id="Elipse_39" data-name="Elipse 39" class="cls-5" cx="10.859" cy="10.859" r="10.859" transform="translate(39.358 83.938)"/>
        <path id="Trazado_633" data-name="Trazado 633" class="cls-5" d="M98.264,285.08l14.177-3.016,1.81-11.763-9.954-2.111Z" transform="translate(-61.319 -167.36)"/>
        <path id="Trazado_634" data-name="Trazado 634" class="cls-4" d="M405.22,421.415h25.337l-5.711-14.338c.415-4.934-1.676-8.562-4.669-11.722l-3.8-9.532c-6.135-4.038-10.76-3.736-15.685,1.508C394.856,395.6,398.9,408.026,405.22,421.415Z" transform="translate(-364.354 -271.42)"/>
        <path id="Trazado_635" data-name="Trazado 635" class="cls-5" d="M427.885,480.492l.721,7.926c.257,2.829,1.743,4.783,4.512,4.15h0a4.692,4.692,0,0,0,3.319-6.3l-2.519-6.382-7.239-29.56,1.206-21.416H415.819l1.508,22.924Z" transform="translate(-375.557 -300.032)"/>
        <path id="Trazado_636" data-name="Trazado 636" class="cls-6" d="M397.307,331.664c1.167-10.578,4.159-19.586,9.35-26.7l.777-.026v-.192l2.523.107,7.017-.236c-.164.171-.321.343-.48.514l5.116.218,4.826,9.954a32.057,32.057,0,0,0-14.285-.811,3.416,3.416,0,0,0-2.67,2.127,1.271,1.271,0,0,0,.009,1.118c2.028,3.538,1.927,7.423-.134,11.5-.45.891.414,1.962.685,2.945Z" transform="translate(-364.004 -222.467)"/>
        <path id="Trazado_637" data-name="Trazado 637" class="cls-4" d="M413.413,405.5h13.875l-.973-9.051a6.279,6.279,0,0,0-5.96-6.015h0a6.279,6.279,0,0,0-6.588,6.025Z" transform="translate(-374.055 -276.013)"/>
        <rect id="Rectángulo_190" data-name="Rectángulo 190" class="cls-3" width="102.485" height="35.974" transform="translate(99.447 224.337)"/>
      </g>
      <g id="Grupo_874" data-name="Grupo 874" transform="translate(-2071.665 82.566)">
        <g id="Componente_9_2" data-name="Componente 9 – 2" transform="translate(2244 128)">
          <path id="Trazado_848" data-name="Trazado 848" class="cls-7" d="M108.472,291.028A15.672,15.672,0,1,1,92.8,306.7a15.69,15.69,0,0,1,15.672-15.672m0-2.25A17.922,17.922,0,1,0,126.394,306.7a17.922,17.922,0,0,0-17.922-17.922Z" transform="translate(-90.55 -270.8)"/>
          <path id="Trazado_850" data-name="Trazado 850" class="cls-7" d="M299.912,291.028A15.672,15.672,0,1,1,284.24,306.7a15.69,15.69,0,0,1,15.672-15.672m0-2.25A17.922,17.922,0,1,0,317.834,306.7a17.922,17.922,0,0,0-17.922-17.922Z" transform="translate(-228.154 -270.8)"/>
          <path id="Trazado_852" data-name="Trazado 852" class="cls-7" d="M228.84,361.184a2.767,2.767,0,1,1-2.767,2.767,2.77,2.77,0,0,1,2.767-2.767m0-1.406a4.173,4.173,0,1,0,4.173,4.173,4.173,4.173,0,0,0-4.173-4.173Z" transform="translate(-186.951 -321.834)"/>
          <circle id="Elipse_47" data-name="Elipse 47" class="cls-7" cx="2.765" cy="2.765" r="2.765" transform="translate(15.157 33.135)"/>
          <circle id="Elipse_48" data-name="Elipse 48" class="cls-7" cx="2.765" cy="2.765" r="2.765" transform="translate(68.993 33.135)"/>
          <path id="Trazado_853" data-name="Trazado 853" class="cls-7" d="M147.21,343.518h0a1.932,1.932,0,0,1,.518.071l.031.008.031.007,24.232,4.832a3.33,3.33,0,0,1-1.643,6.453l-23.653-7.59-.015-.005-.015,0a1.922,1.922,0,0,1,.515-3.772m0-.844a2.765,2.765,0,0,0-.742,5.428l23.679,7.6a4.173,4.173,0,1,0,2.063-8.088l-24.255-4.837a2.766,2.766,0,0,0-.745-.1Z" transform="translate(-129.289 -309.54)"/>
          <path id="Trazado_854" data-name="Trazado 854" class="cls-7" d="M198.971,282.4a.866.866,0,0,1-.12-.008.844.844,0,0,1-.657-.507l-15.015-35.566a.844.844,0,0,1,1.555-.656L199.2,279.936l23.05-28.218a.844.844,0,1,1,1.306,1.067l-23.935,29.3A.844.844,0,0,1,198.971,282.4Z" transform="translate(-157.082 -239.437)"/>
          <path id="Trazado_855" data-name="Trazado 855" class="cls-7" d="M152.841,290.735a.563.563,0,0,1-.508-.8l11.284-23.826a.562.562,0,1,1,1.017.481L153.35,290.413A.562.562,0,0,1,152.841,290.735Z" transform="translate(-134.92 -254.273)"/>
          <path id="Trazado_856" data-name="Trazado 856" class="cls-7" d="M234.8,282.067a.843.843,0,0,1-.816-.634l-6.773-26.351-34.886,3.156a.844.844,0,0,1-.152-1.681l35.6-3.22a.844.844,0,0,1,.893.63l6.952,27.046a.844.844,0,0,1-.607,1.027A.862.862,0,0,1,234.8,282.067Z" transform="translate(-163.043 -245.324)"/>
          <path id="Trazado_857" data-name="Trazado 857" class="cls-7" d="M316.253,237.181a.844.844,0,0,1-.834-.722l-1.013-6.979a.844.844,0,1,1,1.67-.242l1.013,6.979a.843.843,0,0,1-.714.956A.822.822,0,0,1,316.253,237.181Z" transform="translate(-251.448 -227.483)"/>
          <g id="Grupo_873" data-name="Grupo 873" transform="translate(0.768)">
            <path id="Trazado_849" data-name="Trazado 849" class="cls-2" d="M110.434,293.661a15,15,0,1,1-15,15,15.018,15.018,0,0,1,15-15m0-2.153a17.154,17.154,0,1,0,17.154,17.154,17.154,17.154,0,0,0-17.154-17.154Z" transform="translate(-93.28 -272.763)"/>
            <path id="Trazado_851" data-name="Trazado 851" class="cls-2" d="M301.874,293.661a15,15,0,1,1-15,15,15.018,15.018,0,0,1,15-15m0-2.153a17.154,17.154,0,1,0,17.154,17.154,17.154,17.154,0,0,0-17.154-17.154Z" transform="translate(-230.884 -272.763)"/>
            <path id="Trazado_858" data-name="Trazado 858" class="cls-2" d="M304.959,229.583a.823.823,0,0,1-.417-1.533l5.274-3.087a.823.823,0,1,1,.831,1.42l-5.274,3.087A.818.818,0,0,1,304.959,229.583Z" transform="translate(-244.839 -224.85)"/>
            <path id="Trazado_859" data-name="Trazado 859" class="cls-2" d="M163.1,238.657c1.469,1.875,7.692-.219,9.58-.844s6.2.625,5.544-.844-10.091-.89-11.4-1.406C164.036,234.47,160.577,235.438,163.1,238.657Z" transform="translate(-142.836 -232.241)"/>
          </g>
          <g id="Grupo_867" data-name="Grupo 867" transform="translate(37.446 32.589)">
            <path id="Trazado_860" data-name="Trazado 860" class="cls-7" d="M229.229,359.792a.564.564,0,0,1-.542-.713l4.972-17.931a.562.562,0,0,1,1.084.3l-4.972,17.931A.563.563,0,0,1,229.229,359.792Z" transform="translate(-227.271 -340.735)"/>
            <path id="Trazado_861" data-name="Trazado 861" class="cls-7" d="M239.172,341.861H234.2a.562.562,0,0,1,0-1.125h4.968a.562.562,0,1,1,0,1.125Z" transform="translate(-230.847 -340.736)"/>
            <path id="Trazado_862" data-name="Trazado 862" class="cls-7" d="M229.237,405.625h-4.968a.562.562,0,1,1,0-1.125h4.968a.562.562,0,1,1,0,1.125Z" transform="translate(-223.706 -386.568)"/>
          </g>
        </g>
      </g>
    </g>
  </g>
</svg>
