<?xml version="1.0" encoding="utf-8"?>
<!-- Generator: Adobe Illustrator 23.1.0, SVG Export Plug-In . SVG Version: 6.00 Build 0)  -->
<svg version="1.1" id="Capa_1" xmlns="http://www.w3.org/2000/svg" xmlns:xlink="http://www.w3.org/1999/xlink" x="0px" y="0px"
	 viewBox="0 0 227.6 309.8" style="enable-background:new 0 0 227.6 309.8;" xml:space="preserve">
<style type="text/css">
	.st0{fill:url(#Trazado_664_1_);}
	.st1{fill:url(#Trazado_668_1_);}
	.st2{fill:url(#Trazado_827_1_);}
	.st3{fill:#333333;}
	.st4{fill:#EABFA5;}
	.st5{fill:#D84744;}
	.st6{fill:#822A2A;}
	.st7{fill:#EEF9F9;}
	.st8{fill:#FFABAB;}
	.st9{fill:#D8A98F;}
	.st10{fill:#F7CAB2;}
	.st11{fill:#DB7631;}
	.st12{fill:#B64E00;}
	.st13{fill:#006CFF;}
	.st14{opacity:0.2;fill:#333333;enable-background:new    ;}
	.st15{opacity:0.3;}
	.st16{fill:#FAE2E2;}
	.st17{fill:#263238;}
	.st18{fill:#FFFFFF;}
</style>
<g id="Grupo_891" transform="translate(-67.941 -24.732)">
	<g id="Grupo_859" transform="translate(115.326 10.054)">
		<g id="Grupo_860" transform="translate(-41.561 14.677)">
			<g id="Grupo_822">
				<g id="Grupo_818" transform="translate(92.008)">
					<g id="Grupo_816">
						
							<linearGradient id="Trazado_664_1_" gradientUnits="userSpaceOnUse" x1="-234.4196" y1="409.8243" x2="-234.7296" y2="411.5213" gradientTransform="matrix(38.186 0 0 -102.817 8979.0361 42260.707)">
							<stop  offset="0" style="stop-color:#DDDBFF;stop-opacity:0.486"/>
							<stop  offset="1" style="stop-color:#FF8383"/>
						</linearGradient>
						<path id="Trazado_664" class="st0" d="M23.4,102.8h-8.6L0,0h38.2L23.4,102.8z"/>
					</g>
				</g>
				<g id="Grupo_821" transform="translate(0 22.764)">
					<g id="Grupo_819" transform="translate(0 0)">
						
							<linearGradient id="Trazado_668_1_" gradientUnits="userSpaceOnUse" x1="-144.8604" y1="387.0582" x2="-145.1704" y2="388.7552" gradientTransform="matrix(104.634 0 0 -104.634 15338.9121 40632.5938)">
							<stop  offset="0" style="stop-color:#DDDBFF;stop-opacity:0.486"/>
							<stop  offset="1" style="stop-color:#FF8383"/>
						</linearGradient>
						<path id="Trazado_668" class="st1" d="M122.5,109.8l-5.3-5.3L198,5.2l23.8,23.8L122.5,109.8z"/>
						
							<linearGradient id="Trazado_827_1_" gradientUnits="userSpaceOnUse" x1="-147.092" y1="386.619" x2="-147.402" y2="388.316" gradientTransform="matrix(5.441 -104.5294 -104.5294 -5.441 41344.5625 -13225.1025)">
							<stop  offset="0" style="stop-color:#DDDBFF;stop-opacity:0.486"/>
							<stop  offset="1" style="stop-color:#FF8383"/>
						</linearGradient>
						<path id="Trazado_827" class="st2" d="M104.8,104.6l-5.6,5.1l-8.2-7.4L4.2,23.7l25-22.5L104.8,104.6z"/>
					</g>
				</g>
			</g>
		</g>
		<g id="Grupo_875" transform="translate(34.325 76.206)">
			<g id="Grupo_850">
				<g id="Grupo_825" transform="translate(28.169 32)">
					<path id="Trazado_672" class="st3" d="M20.3,3.4c0,0,2.8-5,6.3-2.9C32.4,4.1,30.5,12,30.5,12l-1.3-3.5c0,0,1.8,5.6-1,9.4
						l0.3-3.7c0,0-2.2,5.3-6.2,5.9s-4.5,0.6-5,2.9s2.8,3.9,1.8,3.7c-3.6-0.6-3.2-5.1-3.2-5.1l-0.6,3.3c0,0-4.5-8.8-4.2-12.9
						c0.2-2.4,0.9-4.8,2.2-6.9L10.9,6C10.9,6,17.9-5.2,20.3,3.4z"/>
					<path id="Trazado_673" class="st4" d="M23.7,15.6c1.9-3.4,4.7-7.2-1.9-10.7c-1.1-0.6-3.6-0.1-4.6-0.2c-0.7,0-0.8,0.7-1.4,0.8
						c-2.9,0.5-5.4,2-7.2,4.3c0,0,4.2,6.5-8.4,14.7c-1.5,1,9,17.4,10.1,11.3C13.7,15.2,22.6,17.7,23.7,15.6z"/>
					<g id="Grupo_824" transform="translate(5.363 4.373)">
						<g id="Grupo_823" transform="translate(5.815 2.546)">
							<path id="Trazado_674" class="st5" d="M1.6,0c0,0,2.1-0.6,4.3,2.4C6.1,2.7,6.1,3,5.9,3.2c-0.1,0-0.1,0.1-0.2,0.1
								c-1.5,0.5-3,0.5-4.5,0.1C-1.7,2.4,1.6,0,1.6,0z"/>
							<path id="Trazado_675" class="st6" d="M5.7,3.3C5.7,3.3,5.7,3.3,5.7,3.3C5.3,3,4.8,2.8,4.3,2.8c-0.7,0-1.4,0.3-1.9,0.8
								C3.5,3.7,4.6,3.6,5.7,3.3z"/>
							<path id="Trazado_676" class="st7" d="M5.5,2.9C4.4,1.8,2.9,1.1,1.4,0.8c0,0,2,0.6-0.1,0.6c0,0-0.6-0.3-0.3-0.8
								c0.2-0.2,0.4-0.3,0.6-0.5C1.7,0.1,1.9,0,2,0C3.7,0.2,5.1,1.3,5.5,2.9z"/>
							<path id="Trazado_677" class="st7" d="M0.3,2.8C0.3,2.8,0.3,2.8,0.3,2.8c0.3,0.3,0.6,0.5,1,0.6C1.6,3.5,2,3.6,2.4,3.6l0,0
								c0,0,0.3-0.3-0.1-0.7C1.7,2.6,0.9,2.5,0.3,2.8z"/>
							<path id="Trazado_678" class="st8" d="M1.2,3.4C2.1,3.7,3.1,3.8,4,3.6C3.4,3.4,2.8,3.2,2.2,3.2c-0.4,0-0.7,0-1.1,0.1
								C1.2,3.4,1.2,3.4,1.2,3.4z"/>
						</g>
						<path id="Trazado_679" class="st9" d="M2.9,12.1C3.4,16.9,0.6,27.5,0,29.9c0.1,0.1,0.2,0.2,0.3,0.3l5.4-2.8
							c2.5-10.3,6.5-13.2,9.3-14.5c-1.1-0.5-2.2-1-3.3-1.6C4.9,8,3.1,5.5,3.1,5.5S4.8,8.1,2.9,12.1z"/>
						<path id="Trazado_680" class="st4" d="M18.4,10.3c0,0,1.4,0.3,0.3,1.8s-4.4,1.5-3.6-0.3S18.4,10.3,18.4,10.3z"/>
						<path id="Trazado_681" class="st6" d="M14,3.1c0,0,2.8-1.3,3.6,2.2C17.1,3.8,15.6,2.9,14,3.1z"/>
						<path id="Trazado_682" class="st3" d="M15.2,2.2c0,0,3.9-1,3.5,2.6C18.3,3.2,16.8,2.1,15.2,2.2z"/>
						<path id="Trazado_683" class="st3" d="M11.4,0.3c0,0,2.2,0.1,2.3,1.3C13.7,1.7,14-0.9,11.4,0.3z"/>
						<path id="Trazado_684" class="st6" d="M12.7,2c0,0,0.3-1.6-2.5-0.6C10.2,1.4,12,1.1,12.7,2z"/>
						<path id="Trazado_685" class="st10" d="M11,2.1l-0.5-0.4c0,0,0.2-0.5,1.5,0c0.7,0.3,1.4,0.4,2.1,0.2l-2.3,1.6L11,2.1z"/>
						<path id="Trazado_686" class="st9" d="M9.8,2.3l0.7-0.6c0.2-0.2,0.5-0.2,0.7,0.1c0,0.1,0.1,0.1,0.1,0.2l0.4,1.5
							C11.3,2.9,10.6,2.5,9.8,2.3z"/>
						<path id="Trazado_687" class="st9" d="M18.1,10.9c0,0,0.2,1.4-1.7,1.4c0,0,0.9-0.4,0.7-0.8s-0.7-0.3-0.7-0.3s1-0.1,1,0.1
							c0,0.2,0.1,0.3,0,0.5L18.1,10.9z"/>
					</g>
					<path id="Trazado_688" class="st3" d="M21.1,14.3c0,0,2.9-0.4,3.2-2.4c0.8-0.3,1.5-0.7,2.1-1.2c0.9-0.9-1.6,4.8-1.6,4.8
						s-0.6-1-3.2,0.1L21.1,14.3z"/>
				</g>
				<path id="Trazado_753" class="st11" d="M38.8,58.2c0,0,9.7,11.4,20.6,4.8c0,0-4.5,5.9-9.7,4.8s-10.5-6.2-11.4-8.9L38.8,58.2z"/>
				<path id="Trazado_755" class="st12" d="M35.4,57.5c0,0,1.8-1.4,2.7-0.8c0.7,0.5,1.3,1,1.7,1.7l-1.2,1.1
					C37.3,59.4,36.1,58.6,35.4,57.5z"/>
				<path id="Trazado_756" class="st11" d="M34.5,54.7c0.1,1.3,0.8,2.5,2,3.1c0,0,1.5,0.8,0.7,1s-2.1-0.8-2.7-2.4
					S34.5,54.7,34.5,54.7z"/>
				<g id="Grupo_849" transform="translate(36.831)">
					<path id="Trazado_758" class="st4" d="M1.4,16.7l8.3,2.9l0,0c2.7-3.4,5.6-6.6,8.6-9.6l3.6-0.6l1.4-1.6l1,0c0,0,0.6-0.5,0.5-0.9
						c-0.4-1.3-1.3-0.8-1.7-1.5c-0.6-1.3-1.4-2.8-1.6-3.3c-0.4-0.9-0.4-2.2-1.7-2.1c-7.5,0.9-4.4,5.9-6.2,7.6
						c-4.9,3-9.4,6.5-13.6,10.5C0.5,17.6,1,17.2,1.4,16.7z"/>
					<path id="Trazado_759" class="st4" d="M29.6,65.4h-8.1L19.5,68c0,0,0.1,1.6,1.5,1.9c0.6,0.1,0.9-0.3,1.1-0.7
						c0.3,1.8,2.3,4.1,2.9,4.8l-2.5,3.5c1.1,1.4,2.7,2.4,4.5,2.8l2.2-5.7C30.7,71.1,29.6,65.4,29.6,65.4z"/>
				</g>
				<g id="Grupo_861" transform="translate(3.769 11.868)">
					<path id="Trazado_742" class="st13" d="M60.1,68.3c-1.8-0.4-3.4-1.4-4.5-2.8l-3.8,5.4L48.3,56c-1-4.2-5.6-7.5-10-9.8
						c-9.9,2.9-9.6-6.1-9.4-7.8c-1.9-11.6,6.6-21.4,14-30.7l-8.3-2.9C2.9,33.7,0,81.6,0,81.6l38.3,5.7c-6-7.1,0.8-11-2.6-11.4
						c-0.7-0.1,1-1.5,1.2-2.1c0.1-0.6-0.6-1.1-0.4-1.7c0.8-2.6,2.3-4.8,4.2-6.6c0.2,18.5,11.9,22.7,11.9,22.7L60.1,68.3z"/>
					<path id="Trazado_743" class="st13" d="M31.4,51.2c-0.3-0.2-0.8,0-0.9,0.3c-0.1,0.3,0.2,0.7,0.6,0.8c0.3,0.2,0.8,0,0.9-0.3
						C32,51.7,31.8,51.3,31.4,51.2z M29.6,56.1c0.1-0.3-0.2-0.7-0.6-0.8c-0.3-0.2-0.8,0-0.9,0.3c-0.1,0.3,0.2,0.7,0.6,0.8
						C29,56.6,29.4,56.4,29.6,56.1z M29.2,61.2c-0.4,0-0.8,0.3-0.8,0.6s0.4,0.6,0.8,0.6s0.8-0.3,0.8-0.6S29.6,61.2,29.2,61.2z
						 M28.6,65.9c-0.4,0-0.8,0.4-0.7,0.9s0.4,0.8,0.9,0.7s0.8-0.4,0.7-0.9c0-0.1,0-0.2-0.1-0.2C29.3,66.1,29,65.9,28.6,65.9
						L28.6,65.9z M25,69.8c-0.3-0.1-0.7,0.1-0.7,0.4c-0.1,0.3,0.1,0.7,0.4,0.7c0.3,0.1,0.5-0.1,0.7-0.3C25.5,70.4,25.4,70,25,69.8
						L25,69.8z"/>
					<g id="Grupo_847" transform="translate(24.433 47.395)">
						<path id="Trazado_744" class="st13" d="M0.1,28.1L0,27.5c1.2-0.3,1.3-3,1.2-3.9l0-0.1l1.6-2.1l0.1,0c0,0,3.5-1.6,4.4-2.2
							c0.2-0.2-0.3-1.7-0.7-2.8c-0.8-2-1.3-4-1.4-6.2c0.1-2.2,1.2-4.1,3-5.4l-0.9-2l0.3-0.1C8.2,2.5,9,2.1,9.7,1.6
							c0.1,0,0.1-0.1,0.1-0.2c0-0.3-0.5-0.8-0.7-0.9L9.5,0c0.1,0.1,0.9,0.7,0.9,1.4c0,0.3-0.1,0.5-0.3,0.7C9.4,2.5,8.7,2.9,7.9,3.2
							L8.8,5L8.6,5.2c-1.7,1.1-2.8,3-2.9,5c0.1,2,0.6,4.1,1.4,5.9c0.7,1.9,1.1,3.1,0.5,3.5c-0.8,0.6-3.9,2-4.4,2.2l-1.4,1.8
							C1.9,24.3,2,27.6,0.1,28.1z"/>
					</g>
					<g id="Grupo_848" transform="translate(2.96 10.359)">
						<path id="Trazado_745" class="st13" d="M53.4,57.8l-7.6,14.4c-7.9-10.7-7.5-20.8-7.5-20.8c-3.5,17.1,11,25.6,11,25.6l6.3-17.3
							L53.4,57.8z"/>
						<path id="Trazado_746" class="st13" d="M0,69.9c0.2,2.3,2.5-1,2.5-1s0.4-9.6,0.2-10.7S0,69.9,0,69.9z"/>
						<path id="Trazado_747" class="st13" d="M32.2,65.2C32,63.1-7.8,44,33.1,5.7c0,0-9.4,3-9.3,0.8C24,4.2,24.8,1.9,26,0
							C19.4,7.3,6.6,28.2,10.2,45.6C14.3,65,26.1,65.3,26.1,65.3c-5.8-2.3-9.8-7.6-10.5-13.8C15.6,51.5,19.5,60.9,32.2,65.2z"/>
						<path id="Trazado_748" class="st13" d="M28.6,38.6c0.6,0.2-1.9-2-2.3-3.1c-0.2-0.8-0.2-1.6,0.2-2.4c-0.5-1.3-0.7-2.8-0.6-4.2
							c-1.4,1.5-5.8,6.7-5.8,11.1c0,0,2.6-7.3,5.2-7.8C25.2,32.1,24.1,37.1,28.6,38.6z"/>
						<path id="Trazado_749" class="st13" d="M36.6,51.3c-4.4,6.2-11,1.8-11,1.8l7.2,8.5c0,0,1.9-5.7,4.8-8.4l2.2-5.9
							C39.8,47.4,37.5,50,36.6,51.3z"/>
						<path id="Trazado_750" class="st13" d="M44.3,61.2l4.1-1.9l-5.6,1.3L44,66L44.3,61.2z"/>
					</g>
					<path id="Trazado_751" class="st13" d="M33.9,45.9l0.4-0.7l2-0.9l2.5,0.9l1.6,2.3c0,0-4.4,0.1-5.6-0.5S33.9,45.9,33.9,45.9z"/>
					<path id="Trazado_752" class="st13" d="M32.7,46.4l3.3-1.8l1.2,4.6l4.3-1.3l-0.2-3.4l-5.2-0.6L32.7,46.4z"/>
					<path id="Trazado_757" class="st13" d="M31.5,46l1.8-3.3L29.4,38l-0.6,0.3C28.8,38.3,28.3,44.5,31.5,46z"/>
					<path id="Trazado_761" class="st13" d="M36.4,1.5c0,0,4.5-5.5,8.8,4.3l-3.7,5.5c0,0-4.1-6.8-10.2-4.9L36.4,1.5z"/>
					<path id="Trazado_762" class="st13" d="M54.7,64.7c0,0,3.2,3.6,6.7,3.2l-3,8.2c0,0-5.1,0.1-7.2-7.3L54.7,64.7z"/>
				</g>
				<path id="Trazado_760" class="st3" d="M3.6,90.9c0,0,11.1-10.9,38.1-1.1l-1.1,3c0,0,25.6,11.7,32.1,31.8l-36.2,14.7l3.4,10.5
					c0,0-1.4,2.1-4.3-1s-7.8-14.4-7.8-14.4l27.6-15.9c0,0-14.6-13.1-30.6-9.6c0,0-17.2,26-10.3,60.2c0,0,0.7,16.7-4.1,15.9
					s-2-15.8-2-15.8S-6.7,136.3,3.6,90.9z"/>
			</g>
			<path id="Trazado_763" class="st14" d="M25.6,199c-2-5-3.6-10.1-5-15.3c-1.4-5.2-2.5-10.5-3.5-15.8l-0.6-4l-0.5-4
				c-0.2-1.3-0.3-2.7-0.4-4s-0.2-2.7-0.3-4c-0.2-5.4,0-10.8,0.6-16.1l-0.2,4c0,0.7-0.1,1.3-0.1,2l0,2l0,2c0,0.7,0,1.3,0,2l0.2,4
				c0.3,5.4,0.9,10.7,1.8,16c0.9,5.3,2,10.5,3.3,15.7c0.7,2.6,1.4,5.2,2.1,7.8C23.9,193.9,24.7,196.4,25.6,199z"/>
			<path id="Trazado_764" class="st14" d="M27.3,188.5c-0.9-2-1.7-4.1-2.5-6.3s-1.4-4.3-2-6.5c-0.6-2.2-1.1-4.4-1.4-6.6
				c-0.4-2.2-0.7-4.4-0.8-6.7c0.2,1.1,0.4,2.2,0.6,3.3l0.3,1.7l0.4,1.6c0.5,2.2,1,4.4,1.6,6.5c0.5,2.2,1.2,4.3,1.8,6.5
				c0.3,1.1,0.7,2.1,1,3.2C26.5,186.4,26.9,187.5,27.3,188.5z"/>
			<g id="Grupo_851" transform="translate(61.524 116.209)" class="st15">
				<path id="Trazado_765" class="st3" d="M12.5,0c1.2,1.9,2.4,3.9,3.5,5.9s2.2,4,3.3,6l0.3,0.5L19,12.7c-1.6,0.7-3.1,1.4-4.7,2.1
					c-1.6,0.7-3.1,1.4-4.7,2c-3.2,1.3-6.3,2.6-9.6,3.7c3-1.7,6.1-3.2,9.2-4.6c1.5-0.7,3.1-1.5,4.7-2.1c1.6-0.7,3.1-1.4,4.7-2.1
					l-0.3,0.8c-1-2-2-4.1-3-6.1C14.3,4.2,13.4,2.1,12.5,0z"/>
			</g>
		</g>
		<g id="Grupo_853" transform="translate(-33.205 52.932)">
			<path id="Trazado_766" class="st16" d="M56.5,11.5C55.1,10.2,54,9,53.9,6.9c-0.1-1.8,0.4-3.5,0.4-5.3c0-0.5-0.4-0.9-0.9-0.8
				c-0.5,0-0.8,0.4-0.8,0.8c0,2.3-0.8,4.7-0.2,7c0.5,1.6,1.5,3.1,2.8,4.2c0.3,0.3,0.9,0.3,1.2,0C56.8,12.4,56.8,11.9,56.5,11.5
				L56.5,11.5z"/>
			<path id="Trazado_767" class="st16" d="M60.6,38.6c-0.2,0.6-1.1,1.1-1.6,1.4c-0.6,0.4-1.3,0.8-1.9,1.2c-0.4,0.3-0.5,0.8-0.3,1.2
				c0.2,0.4,0.7,0.5,1.1,0.3c1.5-0.9,3.6-1.9,4.3-3.7C62.7,38,61,37.6,60.6,38.6z"/>
			<path id="Trazado_768" class="st16" d="M38.7,31.7c-0.8,0.8-1,1.9-0.6,2.9c0.6,1.1,1.5,1,2.5,1c-0.1,0.9-0.8,1.9-0.9,2.7
				c-0.1,0.8,0.2,1.6,0.7,2.1c0.8,0.8,2-0.4,1.2-1.2c-0.7-0.7,0.2-2.1,0.5-2.8c0.2-0.6,0.2-1.2,0.1-1.9c-0.1-0.3-0.3-0.5-0.6-0.6
				c-0.8-0.2-2.3,0.2-1.7-1.1c0.3-0.7,2-2.1,2.8-1.4c0.8,0.8,2.1-0.5,1.2-1.2C42.2,28.7,39.9,30.1,38.7,31.7z"/>
			<path id="Trazado_769" class="st16" d="M148.2,13.3l0.4,0.1c0.2,0.1,0.4,0,0.5,0c0,0,0.1,0,0.1,0c0.1,0.1,0.1,0.1,0,0
				c0,0,0.1,0.1,0.1,0.1c0.3,0.3,0.9,0.3,1.2,0c0.3-0.3,0.3-0.9,0-1.2l0,0c-0.6-0.7-1.5-1-2.4-0.7c-0.5,0.1-0.7,0.6-0.6,1.1
				C147.7,13,147.9,13.2,148.2,13.3z"/>
			<path id="Trazado_770" class="st16" d="M150.9,33.2c-1.3,0.6-2.7,1.1-4.1,1.5c1.1-1.1,2.4-2,3.9-2.5c0.5-0.1,0.7-0.6,0.6-1.1
				c-0.1-0.5-0.6-0.7-1.1-0.6c-1.3,0.5-2.5,1.2-3.5,2.2c-1,0.6-1.8,1.5-2.4,2.5c-0.2,0.4-0.1,1,0.3,1.2c0.1,0,0.1,0.1,0.2,0.1
				c1.5,0.2,3.1,0,4.4-0.6c-0.5,0.5-0.9,1-1.3,1.5c-0.7,1-1.1,2.2-1.1,3.4c0,1.1,1.8,1.1,1.8,0c-0.1-2.8,3.5-4,3.5-6.6
				c0-0.5-0.4-0.9-0.9-0.9C151,33.2,151,33.2,150.9,33.2z"/>
			<path id="Trazado_771" class="st16" d="M161.9,63.4v-4.3c0-0.5-0.4-0.9-0.9-0.8c-0.5,0-0.8,0.4-0.8,0.8v4.3
				c0,0.5,0.4,0.9,0.9,0.8C161.5,64.2,161.9,63.8,161.9,63.4z"/>
			<path id="Trazado_772" class="st16" d="M159.5,76.1c-0.5,0-1.1,0.2-1.4,0.6c-0.3,0.3-0.3,0.9,0,1.2c0.3,0.3,0.9,0.3,1.2,0
				c0,0,0.1-0.1,0.1-0.1l0,0h0h0c0.5,0,0.9-0.4,0.9-0.9C160.4,76.5,160,76.1,159.5,76.1L159.5,76.1z"/>
			<path id="Trazado_773" class="st16" d="M35.8,88c-0.2-0.4-0.5-0.8-1-1c-0.5-0.2-1-0.3-1.5-0.3c-0.7-0.2-1.4-0.3-2-0.3
				c-0.5,0-0.9,0.4-0.8,0.9c0,0.5,0.4,0.8,0.8,0.8c0.7,0.1,1.4,0.2,2.1,0.4c0.5,0.1,1.1,0,1,0.7c-0.1,0.8,0.8,1.6,1.5,0.9
				c0.2-0.2,0.4-0.5,0.5-0.8c0.2-0.4,0.1-0.9-0.2-1.1C36,88.1,35.9,88,35.8,88z"/>
			<path id="Trazado_774" class="st16" d="M55.6,69.2L54.8,70c-0.3,0.4-0.3,0.9,0.1,1.2c0.3,0.3,0.8,0.3,1.2,0l0.8-0.8
				c0.3-0.3,0.3-0.9,0-1.2C56.5,68.9,55.9,68.9,55.6,69.2L55.6,69.2z"/>
			<path id="Trazado_775" class="st16" d="M182.7,9.8c-1.9,0.7-4.1,1.9-4.8,4c-0.6,2.1,1.5,3.1,3.2,3.5c1.1,0.2,1.6-1.4,0.5-1.7
				c-0.5-0.1-1.1-0.3-1.5-0.5c-0.7-0.5-0.5-0.9-0.1-1.5c0.8-1,1.9-1.8,3.1-2.1C184.2,11.1,183.8,9.4,182.7,9.8z"/>
			<path id="Trazado_776" class="st16" d="M187.3,30.9c-0.4-0.2-1-0.1-1.2,0.3l-0.4,0.8c-0.2,0.4-0.1,0.9,0.3,1.2
				c0.4,0.2,1,0.1,1.2-0.3c0.1-0.3,0.3-0.5,0.4-0.8C187.8,31.7,187.7,31.2,187.3,30.9z"/>
			<path id="Trazado_777" class="st16" d="M179.8,76.1c-0.5,0-0.9,0.4-0.8,0.9c0,0.5,0.4,0.8,0.8,0.8c0.5,0,0.9-0.4,0.8-0.9
				C180.6,76.5,180.3,76.2,179.8,76.1z"/>
			<path id="Trazado_778" class="st16" d="M171.2,109.3c-0.1,0.7-0.2,1.5-0.3,2.2c0,0.7-0.2,1.5-0.7,2.1c-0.8,0.8,0.4,2,1.2,1.2
				c1.3-1.2,1.1-3.5,1.4-5.1C173.1,108.6,171.4,108.2,171.2,109.3z"/>
			<path id="Trazado_779" class="st16" d="M148,101.4C148,101.4,148,101.4,148,101.4C148,101.4,148,101.4,148,101.4L148,101.4
				L148,101.4z"/>
			<path id="Trazado_780" class="st16" d="M148.6,101.7c-0.3-0.1-0.5-0.2-0.8-0.2c0,0-0.1,0-0.1-0.1c0.1,0.1-0.4,0.1,0,0
				c0,0-0.1-0.1-0.2-0.1c0.1,0,0.1,0.1,0.2,0.1c0.3-0.2,0.5-0.4,0.8-0.6c0.3-0.2,0.6-0.3,0.9-0.4c1-0.4,0.1-2-0.9-1.5
				c-1.2,0.5-3.4,1.8-2.4,3.4c0.5,0.6,1.1,1,1.9,1.1c0.6,0.2,1.4,0.2,1.3,1c-0.1,1.1,1.6,1.1,1.8,0
				C151.2,102.7,149.9,102,148.6,101.7z"/>
			<path id="Trazado_781" class="st16" d="M46.1,127.6c-0.5,0.4-1.5,0.1-2.1,0.1c-0.5,0-0.9,0.4-0.8,0.9c0,0.5,0.4,0.8,0.8,0.8
				c1.2,0,2.4,0.2,3.4-0.6C48.2,128.1,46.9,126.9,46.1,127.6z"/>
			<path id="Trazado_782" class="st16" d="M80.2,58.3c-0.5,0.1-0.8,0.6-0.7,1s0.6,0.8,1,0.7l0,0l0,0l0,0l0.1,0
				c0.1,0.1,0.3,0.2,0.4,0.2c0.3,0.2,0.5,0.5,0.7,0.7c0.3,0.3,0.9,0.3,1.2,0c0.3-0.3,0.3-0.9,0-1.2C82.2,59.1,81.4,58.1,80.2,58.3z"
				/>
			<path id="Trazado_783" class="st16" d="M89.4,0.6C89.2,0.3,88.9,0,88.5,0c-0.9,0-1.7,0.3-2.3,0.9c-0.4,0.3-0.5,0.8-0.3,1.2
				c0.2,0.4,0.8,0.6,1.2,0.3c0.2-0.2,0.5-0.3,0.8-0.5c0,0,0.1,0,0.1,0c0.2,0.2,0.5,0.3,0.8,0.2c0.5-0.1,0.7-0.6,0.6-1.1L89.4,0.6z"
				/>
			<path id="Trazado_784" class="st16" d="M8.2,10.1c-1.1,0-2.1,0.4-3.2,0.4c-1.2,0.1-2.5-0.1-3.6-0.5c-0.9-0.5-1.8,0.7-1.1,1.4
				l0.3,0.2c0.2,0.2,0.4,0.3,0.7,0.2c0.9,0.3,1.8,0.4,2.8,0.4c0.7,0,1.5,0,2.2,0c0.7-0.2,1.3-0.3,2-0.4C9.3,11.9,9.3,10.2,8.2,10.1z
				"/>
			<path id="Trazado_785" class="st16" d="M4.6,61.9c-1.4,0.9-3.2,1.6-3.9,3.3c-0.1,0.5,0.1,0.9,0.6,1.1c0.5,0.1,0.9-0.2,1.1-0.6
				c0.2-0.5,1-0.9,1.4-1.2c0.6-0.4,1.2-0.7,1.7-1C6.4,62.8,5.6,61.3,4.6,61.9z"/>
			<path id="Trazado_786" class="st16" d="M15.1,119.6c-1.2-0.2-2.2-1-3.4-0.8c-0.5,0-0.9,0.4-0.9,0.9c0,0.5,0.4,0.9,0.9,0.9
				c1-0.1,1.9,0.6,2.9,0.8c0.5,0.1,0.9-0.2,1.1-0.6C15.8,120.2,15.5,119.8,15.1,119.6z"/>
			<path id="Trazado_787" class="st16" d="M163.1,141.3c-1.3,0.2-2,1.2-2.8,2c-0.8,0.8-1.4,1.7-1.9,2.7c-0.9,0.3-0.5,1.9,0.6,1.7
				l0.3-0.1c0.3-0.1,0.5-0.3,0.6-0.6c0.3-0.9,0.7-1.7,1.4-2.3c0.4-0.4,1.1-1.6,1.7-1.7C164.2,142.9,164.2,141.2,163.1,141.3z"/>
			<path id="Trazado_788" class="st16" d="M159.6,166l-1.6-0.8c-0.4-0.2-0.9-0.1-1.2,0.3c-0.2,0.4-0.1,1,0.3,1.2l1.6,0.8
				c0.4,0.2,0.9,0.1,1.2-0.3C160.1,166.8,160,166.3,159.6,166z"/>
			<path id="Trazado_789" class="st16" d="M181.4,136.9c-0.8,1.2-1.6,2.3-2.6,3.3c-0.7,0.9,0.5,2.1,1.2,1.2c1.1-1.2,2-2.4,2.9-3.7
				c0.2-0.4,0-1-0.4-1.2C182.1,136.4,181.7,136.5,181.4,136.9z"/>
			<path id="Trazado_790" class="st16" d="M201.1,67.8c-0.9,0.9-0.7,2.2-0.6,3.4c0,0.5,0.4,0.9,0.9,0.8c0.5,0,0.8-0.4,0.8-0.8
				c0-0.6-0.3-1.7,0.1-2.1c0.3-0.4,0.3-0.9,0-1.2C201.9,67.5,201.4,67.5,201.1,67.8z"/>
			<path id="Trazado_791" class="st16" d="M13.7,162.4h-3.5c-0.5,0-0.9,0.4-0.8,0.9c0,0.5,0.4,0.8,0.8,0.8h3.5
				c0.5,0,0.9-0.4,0.8-0.9C14.5,162.8,14.1,162.4,13.7,162.4z"/>
			<path id="Trazado_792" class="st16" d="M39.7,159.7c0,3,0.6,6.2-1.1,8.9c-0.2,0.4-0.1,1,0.4,1.2c0.4,0.2,0.9,0.1,1.1-0.3
				c1.8-3,1.3-6.4,1.3-9.8c0-0.5-0.4-0.9-0.9-0.8C40.1,158.9,39.8,159.3,39.7,159.7z"/>
			<path id="Trazado_793" class="st16" d="M37.1,189.3c-0.5,0-0.9,0.4-0.8,0.9c0,0.5,0.4,0.8,0.8,0.8c0.5,0,0.9-0.4,0.8-0.9
				C37.9,189.7,37.5,189.4,37.1,189.3z"/>
		</g>
	</g>
	<g id="Grupo_872" transform="translate(-2157.747 119.573)">
		<g id="Componente_9_1" transform="translate(2248 102)">
			<path id="Trazado_848" class="st17" d="M34.9,39.4c16.9,0,30.5,13.7,30.5,30.5s-13.7,30.5-30.5,30.5S4.4,86.8,4.4,69.9
				C4.4,53.1,18.1,39.4,34.9,39.4 M34.9,35C15.6,35,0,50.6,0,69.9c0,19.3,15.6,34.9,34.9,34.9s34.9-15.6,34.9-34.9l0,0
				C69.8,50.6,54.2,35,34.9,35z"/>
			<path id="Trazado_850" class="st17" d="M139.7,39.4c16.9,0,30.5,13.7,30.5,30.5s-13.7,30.5-30.5,30.5s-30.5-13.7-30.5-30.5l0,0
				C109.2,53.1,122.9,39.4,139.7,39.4 M139.7,35c-19.3,0-34.9,15.6-34.9,34.9c0,19.3,15.6,34.9,34.9,34.9
				c19.3,0,34.9-15.6,34.9-34.9l0,0C174.6,50.6,159,35,139.7,35z"/>
			<path id="Trazado_852" class="st17" d="M81.6,76.6c3,0,5.4,2.4,5.4,5.4s-2.4,5.4-5.4,5.4c-3,0-5.4-2.4-5.4-5.4
				C76.2,79,78.6,76.6,81.6,76.6 M81.6,73.9c-4.5,0-8.1,3.6-8.1,8.1c0,4.5,3.6,8.1,8.1,8.1s8.1-3.6,8.1-8.1S86.1,73.9,81.6,73.9
				L81.6,73.9z"/>
			<circle id="Elipse_47" class="st17" cx="34.9" cy="69.9" r="5.4"/>
			<circle id="Elipse_48" class="st17" cx="139.7" cy="69.9" r="5.4"/>
			<path id="Trazado_853" class="st17" d="M34.9,66.2L34.9,66.2c0.3,0,0.7,0,1,0.1l0.1,0l0.1,0l47.2,9.4c3.5,0.9,5.6,4.4,4.7,7.9
				c-0.9,3.5-4.4,5.6-7.9,4.7L34,73.5l0,0l0,0c-2-0.6-3.2-2.6-2.6-4.6C31.7,67.3,33.2,66.2,34.9,66.2 M34.9,64.5
				c-3,0-5.4,2.4-5.4,5.4c0,2.4,1.6,4.5,3.9,5.2l46.1,14.8c4.3,1.1,8.8-1.5,9.9-5.9s-1.5-8.8-5.9-9.9l-47.2-9.4
				C35.9,64.6,35.4,64.5,34.9,64.5L34.9,64.5z"/>
			<path id="Trazado_854" class="st17" d="M81.6,83.7c-0.1,0-0.2,0-0.2,0c-0.6-0.1-1.1-0.5-1.3-1L50.8,13.4
				c-0.3-0.8,0.1-1.8,0.9-2.1c0.8-0.3,1.8,0,2.1,0.9L82,78.9l44.9-55c0.6-0.7,1.6-0.8,2.3-0.3c0.7,0.6,0.8,1.6,0.3,2.3c0,0,0,0,0,0
				L82.8,83.1C82.5,83.4,82.1,83.7,81.6,83.7z"/>
			<path id="Trazado_855" class="st17" d="M34.9,71c-0.6,0-1.1-0.5-1.1-1.1c0-0.2,0-0.3,0.1-0.5l22-46.4c0.2-0.6,0.8-0.9,1.4-0.7
				s0.9,0.8,0.7,1.4c0,0.1-0.1,0.1-0.1,0.2l-22,46.4C35.7,70.8,35.3,71,34.9,71z"/>
			<path id="Trazado_856" class="st17" d="M139.7,71.6c-0.7,0-1.4-0.5-1.6-1.2L125,19L57,25.1c-0.9,0.1-1.7-0.6-1.8-1.5
				c-0.1-0.9,0.6-1.7,1.5-1.8l69.3-6.3c0.8-0.1,1.5,0.4,1.7,1.2l13.5,52.7c0.2,0.9-0.3,1.8-1.2,2C140,71.5,139.9,71.6,139.7,71.6z"
				/>
			<path id="Trazado_857" class="st17" d="M126.2,18.9c-0.8,0-1.5-0.6-1.6-1.4l-2-13.6C122.5,3,123.1,2.1,124,2
				c0.9-0.2,1.7,0.5,1.9,1.3c0,0,0,0.1,0,0.1l2,13.6c0.1,0.9-0.5,1.7-1.4,1.9c0,0,0,0,0,0C126.4,18.9,126.3,18.9,126.2,18.9z"/>
			<g id="Grupo_873" transform="translate(0 0)">
				<path id="Trazado_849" class="st18" d="M34.9,40.7c16.1,0,29.2,13.1,29.2,29.2C64.1,86,51,99.1,34.9,99.1S5.7,86,5.7,69.9l0,0
					C5.7,53.8,18.8,40.7,34.9,40.7 M34.9,36.5c-18.5,0-33.4,15-33.4,33.4c0,18.5,15,33.4,33.4,33.4s33.4-15,33.4-33.4
					S53.4,36.5,34.9,36.5L34.9,36.5z"/>
				<path id="Trazado_851" class="st18" d="M139.7,40.7c16.1,0,29.2,13.1,29.2,29.2s-13.1,29.2-29.2,29.2
					c-16.1,0-29.2-13.1-29.2-29.2c0,0,0,0,0,0C110.6,53.8,123.6,40.7,139.7,40.7 M139.7,36.5c-18.5,0-33.4,15-33.4,33.4
					s15,33.4,33.4,33.4c18.5,0,33.4-15,33.4-33.4S158.2,36.5,139.7,36.5L139.7,36.5z"/>
				<path id="Trazado_858" class="st18" d="M118.6,9.2c-0.9,0-1.6-0.7-1.6-1.6c0-0.6,0.3-1.1,0.8-1.4l10.3-6
					c0.8-0.4,1.7-0.2,2.2,0.6c0.4,0.8,0.2,1.7-0.6,2.2l0,0l-10.3,6C119.1,9.1,118.9,9.2,118.6,9.2z"/>
				<path id="Trazado_859" class="st18" d="M41,12.5c2.9,3.7,15-0.4,18.7-1.6s12.1,1.2,10.8-1.6S50.8,7.5,48.2,6.5
					C42.8,4.3,36,6.2,41,12.5z"/>
			</g>
			<g id="Grupo_867" transform="translate(72.923 63.465)">
				<path id="Trazado_860" class="st17" d="M3.8,37.1c-0.6,0-1.1-0.5-1.1-1.1c0-0.1,0-0.2,0-0.3l9.7-34.9c0.2-0.6,0.9-0.9,1.4-0.6
					c0.5,0.2,0.8,0.7,0.7,1.2L4.9,36.3C4.7,36.8,4.3,37.1,3.8,37.1z"/>
				<path id="Trazado_861" class="st17" d="M16.2,2.2H6.5c-0.6,0.1-1.1-0.4-1.2-1C5.3,0.6,5.7,0.1,6.3,0c0.1,0,0.1,0,0.2,0h9.7
					c0.6-0.1,1.1,0.4,1.2,1c0.1,0.6-0.4,1.1-1,1.2C16.3,2.2,16.3,2.2,16.2,2.2z"/>
				<path id="Trazado_862" class="st17" d="M10.8,37.1H1.1c-0.6,0.1-1.1-0.4-1.2-1c-0.1-0.6,0.4-1.1,1-1.2c0.1,0,0.1,0,0.2,0h9.7
					c0.6-0.1,1.1,0.4,1.2,1c0.1,0.6-0.4,1.1-1,1.2C10.9,37.1,10.8,37.1,10.8,37.1L10.8,37.1z"/>
			</g>
		</g>
	</g>
</g>
</svg>
