<svg xmlns="http://www.w3.org/2000/svg" xmlns:xlink="http://www.w3.org/1999/xlink" width="227.588" height="309.801" viewBox="0 0 227.588 309.801">
  <defs>
    <style>
      .cls-1 {
        fill: url(#linear-gradient);
      }

      .cls-13, .cls-18, .cls-2 {
        fill: #333;
      }

      .cls-3 {
        fill: #eabfa5;
      }

      .cls-4 {
        fill: #d84744;
      }

      .cls-5 {
        fill: #822a2a;
      }

      .cls-6 {
        fill: #eef9f9;
      }

      .cls-7 {
        fill: #ffabab;
      }

      .cls-8 {
        fill: #d8a98f;
      }

      .cls-9 {
        fill: #f7cab2;
      }

      .cls-10 {
        fill: #db7631;
      }

      .cls-11 {
        fill: #b64e00;
      }

      .cls-12 {
        fill: #006cff;
      }

      .cls-13 {
        opacity: 0.2;
      }

      .cls-14, .cls-18 {
        opacity: 0.3;
      }

      .cls-15 {
        fill: #fae2e2;
        stroke: rgba(0,0,0,0);
        stroke-miterlimit: 10;
      }

      .cls-16 {
        fill: #263238;
      }

      .cls-17 {
        fill: #fff;
      }
    </style>
    <linearGradient id="linear-gradient" x1="0.31" y1="1.279" x2="0" y2="-0.418" gradientUnits="objectBoundingBox">
      <stop offset="0" stop-color="#dddbff" stop-opacity="0.486"/>
      <stop offset="1" stop-color="#ff8383"/>
    </linearGradient>
  </defs>
  <g id="Grupo_891" data-name="Grupo 891" transform="translate(-67.941 -24.732)">
    <g id="Grupo_859" data-name="Grupo 859" transform="translate(115.326 10.054)">
      <g id="Grupo_860" data-name="Grupo 860" transform="translate(-41.561 14.677)">
        <g id="Grupo_822" data-name="Grupo 822">
          <g id="Grupo_818" data-name="Grupo 818" transform="translate(92.008)">
            <g id="Grupo_816" data-name="Grupo 816">
              <path id="Trazado_664" data-name="Trazado 664" class="cls-1" d="M244.707,109.079h-8.579L221.325,6.262h38.186Z" transform="translate(-221.325 -6.262)"/>
            </g>
          </g>
          <g id="Grupo_821" data-name="Grupo 821" transform="translate(0 22.764)">
            <g id="Grupo_819" data-name="Grupo 819" transform="translate(0 0)">
              <path id="Trazado_668" data-name="Trazado 668" class="cls-1" d="M269.425,162.009l-5.34-5.34,80.868-99.294,23.766,23.766Z" transform="translate(-146.955 -52.202)"/>
              <path id="Trazado_827" data-name="Trazado 827" class="cls-1" d="M5.34,104.634,0,99.294l6.964-8.551L80.868,0l23.766,23.766Z" transform="matrix(0.052, -0.999, 0.999, 0.052, 0, 104.49)"/>
            </g>
          </g>
        </g>
      </g>
      <g id="Grupo_875" data-name="Grupo 875" transform="translate(34.325 76.206)">
        <g id="Grupo_850" data-name="Grupo 850">
          <g id="Grupo_825" data-name="Grupo 825" transform="translate(28.169 32)">
            <path id="Trazado_672" data-name="Trazado 672" class="cls-2" d="M264.033,152.756s2.822-5.042,6.349-2.882c5.739,3.516,3.907,11.428,3.907,11.428l-1.319-3.516s1.758,5.568-1.026,9.377l.293-3.663s-2.2,5.274-6.154,5.861-4.542.586-4.981,2.93,2.777,3.9,1.758,3.736c-3.59-.586-3.223-5.128-3.223-5.128l-.586,3.3s-4.542-8.791-4.249-12.893a15.151,15.151,0,0,1,2.2-6.886l-2.344.879S261.689,144.112,264.033,152.756Z" transform="translate(-243.765 -149.337)"/>
            <path id="Trazado_673" data-name="Trazado 673" class="cls-3" d="M259.8,168.258c1.881-3.4,4.742-7.193-1.949-10.709-1.078-.566-3.628-.128-4.639-.171-.706-.03-.788.716-1.421.812a11.852,11.852,0,0,0-7.227,4.314s4.232,6.473-8.354,14.689c-1.47.96,9.033,17.409,10.067,11.319C249.8,167.8,258.672,170.3,259.8,168.258Z" transform="translate(-236.072 -152.615)"/>
            <g id="Grupo_824" data-name="Grupo 824" transform="translate(5.363 4.373)">
              <g id="Grupo_823" data-name="Grupo 823" transform="translate(5.815 2.546)">
                <path id="Trazado_674" data-name="Trazado 674" class="cls-4" d="M256.763,161.184s2.051-.562,4.333,2.43a.526.526,0,0,1-.251.837,7.767,7.767,0,0,1-4.472.078C253.4,163.5,256.763,161.184,256.763,161.184Z" transform="translate(-255.146 -161.142)"/>
                <path id="Trazado_675" data-name="Trazado 675" class="cls-5" d="M262.532,166.439c.014,0,.021-.015.035-.02a2.513,2.513,0,0,0-1.479-.476,2.446,2.446,0,0,0-1.865.829A8.819,8.819,0,0,0,262.532,166.439Z" transform="translate(-256.833 -163.13)"/>
                <path id="Trazado_676" data-name="Trazado 676" class="cls-6" d="M261.307,164.111a8.215,8.215,0,0,0-4.152-2.149s1.954.562-.1.635c0,0-.586-.293-.293-.782a4.915,4.915,0,0,1,.588-.488.638.638,0,0,1,.454-.131A3.957,3.957,0,0,1,261.307,164.111Z" transform="translate(-255.782 -161.164)"/>
                <path id="Trazado_677" data-name="Trazado 677" class="cls-6" d="M255.583,165.809s-.01.012-.015.017a2.515,2.515,0,0,0,.979.557,5.4,5.4,0,0,0,1.15.253l.01-.021s.33-.293-.073-.659A2.206,2.206,0,0,0,255.583,165.809Z" transform="translate(-255.32 -162.996)"/>
                <path id="Trazado_678" data-name="Trazado 678" class="cls-7" d="M257.16,166.8a6.447,6.447,0,0,0,2.768.252,3.95,3.95,0,0,0-1.828-.423,4.374,4.374,0,0,0-1.053.128C257.085,166.772,257.12,166.787,257.16,166.8Z" transform="translate(-255.933 -163.414)"/>
              </g>
              <path id="Trazado_679" data-name="Trazado 679" class="cls-8" d="M248.082,172.823c.5,4.808-2.214,15.387-2.859,17.813.085.1.171.2.256.3l5.428-2.839c2.471-10.255,6.458-13.24,9.326-14.521-1.091-.5-2.211-1.029-3.328-1.579-6.74-3.321-8.55-5.79-8.55-5.79S250.053,168.819,248.082,172.823Z" transform="translate(-245.223 -160.694)"/>
              <path id="Trazado_680" data-name="Trazado 680" class="cls-3" d="M274.286,174.315s1.417.342.342,1.807-4.4,1.514-3.565-.342S274.286,174.315,274.286,174.315Z" transform="translate(-255.865 -164.035)"/>
              <path id="Trazado_681" data-name="Trazado 681" class="cls-5" d="M269.156,161.834s2.784-1.319,3.59,2.2A3.382,3.382,0,0,0,269.156,161.834Z" transform="translate(-255.13 -158.782)"/>
              <path id="Trazado_682" data-name="Trazado 682" class="cls-2" d="M271.156,160.41s3.907-1.026,3.516,2.589A3.4,3.4,0,0,0,271.156,160.41Z" transform="translate(-255.958 -158.237)"/>
              <path id="Trazado_683" data-name="Trazado 683" class="cls-2" d="M264.614,157.139s2.2.1,2.327,1.319C266.941,158.458,267.276,155.894,264.614,157.139Z" transform="translate(-253.25 -156.798)"/>
              <path id="Trazado_684" data-name="Trazado 684" class="cls-5" d="M265.056,159.611s.3-1.6-2.483-.621C262.573,158.991,264.355,158.673,265.056,159.611Z" transform="translate(-252.405 -157.574)"/>
              <path id="Trazado_685" data-name="Trazado 685" class="cls-9" d="M263.642,159.9l-.461-.428s.205-.524,1.451-.047a3.266,3.266,0,0,0,2.087.183l-2.271,1.649Z" transform="translate(-252.657 -157.803)"/>
              <path id="Trazado_686" data-name="Trazado 686" class="cls-8" d="M261.968,160.173l.711-.612a.513.513,0,0,1,.829.248l.438,1.536A3.667,3.667,0,0,0,261.968,160.173Z" transform="translate(-252.155 -157.89)"/>
              <path id="Trazado_687" data-name="Trazado 687" class="cls-8" d="M274.966,175.443s.22,1.355-1.685,1.355c0,0,.915-.4.733-.769s-.7-.33-.7-.33.952-.073,1.026.147a1.387,1.387,0,0,1,.037.513Z" transform="translate(-256.837 -164.516)"/>
            </g>
            <path id="Trazado_688" data-name="Trazado 688" class="cls-2" d="M272.031,171.1s2.93-.366,3.223-2.417a5.628,5.628,0,0,0,2.076-1.245c.908-.863-1.563,4.762-1.563,4.762s-.586-1.026-3.223.147Z" transform="translate(-250.957 -156.794)"/>
          </g>
          <path id="Trazado_753" data-name="Trazado 753" class="cls-10" d="M253.971,194.005s9.67,11.355,20.585,4.762c0,0-4.469,5.934-9.67,4.835s-10.549-6.154-11.355-8.937Z" transform="translate(-215.13 -135.827)"/>
          <path id="Trazado_755" data-name="Trazado 755" class="cls-11" d="M248.406,192.184s1.758-1.368,2.735-.782a6.289,6.289,0,0,1,1.709,1.71l-1.172,1.123A4.4,4.4,0,0,1,248.406,192.184Z" transform="translate(-213.009 -134.689)"/>
          <path id="Trazado_756" data-name="Trazado 756" class="cls-10" d="M246.586,188.089a3.787,3.787,0,0,0,1.953,3.077s1.514.83.684.976-2.149-.83-2.735-2.393S246.586,188.089,246.586,188.089Z" transform="translate(-212.117 -133.378)"/>
          <g id="Grupo_849" data-name="Grupo 849" transform="translate(36.831)">
            <path id="Trazado_758" data-name="Trazado 758" class="cls-3" d="M252.3,111.449l8.32,2.853,0,0a122.461,122.461,0,0,1,8.6-9.629l3.573-.551,1.367-1.587,1,.025s.6-.472.464-.879c-.44-1.319-1.337-.844-1.685-1.538-.65-1.3-1.366-2.756-1.612-3.346-.38-.913-.356-2.2-1.66-2.051-7.472.879-4.4,5.861-6.234,7.573A79.419,79.419,0,0,0,250.853,112.8Q251.566,112.119,252.3,111.449Z" transform="translate(-250.853 -94.734)"/>
            <path id="Trazado_759" data-name="Trazado 759" class="cls-3" d="M294.265,206.255h-8.058l-2.051,2.637s.147,1.612,1.465,1.9c.592.132.917-.268,1.1-.749.261,1.792,2.257,4.05,2.928,4.765l-2.467,3.474a7.665,7.665,0,0,0,4.481,2.815l2.166-5.7C295.291,211.955,294.265,206.255,294.265,206.255Z" transform="translate(-264.639 -140.897)"/>
          </g>
          <g id="Grupo_861" data-name="Grupo 861" transform="translate(3.769 11.868)">
            <path id="Trazado_742" data-name="Trazado 742" class="cls-12" d="M254.521,186.743a7.665,7.665,0,0,1-4.481-2.815l-3.8,5.355-3.516-14.847c-1.047-4.188-5.627-7.507-10.048-9.812-9.9,2.95-9.576-6.053-9.39-7.819-1.921-11.582,6.566-21.434,13.985-30.7l-8.32-2.853c-31.59,28.835-34.509,76.754-34.509,76.754l38.314,5.684c-5.953-7.13.786-11.037-2.624-11.434-.723-.084,1.035-1.491,1.164-2.143.122-.617-.614-1.125-.437-1.675a14.646,14.646,0,0,1,4.247-6.627c.22,18.523,11.916,22.66,11.916,22.66Z" transform="translate(-194.438 -118.408)"/>
            <path id="Trazado_743" data-name="Trazado 743" class="cls-12" d="M242.747,202.345a.705.705,0,0,0-.919.331c-.095.309.162.663.575.789a.7.7,0,0,0,.919-.331C243.417,202.826,243.159,202.472,242.747,202.345Zm-1.806,4.892c.095-.309-.162-.663-.575-.79a.705.705,0,0,0-.919.331c-.1.309.162.663.574.789A.705.705,0,0,0,240.941,207.237Zm-.381,5.118c-.431,0-.781.263-.781.586s.35.586.781.586.781-.262.781-.586S240.992,212.355,240.56,212.355Zm-.57,4.72a.814.814,0,1,0,.833.51A.7.7,0,0,0,239.991,217.075Zm-3.594,3.881a.611.611,0,1,0,.384.9A.706.706,0,0,0,236.4,220.956Z" transform="translate(-211.38 -151.128)"/>
            <g id="Grupo_847" data-name="Grupo 847" transform="translate(24.433 47.395)">
              <path id="Trazado_744" data-name="Trazado 744" class="cls-12" d="M236.271,223.915l-.142-.568c1.243-.311,1.319-2.951,1.244-3.942l-.008-.112,1.578-2.051.066-.03c.035-.016,3.505-1.608,4.356-2.175.193-.223-.348-1.732-.743-2.834a18.03,18.03,0,0,1-1.439-6.165,7.061,7.061,0,0,1,3-5.368l-.907-1.966.3-.109a10.661,10.661,0,0,0,2.261-1.126.238.238,0,0,0,.112-.2c0-.309-.469-.773-.7-.949l.36-.463c.094.073.916.732.921,1.408a.827.827,0,0,1-.332.665,9.663,9.663,0,0,1-2.13,1.1l.858,1.858-.225.135a6.62,6.62,0,0,0-2.936,5.036A17.651,17.651,0,0,0,243.172,212c.7,1.945,1.118,3.118.516,3.519-.832.554-3.867,1.959-4.37,2.19l-1.354,1.76C238,220.148,238.083,223.462,236.271,223.915Z" transform="translate(-236.129 -195.855)"/>
            </g>
            <g id="Grupo_848" data-name="Grupo 848" transform="translate(2.96 10.359)">
              <path id="Trazado_745" data-name="Trazado 745" class="cls-12" d="M279.609,226.7,271.99,241.06c-7.912-10.7-7.472-20.8-7.472-20.8-3.516,17.142,10.989,25.64,10.989,25.64l6.3-17.289Z" transform="translate(-226.18 -168.92)"/>
              <path id="Trazado_746" data-name="Trazado 746" class="cls-12" d="M199.489,243.59c.2,2.344,2.54-.977,2.54-.977s.39-9.572.2-10.744S199.489,243.59,199.489,243.59Z" transform="translate(-199.489 -173.696)"/>
              <path id="Trazado_747" data-name="Trazado 747" class="cls-12" d="M238.48,197.866c-.234-2.1-40.047-21.2.879-59.485,0,0-9.448,3.04-9.279.781a13.515,13.515,0,0,1,2.217-6.5c-6.636,7.287-19.489,28.183-15.843,45.621,4.054,19.389,15.872,19.682,15.872,19.682a16.763,16.763,0,0,1-10.451-13.772S225.783,193.568,238.48,197.866Z" transform="translate(-206.247 -132.66)"/>
              <path id="Trazado_748" data-name="Trazado 748" class="cls-12" d="M242.227,191.629c.584.2-1.942-2.014-2.271-3.15a3.476,3.476,0,0,1,.159-2.4,10.778,10.778,0,0,1-.65-4.184c-1.4,1.536-5.809,6.736-5.809,11.053,0,0,2.564-7.252,5.2-7.838C238.857,185.109,237.685,190.091,242.227,191.629Z" transform="translate(-213.632 -153.041)"/>
              <path id="Trazado_749" data-name="Trazado 749" class="cls-12" d="M254.145,217.461c-4.4,6.154-10.989,1.758-10.989,1.758l7.179,8.5s1.9-5.714,4.835-8.351l2.2-5.861S255.066,216.172,254.145,217.461Z" transform="translate(-217.565 -166.125)"/>
              <path id="Trazado_750" data-name="Trazado 750" class="cls-12" d="M274.121,235.66l4.1-1.9-5.568,1.319,1.172,5.421Z" transform="translate(-229.776 -174.508)"/>
            </g>
            <path id="Trazado_751" data-name="Trazado 751" class="cls-12" d="M252.216,192.242l.366-.733,1.978-.879,2.454.916,1.575,2.344s-4.432.11-5.641-.476S252.216,192.242,252.216,192.242Z" transform="translate(-218.316 -146.297)"/>
            <path id="Trazado_752" data-name="Trazado 752" class="cls-12" d="M250.156,192.364l3.321-1.758,1.221,4.64,4.322-1.319-.22-3.37-5.226-.635Z" transform="translate(-217.502 -146.004)"/>
            <path id="Trazado_757" data-name="Trazado 757" class="cls-12" d="M246.318,187.813l1.807-3.321-3.907-4.738-.586.293S243.095,186.251,246.318,187.813Z" transform="translate(-214.788 -141.796)"/>
            <path id="Trazado_761" data-name="Trazado 761" class="cls-12" d="M252.9,116.511s4.493-5.47,8.791,4.3l-3.711,5.47s-4.1-6.837-10.158-4.884Z" transform="translate(-216.536 -114.984)"/>
            <path id="Trazado_762" data-name="Trazado 762" class="cls-12" d="M285.359,225.422s3.183,3.614,6.72,3.223l-3.006,8.2s-5.128.1-7.249-7.326Z" transform="translate(-230.611 -160.699)"/>
          </g>
          <path id="Trazado_760" data-name="Trazado 760" class="cls-2" d="M191.611,246.255s11.135-10.94,38.055-1.059l-1.134,3.012s25.6,11.749,32.137,31.826l-36.191,14.691,3.424,10.516s-1.445,2.057-4.285-.983-7.849-14.363-7.849-14.363l27.614-15.864s-14.574-13.1-30.615-9.593c0,0-17.192,25.952-10.276,60.181,0,0,.679,16.7-4.085,15.869s-1.957-15.753-1.957-15.753S181.278,291.651,191.611,246.255Z" transform="translate(-188.007 -155.306)"/>
        </g>
        <path id="Trazado_763" data-name="Trazado 763" class="cls-13" d="M224.383,389.614a145.445,145.445,0,0,1-5.029-15.312c-1.414-5.188-2.545-10.453-3.471-15.751l-.615-3.989-.478-4.007c-.178-1.334-.275-2.676-.373-4.018s-.24-2.68-.253-4.027a99.026,99.026,0,0,1,.625-16.1l-.243,4.02c-.032.67-.108,1.337-.1,2.008l-.006,2.013-.018,2.011c-.006.67-.022,1.34.021,2.01l.175,4.017a147.264,147.264,0,0,0,1.846,15.966c.876,5.289,2.01,10.534,3.328,15.734.663,2.6,1.369,5.188,2.141,7.757C222.671,384.525,223.5,387.076,224.383,389.614Z" transform="translate(-198.795 -190.635)"/>
        <path id="Trazado_764" data-name="Trazado 764" class="cls-13" d="M229.775,398.044c-.946-2.04-1.747-4.144-2.486-6.268s-1.367-4.286-1.963-6.455c-.557-2.18-1.061-4.376-1.448-6.592a61.865,61.865,0,0,1-.825-6.693c.223,1.1.359,2.216.6,3.312l.31,1.651.354,1.643c.476,2.188.973,4.371,1.571,6.53.547,2.171,1.176,4.321,1.824,6.466q.483,1.61,1.006,3.209C229.054,395.917,229.416,396.978,229.775,398.044Z" transform="translate(-202.514 -209.521)"/>
        <g id="Grupo_851" data-name="Grupo 851" class="cls-14" transform="translate(61.524 116.209)">
          <path id="Trazado_765" data-name="Trazado 765" class="cls-2" d="M305.484,293.024c1.217,1.935,2.354,3.911,3.481,5.892s2.2,3.989,3.269,6l.278.526-.551.248c-1.559.7-3.111,1.418-4.682,2.093-1.563.692-3.138,1.358-4.715,2.019-3.161,1.3-6.335,2.583-9.578,3.7,3.005-1.657,6.08-3.155,9.168-4.628,1.547-.728,3.1-1.45,4.658-2.147,1.554-.713,3.126-1.385,4.691-2.072l-.273.773q-1.525-3.057-2.979-6.149C307.3,297.214,306.35,295.139,305.484,293.024Z" transform="translate(-292.987 -293.024)"/>
        </g>
      </g>
      <g id="Grupo_853" data-name="Grupo 853" transform="translate(-33.205 52.932)">
        <path id="Trazado_766" data-name="Trazado 766" class="cls-15" d="M157.033,38.994c-1.387-1.382-2.457-2.57-2.515-4.622-.05-1.775.4-3.53.428-5.3a.88.88,0,0,0-1.758,0c-.042,2.294-.788,4.68-.244,6.959a9.075,9.075,0,0,0,2.846,4.211A.88.88,0,0,0,157.033,38.994Z" transform="translate(-100.581 -27.449)"/>
        <path id="Trazado_767" data-name="Trazado 767" class="cls-15" d="M166.117,98.85c-.232.6-1.077,1.08-1.581,1.418-.625.419-1.279.792-1.922,1.182a.88.88,0,0,0,.887,1.518c1.526-.926,3.626-1.881,4.311-3.651C168.221,98.262,166.522,97.8,166.117,98.85Z" transform="translate(-105.481 -60.216)"/>
        <path id="Trazado_768" data-name="Trazado 768" class="cls-15" d="M111.068,84.773a2.66,2.66,0,0,0-.595,2.931c.592,1.108,1.477.968,2.458,1.038-.1.91-.765,1.87-.861,2.749a2.47,2.47,0,0,0,.726,2.143c.779.824,2.021-.421,1.243-1.243-.659-.7.25-2.073.458-2.782a3.667,3.667,0,0,0,.118-1.869.859.859,0,0,0-.614-.614c-.8-.17-2.255.193-1.673-1.1.336-.747,2.013-2.135,2.812-1.38.822.777,2.068-.464,1.243-1.244C114.6,81.72,112.348,83.149,111.068,84.773Z" transform="translate(-72.415 -53.024)"/>
        <path id="Trazado_769" data-name="Trazado 769" class="cls-15" d="M348.853,48.319l.375.116a.809.809,0,0,0,.537-.028c.041.021.079.04.09.047q.13.089.033.024a1.611,1.611,0,0,1,.124.121.879.879,0,0,0,1.243-1.244,2.427,2.427,0,0,0-2.4-.733A.887.887,0,0,0,348.853,48.319Z" transform="translate(-200.641 -35.03)"/>
        <path id="Trazado_770" data-name="Trazado 770" class="cls-15" d="M349.1,86.965a24.08,24.08,0,0,1-4.118,1.472,9.9,9.9,0,0,1,3.857-2.542.88.88,0,0,0-.468-1.7,10.148,10.148,0,0,0-3.52,2.161,6.934,6.934,0,0,0-2.365,2.481.891.891,0,0,0,.525,1.291,7.612,7.612,0,0,0,4.436-.63,9.952,9.952,0,0,0-1.31,1.49,6.877,6.877,0,0,0-1.147,3.433c.045,1.128,1.8,1.133,1.758,0-.111-2.831,3.51-4.015,3.464-6.611A.886.886,0,0,0,349.1,86.965Z" transform="translate(-198.211 -53.734)"/>
        <path id="Trazado_771" data-name="Trazado 771" class="cls-15" d="M375.258,141.365v-4.3a.88.88,0,0,0-1.758,0v4.3A.88.88,0,0,0,375.258,141.365Z" transform="translate(-213.381 -77.97)"/>
        <path id="Trazado_772" data-name="Trazado 772" class="cls-15" d="M385.167,169.5a1.831,1.831,0,0,0-1.4.648.905.905,0,0,0,0,1.243.886.886,0,0,0,1.244,0,1.133,1.133,0,0,1,.111-.126l0,0,.013,0h.033a.879.879,0,0,0,0-1.758Z" transform="translate(-225.66 -93.376)"/>
        <path id="Trazado_773" data-name="Trazado 773" class="cls-15" d="M102.967,190.476a1.924,1.924,0,0,0-.98-.956,6.334,6.334,0,0,0-1.539-.346,12.177,12.177,0,0,0-2.047-.341.88.88,0,0,0,0,1.758,16.4,16.4,0,0,1,2.074.357c.474.073,1.057.047.963.669-.113.75.849,1.627,1.47.855a8.341,8.341,0,0,0,.549-.754A.82.82,0,0,0,102.967,190.476Z" transform="translate(-67.165 -102.462)"/>
        <path id="Trazado_774" data-name="Trazado 774" class="cls-15" d="M158.543,156.427l-.782.781A.879.879,0,0,0,159,158.452l.781-.782a.879.879,0,0,0-1.243-1.243Z" transform="translate(-102.93 -87.177)"/>
        <path id="Trazado_775" data-name="Trazado 775" class="cls-15" d="M422.5,43.511c-1.91.717-4.126,1.922-4.759,4.037-.618,2.065,1.538,3.142,3.2,3.519,1.1.25,1.572-1.444.467-1.695a4.4,4.4,0,0,1-1.522-.546c-.66-.452-.479-.885-.062-1.487a6.386,6.386,0,0,1,3.147-2.133C424.014,44.812,423.559,43.112,422.5,43.511Z" transform="translate(-239.781 -33.755)"/>
        <path id="Trazado_776" data-name="Trazado 776" class="cls-15" d="M432.555,79.624a.887.887,0,0,0-1.2.315l-.391.781a.9.9,0,0,0,.315,1.2.887.887,0,0,0,1.2-.315q.2-.39.391-.781A.9.9,0,0,0,432.555,79.624Z" transform="translate(-245.255 -48.681)"/>
        <path id="Trazado_777" data-name="Trazado 777" class="cls-15" d="M420.4,169.5a.88.88,0,0,0,0,1.758A.88.88,0,0,0,420.4,169.5Z" transform="translate(-240.576 -93.362)"/>
        <path id="Trazado_778" data-name="Trazado 778" class="cls-15" d="M405.352,231.486c-.13.732-.169,1.477-.274,2.212a3.565,3.565,0,0,1-.672,2.088c-.847.753.4,1.993,1.243,1.243,1.333-1.184,1.114-3.48,1.4-5.076C407.244,230.847,405.55,230.372,405.352,231.486Z" transform="translate(-234.19 -122.198)"/>
        <path id="Trazado_779" data-name="Trazado 779" class="cls-15" d="M348.211,216.7c.008.005.018.007.026.012a.176.176,0,0,0-.018-.016l-.006,0Z" transform="translate(-200.234 -115.274)"/>
        <path id="Trazado_780" data-name="Trazado 780" class="cls-15" d="M347.859,215.162c-.268-.074-.54-.175-.81-.235a.453.453,0,0,1-.135-.063c.138.137-.408.126-.026-.012a.978.978,0,0,0-.153-.09.717.717,0,0,1,.161.086,7.557,7.557,0,0,0,.776-.565,8.235,8.235,0,0,1,.9-.448c1.038-.442.143-1.957-.887-1.518-1.18.5-3.4,1.779-2.441,3.365a2.988,2.988,0,0,0,1.885,1.106c.641.18,1.4.175,1.292.976-.144,1.119,1.616,1.108,1.758,0C350.382,216.2,349.164,215.522,347.859,215.162Z" transform="translate(-199.23 -113.499)"/>
        <path id="Trazado_781" data-name="Trazado 781" class="cls-15" d="M137.181,265.77c-.475.437-1.53.147-2.113.134a.88.88,0,0,0,0,1.758c1.193.026,2.4.235,3.356-.648C139.258,266.245,138.013,265,137.181,265.77Z" transform="translate(-91.08 -138.142)"/>
        <path id="Trazado_782" data-name="Trazado 782" class="cls-15" d="M209.481,136.192a.871.871,0,0,0,.382,1.7l.028.013-.025-.013h0l.067.033a1.689,1.689,0,0,1,.366.25c.254.214.486.451.744.66a.9.9,0,0,0,1.243,0,.885.885,0,0,0,0-1.243C211.452,136.909,210.687,135.944,209.481,136.192Z" transform="translate(-129.281 -77.853)"/>
        <path id="Trazado_783" data-name="Trazado 783" class="cls-15" d="M225.124,27.555a.888.888,0,0,0-.847-.645,3.841,3.841,0,0,0-2.34.855.906.906,0,0,0-.315,1.2.885.885,0,0,0,1.2.315,3.994,3.994,0,0,1,.8-.469c.042-.018.072-.023.11-.038a.957.957,0,0,0,.838.2.9.9,0,0,0,.614-1.081Z" transform="translate(-135.769 -26.906)"/>
        <path id="Trazado_784" data-name="Trazado 784" class="cls-15" d="M53.886,44.011c-1.1-.039-2.109.42-3.22.406a7.556,7.556,0,0,1-3.625-.523c-.852-.452-1.825.676-1.065,1.381l.256.237a.838.838,0,0,0,.68.235,8.185,8.185,0,0,0,2.787.412,14.827,14.827,0,0,0,2.189-.032,11.46,11.46,0,0,1,2-.357C55.018,45.808,55.016,44.05,53.886,44.011Z" transform="translate(-45.702 -33.895)"/>
        <path id="Trazado_785" data-name="Trazado 785" class="cls-15" d="M50.774,142.93c-1.391.946-3.231,1.6-3.92,3.26a.885.885,0,0,0,.614,1.081.9.9,0,0,0,1.081-.614c.213-.513.967-.9,1.408-1.176.563-.353,1.155-.66,1.7-1.034C52.592,143.815,51.713,142.292,50.774,142.93Z" transform="translate(-46.159 -80.99)"/>
        <path id="Trazado_786" data-name="Trazado 786" class="cls-15" d="M68.405,250.3c-1.155-.158-2.154-.957-3.359-.813a.908.908,0,0,0-.879.879.884.884,0,0,0,.879.879c1-.12,1.911.617,2.892.75a.911.911,0,0,0,1.081-.614A.884.884,0,0,0,68.405,250.3Z" transform="translate(-53.345 -130.677)"/>
        <path id="Trazado_787" data-name="Trazado 787" class="cls-15" d="M375.353,292.161c-1.284.172-1.953,1.152-2.794,2.029a7.946,7.946,0,0,0-1.863,2.727c-.942.31-.469,1.856.592,1.659l.318-.059a.867.867,0,0,0,.614-.614,5.148,5.148,0,0,1,1.417-2.3c.4-.413,1.115-1.6,1.715-1.68C376.458,293.771,376.472,292.011,375.353,292.161Z" transform="translate(-212.255 -150.843)"/>
        <path id="Trazado_788" data-name="Trazado 788" class="cls-15" d="M384.39,341.077l-1.563-.782a.9.9,0,0,0-1.2.315.888.888,0,0,0,.315,1.2l1.563.781a.9.9,0,0,0,1.2-.315A.887.887,0,0,0,384.39,341.077Z" transform="translate(-224.829 -175.065)"/>
        <path id="Trazado_789" data-name="Trazado 789" class="cls-15" d="M421.716,283.278a25.917,25.917,0,0,1-2.6,3.339c-.723.861.515,2.111,1.243,1.243a28.688,28.688,0,0,0,2.872-3.694A.88.88,0,0,0,421.716,283.278Z" transform="translate(-240.307 -146.423)"/>
        <path id="Trazado_790" data-name="Trazado 790" class="cls-15" d="M456.785,153.758c-.924.916-.658,2.191-.648,3.357a.88.88,0,0,0,1.758,0c0-.565-.313-1.671.133-2.113A.88.88,0,0,0,456.785,153.758Z" transform="translate(-255.703 -85.993)"/>
        <path id="Trazado_791" data-name="Trazado 791" class="cls-15" d="M65.917,335.5H62.4a.88.88,0,0,0,0,1.758h3.516A.88.88,0,0,0,65.917,335.5Z" transform="translate(-52.263 -173.124)"/>
        <path id="Trazado_792" data-name="Trazado 792" class="cls-15" d="M112.664,330.4c.013,3.026.583,6.2-1.052,8.933a.88.88,0,0,0,1.518.887c1.82-3.04,1.307-6.44,1.292-9.82A.88.88,0,0,0,112.664,330.4Z" transform="translate(-72.931 -170.662)"/>
        <path id="Trazado_793" data-name="Trazado 793" class="cls-15" d="M108.4,381.5a.88.88,0,0,0,0,1.758A.88.88,0,0,0,108.4,381.5Z" transform="translate(-71.304 -192.166)"/>
      </g>
    </g>
    <g id="Grupo_872" data-name="Grupo 872" transform="translate(-2157.747 119.573)">
      <g id="Componente_9_1" data-name="Componente 9 – 1" transform="translate(2248 102)">
        <path id="Trazado_848" data-name="Trazado 848" class="cls-16" d="M125.452,293.159A30.521,30.521,0,1,1,94.931,323.68a30.555,30.555,0,0,1,30.521-30.521m0-4.381a34.9,34.9,0,1,0,34.9,34.9,34.9,34.9,0,0,0-34.9-34.9Z" transform="translate(-90.55 -253.768)"/>
        <path id="Trazado_850" data-name="Trazado 850" class="cls-16" d="M316.892,293.159a30.521,30.521,0,1,1-30.521,30.521,30.555,30.555,0,0,1,30.521-30.521m0-4.381a34.9,34.9,0,1,0,34.9,34.9,34.9,34.9,0,0,0-34.9-34.9Z" transform="translate(-177.147 -253.768)"/>
        <path id="Trazado_852" data-name="Trazado 852" class="cls-16" d="M232.794,362.516a5.389,5.389,0,1,1-5.389,5.389,5.395,5.395,0,0,1,5.389-5.389m0-2.738a8.127,8.127,0,1,0,8.127,8.127,8.127,8.127,0,0,0-8.127-8.127Z" transform="translate(-151.217 -285.884)"/>
        <circle id="Elipse_47" data-name="Elipse 47" class="cls-16" cx="5.384" cy="5.384" r="5.384" transform="translate(29.518 64.528)"/>
        <circle id="Elipse_48" data-name="Elipse 48" class="cls-16" cx="5.384" cy="5.384" r="5.384" transform="translate(134.361 64.528)"/>
        <path id="Trazado_853" data-name="Trazado 853" class="cls-16" d="M149.829,344.317h0a3.764,3.764,0,0,1,1.008.139l.06.016.061.013,47.191,9.41a6.484,6.484,0,0,1-3.2,12.568l-46.064-14.782-.03-.01-.03-.008a3.742,3.742,0,0,1,1-7.346m0-1.643a5.385,5.385,0,0,0-1.444,10.571l46.114,14.8a8.127,8.127,0,1,0,4.018-15.75l-47.236-9.419a5.384,5.384,0,0,0-1.451-.2Z" transform="translate(-114.93 -278.147)"/>
        <path id="Trazado_854" data-name="Trazado 854" class="cls-16" d="M214,317.694a1.689,1.689,0,0,1-.234-.016,1.644,1.644,0,0,1-1.28-.987l-29.241-69.263a1.643,1.643,0,0,1,3.027-1.278L214.45,312.9l44.888-54.952a1.643,1.643,0,1,1,2.544,2.079L215.269,317.09A1.643,1.643,0,0,1,214,317.694Z" transform="translate(-132.42 -234.03)"/>
        <path id="Trazado_855" data-name="Trazado 855" class="cls-16" d="M153.374,314.374a1.1,1.1,0,0,1-.989-1.564l21.975-46.4a1.1,1.1,0,1,1,1.98.938l-21.975,46.4A1.1,1.1,0,0,1,153.374,314.374Z" transform="translate(-118.473 -243.367)"/>
        <path id="Trazado_856" data-name="Trazado 856" class="cls-16" d="M275.915,309.29a1.643,1.643,0,0,1-1.59-1.234l-13.19-51.317L193.2,262.884a1.643,1.643,0,0,1-.3-3.273l69.331-6.271a1.644,1.644,0,0,1,1.739,1.227l13.538,52.671a1.644,1.644,0,0,1-1.182,2A1.68,1.68,0,0,1,275.915,309.29Z" transform="translate(-136.171 -237.735)"/>
        <path id="Trazado_857" data-name="Trazado 857" class="cls-16" d="M318.011,245.393a1.643,1.643,0,0,1-1.624-1.407l-1.973-13.592a1.643,1.643,0,1,1,3.251-.472l1.973,13.592a1.643,1.643,0,0,1-1.39,1.862A1.6,1.6,0,0,1,318.011,245.393Z" transform="translate(-191.806 -226.507)"/>
        <g id="Grupo_873" data-name="Grupo 873" transform="translate(0 0)">
          <path id="Trazado_849" data-name="Trazado 849" class="cls-17" d="M126.687,295.7a29.214,29.214,0,1,1-29.214,29.214A29.247,29.247,0,0,1,126.687,295.7m0-4.193a33.407,33.407,0,1,0,33.407,33.407,33.407,33.407,0,0,0-33.407-33.407Z" transform="translate(-91.785 -255.003)"/>
          <path id="Trazado_851" data-name="Trazado 851" class="cls-17" d="M318.127,295.7a29.214,29.214,0,1,1-29.213,29.214A29.247,29.247,0,0,1,318.127,295.7m0-4.193a33.407,33.407,0,1,0,33.407,33.407,33.407,33.407,0,0,0-33.407-33.407Z" transform="translate(-178.382 -255.003)"/>
          <path id="Trazado_858" data-name="Trazado 858" class="cls-17" d="M305.739,234.067a1.6,1.6,0,0,1-.811-2.985L315.2,225.07a1.6,1.6,0,1,1,1.618,2.765l-10.271,6.012A1.593,1.593,0,0,1,305.739,234.067Z" transform="translate(-187.164 -224.85)"/>
          <path id="Trazado_859" data-name="Trazado 859" class="cls-17" d="M163.927,242c2.86,3.651,14.979-.426,18.656-1.643s12.074,1.217,10.8-1.643-19.652-1.732-22.21-2.738C165.753,233.843,159.016,235.728,163.927,242Z" transform="translate(-122.972 -229.501)"/>
        </g>
        <g id="Grupo_867" data-name="Grupo 867" transform="translate(72.923 63.465)">
          <path id="Trazado_860" data-name="Trazado 860" class="cls-16" d="M229.762,377.847a1.1,1.1,0,0,1-1.056-1.388l9.683-34.921a1.1,1.1,0,0,1,2.111.585l-9.683,34.921A1.1,1.1,0,0,1,229.762,377.847Z" transform="translate(-225.95 -340.735)"/>
          <path id="Trazado_861" data-name="Trazado 861" class="cls-16" d="M244.412,342.927h-9.675a1.1,1.1,0,1,1,0-2.191h9.675a1.1,1.1,0,1,1,0,2.191Z" transform="translate(-228.2 -340.736)"/>
          <path id="Trazado_862" data-name="Trazado 862" class="cls-16" d="M234.477,406.691H224.8a1.1,1.1,0,1,1,0-2.191h9.675a1.1,1.1,0,1,1,0,2.191Z" transform="translate(-223.706 -369.579)"/>
        </g>
      </g>
    </g>
    <ellipse id="Elipse_49" data-name="Elipse 49" class="cls-18" cx="109.542" cy="8.56" rx="109.542" ry="8.56" transform="translate(67.941 317.412)"/>
  </g>
</svg>
