<svg xmlns="http://www.w3.org/2000/svg" width="127.263" height="248.24" viewBox="0 0 127.263 248.24">
  <defs>
    <style>
      .cls-1 {
        fill: #ffbe9d;
      }

      .cls-2 {
        fill: #263238;
      }

      .cls-3 {
        fill: #fff;
      }

      .cls-4 {
        fill: #eb996e;
      }

      .cls-5 {
        fill: #455a64;
      }

      .cls-12, .cls-6 {
        fill: none;
        stroke-miterlimit: 10;
      }

      .cls-6 {
        stroke: #fbfbfb;
      }

      .cls-7 {
        fill: #e8505b;
      }

      .cls-8 {
        fill: #fafafa;
      }

      .cls-9 {
        fill: #e0e0e0;
      }

      .cls-10 {
        opacity: 0.3;
      }

      .cls-11 {
        opacity: 0.4;
      }

      .cls-12 {
        stroke: #4e585d;
        stroke-width: 0.05px;
      }
    </style>
  </defs>
  <g id="Grupo_814" data-name="Grupo 814" transform="translate(-1550.155 -118.427)">
    <g id="Character_1" data-name="Character 1" transform="translate(1550.155 118.427)">
      <g id="Grupo_634" data-name="Grupo 634" transform="translate(0)">
        <g id="Grupo_436" data-name="Grupo 436" transform="translate(26.055)">
          <g id="Grupo_434" data-name="Grupo 434" transform="translate(1.1 5.309)">
            <g id="Grupo_433" data-name="Grupo 433">
              <g id="Grupo_416" data-name="Grupo 416" transform="translate(2.387 1.107)">
                <g id="Grupo_415" data-name="Grupo 415">
                  <g id="Grupo_414" data-name="Grupo 414">
                    <g id="Grupo_387" data-name="Grupo 387">
                      <g id="Grupo_386" data-name="Grupo 386">
                        <g id="Grupo_385" data-name="Grupo 385">
                          <path id="Trazado_133" data-name="Trazado 133" class="cls-1" d="M259.39,169.829l12.434-1.709c-.006-1.463-.432-7.1-.432-7.1s5.151-1.1,4.918-6.3S274.5,137.64,274.5,137.64h0a18.088,18.088,0,0,0-18.015,3.314l-.736.637Z" transform="translate(-255.747 -136.549)"/>
                        </g>
                      </g>
                    </g>
                    <g id="Grupo_395" data-name="Grupo 395" transform="translate(16.622 8.164)">
                      <g id="Grupo_390" data-name="Grupo 390" transform="translate(1.161 0.58)">
                        <g id="Grupo_389" data-name="Grupo 389">
                          <g id="Grupo_388" data-name="Grupo 388">
                            <path id="Trazado_134" data-name="Trazado 134" class="cls-2" d="M280.462,149.908a.756.756,0,1,1,1.063-.113A.756.756,0,0,1,280.462,149.908Z" transform="translate(-280.181 -148.564)"/>
                          </g>
                        </g>
                      </g>
                      <g id="Grupo_394" data-name="Grupo 394">
                        <g id="Grupo_393" data-name="Grupo 393">
                          <g id="Grupo_392" data-name="Grupo 392">
                            <g id="Grupo_391" data-name="Grupo 391">
                              <path id="Trazado_135" data-name="Trazado 135" class="cls-2" d="M281.22,148.433c-.076.095-.609-.269-1.325-.231s-1.214.437-1.3.349c-.042-.039.031-.205.247-.391a1.767,1.767,0,0,1,2.094-.094C281.17,148.231,281.257,148.391,281.22,148.433Z" transform="translate(-278.586 -147.767)"/>
                            </g>
                          </g>
                        </g>
                      </g>
                    </g>
                    <g id="Grupo_403" data-name="Grupo 403" transform="translate(8.885 9.238)">
                      <g id="Grupo_398" data-name="Grupo 398" transform="translate(1.048 0.595)">
                        <g id="Grupo_397" data-name="Grupo 397">
                          <g id="Grupo_396" data-name="Grupo 396">
                            <path id="Trazado_136" data-name="Trazado 136" class="cls-2" d="M270.509,150.151a.756.756,0,1,1-1.024.306A.756.756,0,0,1,270.509,150.151Z" transform="translate(-269.394 -150.061)"/>
                          </g>
                        </g>
                      </g>
                      <g id="Grupo_402" data-name="Grupo 402">
                        <g id="Grupo_401" data-name="Grupo 401">
                          <g id="Grupo_400" data-name="Grupo 400">
                            <g id="Grupo_399" data-name="Grupo 399">
                              <path id="Trazado_137" data-name="Trazado 137" class="cls-2" d="M270.59,149.908c-.076.095-.609-.269-1.325-.231s-1.215.437-1.3.349c-.041-.039.031-.206.248-.391a1.766,1.766,0,0,1,2.093-.094C270.54,149.706,270.627,149.866,270.59,149.908Z" transform="translate(-267.955 -149.242)"/>
                            </g>
                          </g>
                        </g>
                      </g>
                    </g>
                    <g id="Grupo_407" data-name="Grupo 407" transform="translate(13.94 9.445)">
                      <g id="Grupo_406" data-name="Grupo 406">
                        <g id="Grupo_405" data-name="Grupo 405">
                          <g id="Grupo_404" data-name="Grupo 404">
                            <path id="Trazado_138" data-name="Trazado 138" class="cls-2" d="M275.685,155.726a3.5,3.5,0,0,1,1.143-.311c.186-.031.33-.082.338-.183A1.014,1.014,0,0,0,277,154.7l-.648-1.422a19.946,19.946,0,0,1-1.443-3.752,19.933,19.933,0,0,1,1.816,3.587l.619,1.434a1.2,1.2,0,0,1,.146.772.49.49,0,0,1-.3.317,1.194,1.194,0,0,1-.317.06A3.5,3.5,0,0,1,275.685,155.726Z" transform="translate(-274.9 -149.528)"/>
                          </g>
                        </g>
                      </g>
                    </g>
                    <g id="Grupo_410" data-name="Grupo 410" transform="translate(12.421 16.566)">
                      <g id="Grupo_409" data-name="Grupo 409">
                        <g id="Grupo_408" data-name="Grupo 408">
                          <path id="Trazado_139" data-name="Trazado 139" class="cls-3" d="M272.838,159.312a13.4,13.4,0,0,0,3.568.82,1.981,1.981,0,0,1-2.289.921C272.529,160.571,272.838,159.312,272.838,159.312Z" transform="translate(-272.814 -159.312)"/>
                        </g>
                      </g>
                    </g>
                    <g id="Grupo_413" data-name="Grupo 413" transform="translate(8.765 22.858)">
                      <g id="Grupo_412" data-name="Grupo 412">
                        <g id="Grupo_411" data-name="Grupo 411">
                          <path id="Trazado_140" data-name="Trazado 140" class="cls-4" d="M274.674,169.5a12.1,12.1,0,0,1-6.883-1.539s1.814,3.648,6.972,2.884Z" transform="translate(-267.791 -167.957)"/>
                        </g>
                      </g>
                    </g>
                  </g>
                </g>
              </g>
              <g id="Grupo_418" data-name="Grupo 418" transform="translate(1.244)">
                <g id="Grupo_417" data-name="Grupo 417">
                  <path id="Trazado_141" data-name="Trazado 141" class="cls-2" d="M274.251,138.527a8.676,8.676,0,0,1-7.294.432c-2.857-.985-6.068-1.228-6.686-.6s-.4,3.412-2.95,4.568c0,0,.875,5.247-1.251,5.335s-1.886-8.248-1.886-8.248l4.811-3.187,5.472-1.8,5.384.05,4.238.581Z" transform="translate(-254.176 -135.029)"/>
                </g>
              </g>
              <g id="Grupo_426" data-name="Grupo 426" transform="translate(0 11.389)">
                <g id="Grupo_421" data-name="Grupo 421">
                  <g id="Grupo_420" data-name="Grupo 420">
                    <g id="Grupo_419" data-name="Grupo 419">
                      <path id="Trazado_142" data-name="Trazado 142" class="cls-1" d="M255.8,150.783c-.091-.033-3.63-.853-3.314,2.693s3.811,2.5,3.808,2.4S255.8,150.783,255.8,150.783Z" transform="translate(-252.467 -150.678)"/>
                    </g>
                  </g>
                </g>
                <g id="Grupo_425" data-name="Grupo 425" transform="translate(0.916 1.198)">
                  <g id="Grupo_424" data-name="Grupo 424">
                    <g id="Grupo_423" data-name="Grupo 423">
                      <g id="Grupo_422" data-name="Grupo 422">
                        <path id="Trazado_143" data-name="Trazado 143" class="cls-4" d="M255.434,155.072c-.017-.01-.057.049-.158.106a.619.619,0,0,1-.461.051,1.535,1.535,0,0,1-.83-1.309,2.046,2.046,0,0,1,.095-.9.715.715,0,0,1,.422-.515.316.316,0,0,1,.38.137c.056.095.04.167.059.172s.071-.066.029-.21a.4.4,0,0,0-.159-.21.474.474,0,0,0-.35-.06.872.872,0,0,0-.6.607,2.1,2.1,0,0,0-.126,1.008,1.61,1.61,0,0,0,1.037,1.45.664.664,0,0,0,.557-.144C255.435,155.158,255.447,155.077,255.434,155.072Z" transform="translate(-253.725 -152.324)"/>
                      </g>
                    </g>
                  </g>
                </g>
              </g>
              <g id="Grupo_429" data-name="Grupo 429" transform="translate(18.079 8.038)">
                <g id="Grupo_428" data-name="Grupo 428">
                  <g id="Grupo_427" data-name="Grupo 427">
                    <path id="Trazado_144" data-name="Trazado 144" class="cls-2" d="M277.325,147c.128.2.8-.007,1.611-.081.811-.092,1.509-.024,1.594-.246.095-.2-.647-.7-1.678-.587S277.191,146.821,277.325,147Z" transform="translate(-277.307 -146.074)"/>
                  </g>
                </g>
              </g>
              <g id="Grupo_432" data-name="Grupo 432" transform="translate(10.108 8.493)">
                <g id="Grupo_431" data-name="Grupo 431">
                  <g id="Grupo_430" data-name="Grupo 430">
                    <path id="Trazado_145" data-name="Trazado 145" class="cls-2" d="M266.373,147.627c.128.2.8-.007,1.611-.081.811-.091,1.509-.023,1.594-.245.095-.205-.647-.7-1.679-.588S266.239,147.446,266.373,147.627Z" transform="translate(-266.355 -146.698)"/>
                  </g>
                </g>
              </g>
            </g>
          </g>
          <g id="Grupo_435" data-name="Grupo 435">
            <path id="Trazado_146" data-name="Trazado 146" class="cls-2" d="M258.133,137.19a12.23,12.23,0,0,1-1.927,2.51,4.109,4.109,0,0,1-2.856,1.189A2.506,2.506,0,0,1,251,139.106a1.82,1.82,0,0,1,1.646-2.2,1.1,1.1,0,1,1,.273-2.068c-.913,0-1.276-1.381-.678-2.071a2.654,2.654,0,0,1,2.547-.581,15.931,15.931,0,0,0,2.67.584,5.892,5.892,0,0,0,3.821-1.738,16.776,16.776,0,0,1,3.365-2.648,7.985,7.985,0,0,1,5.16-.407,8.3,8.3,0,0,1,3.906,1.86,4.871,4.871,0,0,1,1.665,3.886,3.477,3.477,0,0,1-2.627,3.119,9.421,9.421,0,0,1-6.153-.523c-2.989-1.454-8.472-.156-8.472-.156Z" transform="translate(-250.955 -127.734)"/>
          </g>
        </g>
        <g id="Grupo_444" data-name="Grupo 444" transform="translate(17.526 35.96)">
          <g id="Grupo_437" data-name="Grupo 437" transform="translate(1.064)">
            <path id="Trazado_147" data-name="Trazado 147" class="cls-5" d="M240.7,185.46s5.1-4.75,8.475-6.194a18.156,18.156,0,0,1,5.453-1.371h0a22.13,22.13,0,0,0,13.318-.751c.758.052,1.921.087,3.456.207a19.456,19.456,0,0,1,13.434,6.945L295.4,197,284.743,207.65l-2.391-3.929s3.553,30.406,3.695,34.718l-39.3,4.116-.218-34.857Z" transform="translate(-240.698 -177.144)"/>
          </g>
          <g id="Grupo_439" data-name="Grupo 439" transform="translate(5.149 18.104)">
            <g id="Grupo_438" data-name="Grupo 438">
              <path id="Trazado_148" data-name="Trazado 148" class="cls-2" d="M246.312,225.971c-.008-.01.078-.091.248-.236l.755-.616,2.822-2.212c2.393-1.854,5.714-4.4,9.4-7.183l1.014-.767-.037.263a100.226,100.226,0,0,1-5.827-9.316l-1.652-2.836a8.012,8.012,0,0,1-.582-1.048c.01-.007.078.076.2.241s.293.409.5.733c.431.643,1.03,1.591,1.755,2.779,1.467,2.362,3.35,5.748,5.907,9.222l.111.151-.148.113-1.014.768c-3.682,2.788-7.029,5.295-9.463,7.094l-2.894,2.116-.8.56A1.182,1.182,0,0,1,246.312,225.971Z" transform="translate(-246.311 -202.02)"/>
            </g>
          </g>
          <g id="Grupo_441" data-name="Grupo 441" transform="translate(0 8.656)">
            <g id="Grupo_440" data-name="Grupo 440">
              <path id="Trazado_149" data-name="Trazado 149" class="cls-2" d="M239.237,189.61a1.5,1.5,0,0,1,.533-.279,4.683,4.683,0,0,1,1.615-.292,7.343,7.343,0,0,1,4.928,2.031,14.425,14.425,0,0,1,3.036,4.418,10.8,10.8,0,0,1,.831,2.053,15.708,15.708,0,0,1-1.071-1.932,16.172,16.172,0,0,0-3.055-4.261,7.488,7.488,0,0,0-4.673-2.041A8.289,8.289,0,0,0,239.237,189.61Z" transform="translate(-239.237 -189.037)"/>
            </g>
          </g>
          <g id="Grupo_443" data-name="Grupo 443" transform="translate(14.185 0.787)">
            <g id="Grupo_442" data-name="Grupo 442">
              <path id="Trazado_150" data-name="Trazado 150" class="cls-2" d="M272.112,178.233a7.185,7.185,0,0,1-1.865.745,18.815,18.815,0,0,1-9.615.289,7.253,7.253,0,0,1-1.905-.631,19.23,19.23,0,0,1,1.96.368,22.5,22.5,0,0,0,9.49-.285A19.483,19.483,0,0,1,272.112,178.233Z" transform="translate(-258.727 -178.225)"/>
            </g>
          </g>
        </g>
        <g id="Grupo_474" data-name="Grupo 474" transform="translate(0.823 233.198)">
          <g id="Grupo_446" data-name="Grupo 446">
            <g id="Grupo_445" data-name="Grupo 445">
              <path id="Trazado_151" data-name="Trazado 151" class="cls-5" d="M229.286,440.95l-1.24,4.974s-8.519,10.567-11.146,10.05c-1.722-.338.394-3.1,3.635-11.121l.68-3.315Z" transform="translate(-216.286 -440.95)"/>
            </g>
          </g>
          <g id="Grupo_449" data-name="Grupo 449" transform="translate(0.267 3.779)">
            <g id="Grupo_448" data-name="Grupo 448">
              <g id="Grupo_447" data-name="Grupo 447">
                <path id="Trazado_152" data-name="Trazado 152" class="cls-2" d="M216.653,455.827a.433.433,0,0,0,.068.149.931.931,0,0,0,.358.32,1.447,1.447,0,0,0,.758.159,2.069,2.069,0,0,0,.965-.338,40.722,40.722,0,0,0,4.293-3.821,52.925,52.925,0,0,0,3.807-4.261c.454-.571.81-1.041,1.049-1.37l.271-.382a.083.083,0,1,0-.028-.019l-.3.365-1.09,1.338c-.933,1.119-2.258,2.639-3.835,4.22a47.128,47.128,0,0,1-4.237,3.838,1.634,1.634,0,0,1-1.627.218A1.1,1.1,0,0,1,216.653,455.827Z" transform="translate(-216.653 -446.142)"/>
              </g>
            </g>
          </g>
          <g id="Grupo_452" data-name="Grupo 452" transform="translate(1.474 9.982)">
            <g id="Grupo_451" data-name="Grupo 451">
              <g id="Grupo_450" data-name="Grupo 450">
                <path id="Trazado_153" data-name="Trazado 153" class="cls-2" d="M218.311,454.75c.005.027.269-.023.688.034a4.2,4.2,0,0,1,1.533.555,3.073,3.073,0,0,1,1.151,1.1c.2.355.256.608.285.6a1.354,1.354,0,0,0-.18-.652,2.86,2.86,0,0,0-1.168-1.182,3.767,3.767,0,0,0-1.609-.531A1.392,1.392,0,0,0,218.311,454.75Z" transform="translate(-218.311 -454.666)"/>
              </g>
            </g>
          </g>
          <g id="Grupo_455" data-name="Grupo 455" transform="translate(9.217 2.577)">
            <g id="Grupo_454" data-name="Grupo 454">
              <g id="Grupo_453" data-name="Grupo 453">
                <path id="Trazado_154" data-name="Trazado 154" class="cls-2" d="M229.272,449.5c.03-.007-.089-.356-.156-.933a3.731,3.731,0,0,1,2.055-3.749,6.732,6.732,0,0,1,.924-.321.776.776,0,0,0-.27.013,2.907,2.907,0,0,0-.7.206,3.59,3.59,0,0,0-1.726,1.6,3.553,3.553,0,0,0-.4,2.266,4.1,4.1,0,0,0,.17.682A.728.728,0,0,0,229.272,449.5Z" transform="translate(-228.951 -444.491)"/>
              </g>
            </g>
          </g>
          <g id="Grupo_458" data-name="Grupo 458" transform="translate(11.696 0.843)">
            <g id="Grupo_457" data-name="Grupo 457">
              <g id="Grupo_456" data-name="Grupo 456">
                <path id="Trazado_155" data-name="Trazado 155" class="cls-2" d="M233.119,442.109a4.872,4.872,0,0,0-.472,1.558c-.155.883-.322,1.58-.285,1.593a4.976,4.976,0,0,0,.45-1.563C232.97,442.818,233.16,442.123,233.119,442.109Z" transform="translate(-232.356 -442.109)"/>
              </g>
            </g>
          </g>
          <g id="Grupo_461" data-name="Grupo 461" transform="translate(4.098 4.538)">
            <g id="Grupo_460" data-name="Grupo 460">
              <g id="Grupo_459" data-name="Grupo 459">
                <path id="Trazado_156" data-name="Trazado 156" class="cls-2" d="M221.916,447.252c0,.047.486.033,1.056.162s1,.337,1.023.3a1.911,1.911,0,0,0-.985-.453A1.962,1.962,0,0,0,221.916,447.252Z" transform="translate(-221.916 -447.186)"/>
              </g>
            </g>
          </g>
          <g id="Grupo_464" data-name="Grupo 464" transform="translate(3.923 5.367)">
            <g id="Grupo_463" data-name="Grupo 463">
              <g id="Grupo_462" data-name="Grupo 462">
                <path id="Trazado_157" data-name="Trazado 157" class="cls-2" d="M221.676,448.413c.007.047.41.007.884.117s.816.314.844.275a1.3,1.3,0,0,0-.806-.43A1.35,1.35,0,0,0,221.676,448.413Z" transform="translate(-221.676 -448.324)"/>
              </g>
            </g>
          </g>
          <g id="Grupo_467" data-name="Grupo 467" transform="translate(3.241 6.364)">
            <g id="Grupo_466" data-name="Grupo 466">
              <g id="Grupo_465" data-name="Grupo 465">
                <path id="Trazado_158" data-name="Trazado 158" class="cls-2" d="M220.741,449.856a4.826,4.826,0,0,1,.918.032,4.66,4.66,0,0,1,.842.35,1.111,1.111,0,0,0-.8-.506A1.159,1.159,0,0,0,220.741,449.856Z" transform="translate(-220.739 -449.694)"/>
              </g>
            </g>
          </g>
          <g id="Grupo_470" data-name="Grupo 470" transform="translate(4.684 2.193)">
            <g id="Grupo_469" data-name="Grupo 469">
              <g id="Grupo_468" data-name="Grupo 468">
                <path id="Trazado_159" data-name="Trazado 159" class="cls-2" d="M222.722,446.018a.9.9,0,0,0,.285-.031,5.82,5.82,0,0,0,.755-.194,6.769,6.769,0,0,0,1.061-.45,6.612,6.612,0,0,0,.585-.347.82.82,0,0,0,.426-.625.5.5,0,0,0-.65-.389,1.351,1.351,0,0,0-.594.38,10.4,10.4,0,0,0-.782.814c-.209.244-.365.45-.468.6a.826.826,0,0,0-.142.238c.02.014.264-.3.7-.76.218-.232.486-.5.8-.782a1.246,1.246,0,0,1,.524-.333c.193-.047.442.052.445.245s-.182.368-.354.49c-.189.127-.38.243-.565.346a7.9,7.9,0,0,1-1.026.472C223.114,445.912,222.716,445.991,222.722,446.018Z" transform="translate(-222.722 -443.963)"/>
              </g>
            </g>
          </g>
          <g id="Grupo_473" data-name="Grupo 473" transform="translate(3.557 1.461)">
            <g id="Grupo_472" data-name="Grupo 472">
              <g id="Grupo_471" data-name="Grupo 471">
                <path id="Trazado_160" data-name="Trazado 160" class="cls-2" d="M222.748,445.641a.74.74,0,0,0,.009-.25c-.006-.159-.016-.39-.053-.675a3.441,3.441,0,0,0-.268-.983,2.069,2.069,0,0,0-.336-.521.588.588,0,0,0-.682-.206.612.612,0,0,0-.236.648,2.207,2.207,0,0,0,.186.585,3,3,0,0,0,.608.835,3.853,3.853,0,0,0,.543.443.723.723,0,0,0,.227.124c.018-.023-.29-.225-.683-.643a3.137,3.137,0,0,1-.555-.818,2.168,2.168,0,0,1-.164-.544c-.024-.183,0-.41.154-.489s.349.031.479.17a2.034,2.034,0,0,1,.317.477,3.7,3.7,0,0,1,.291.939A7.558,7.558,0,0,0,222.748,445.641Z" transform="translate(-221.174 -442.958)"/>
              </g>
            </g>
          </g>
        </g>
        <g id="Grupo_536" data-name="Grupo 536" transform="translate(42.856 228.927)">
          <g id="Grupo_535" data-name="Grupo 535">
            <g id="Grupo_478" data-name="Grupo 478" transform="translate(0.18)">
              <g id="Grupo_477" data-name="Grupo 477">
                <g id="Grupo_476" data-name="Grupo 476">
                  <g id="Grupo_475" data-name="Grupo 475">
                    <path id="Trazado_161" data-name="Trazado 161" class="cls-5" d="M287.425,441.866l.039-6.634-13.012-.151-.165,9.705.806.059c3.589.232,18.262.938,20.671.271C298.45,444.371,287.425,441.866,287.425,441.866Z" transform="translate(-274.287 -435.081)"/>
                  </g>
                </g>
              </g>
            </g>
            <g id="Grupo_482" data-name="Grupo 482" transform="translate(0 9.412)">
              <g id="Grupo_481" data-name="Grupo 481">
                <g id="Grupo_480" data-name="Grupo 480">
                  <g id="Grupo_479" data-name="Grupo 479">
                    <path id="Trazado_162" data-name="Trazado 162" class="cls-2" d="M274.04,448.019a1.2,1.2,0,0,0,.223.026l.642.044,2.363.126c2,.093,4.757.186,7.807.226s5.813.017,7.811-.025l2.366-.065.643-.028a1.289,1.289,0,0,0,.223-.02,1.242,1.242,0,0,0-.225-.01h-.643l-2.366.017c-2,.015-4.759.02-7.808-.019s-5.807-.116-7.8-.182l-2.365-.078-.643-.017A1.267,1.267,0,0,0,274.04,448.019Z" transform="translate(-274.04 -448.014)"/>
                  </g>
                </g>
              </g>
            </g>
            <g id="Grupo_486" data-name="Grupo 486" transform="translate(13.704 7.038)">
              <g id="Grupo_485" data-name="Grupo 485">
                <g id="Grupo_484" data-name="Grupo 484">
                  <g id="Grupo_483" data-name="Grupo 483">
                    <path id="Trazado_163" data-name="Trazado 163" class="cls-2" d="M292.876,445.779c.037.023.223-.188.417-.472s.321-.531.285-.554-.223.189-.417.472S292.839,445.756,292.876,445.779Z" transform="translate(-292.869 -444.752)"/>
                  </g>
                </g>
              </g>
            </g>
            <g id="Grupo_490" data-name="Grupo 490" transform="translate(12.66 6.829)">
              <g id="Grupo_489" data-name="Grupo 489">
                <g id="Grupo_488" data-name="Grupo 488">
                  <g id="Grupo_487" data-name="Grupo 487">
                    <path id="Trazado_164" data-name="Trazado 164" class="cls-2" d="M291.439,445.156c.029.031.237-.1.463-.287s.387-.369.359-.4-.236.1-.463.287S291.41,445.125,291.439,445.156Z" transform="translate(-291.436 -444.465)"/>
                  </g>
                </g>
              </g>
            </g>
            <g id="Grupo_494" data-name="Grupo 494" transform="translate(12.014 6.279)">
              <g id="Grupo_493" data-name="Grupo 493">
                <g id="Grupo_492" data-name="Grupo 492">
                  <g id="Grupo_491" data-name="Grupo 491">
                    <path id="Trazado_165" data-name="Trazado 165" class="cls-2" d="M290.547,443.769a1.583,1.583,0,0,0,.678.091.344.344,0,1,0-.678-.091Z" transform="translate(-290.547 -443.708)"/>
                  </g>
                </g>
              </g>
            </g>
            <g id="Grupo_498" data-name="Grupo 498" transform="translate(11.795 5.498)">
              <g id="Grupo_497" data-name="Grupo 497">
                <g id="Grupo_496" data-name="Grupo 496">
                  <g id="Grupo_495" data-name="Grupo 495">
                    <path id="Trazado_166" data-name="Trazado 166" class="cls-2" d="M290.248,442.648a1.359,1.359,0,0,0,.755.22,1.379,1.379,0,0,0,.783-.09,4.357,4.357,0,0,0-.769-.06A4.313,4.313,0,0,0,290.248,442.648Z" transform="translate(-290.247 -442.636)"/>
                  </g>
                </g>
              </g>
            </g>
            <g id="Grupo_502" data-name="Grupo 502" transform="translate(14.166 5.89)">
              <g id="Grupo_501" data-name="Grupo 501">
                <g id="Grupo_500" data-name="Grupo 500">
                  <g id="Grupo_499" data-name="Grupo 499">
                    <path id="Trazado_167" data-name="Trazado 167" class="cls-2" d="M293.505,444.271a2.522,2.522,0,0,0,.836.005,5.088,5.088,0,0,0,.892-.176,2.547,2.547,0,0,0,.512-.194.438.438,0,0,0,.21-.245.307.307,0,0,0-.122-.321,1.58,1.58,0,0,0-1.9.405,1.4,1.4,0,0,0-.279.529c-.036.136-.034.214-.025.215a2.224,2.224,0,0,1,.39-.676,1.518,1.518,0,0,1,.72-.435,1.356,1.356,0,0,1,1,.077c.132.1.078.245-.071.326a2.512,2.512,0,0,1-.472.186,5.956,5.956,0,0,1-.864.2C293.824,444.25,293.505,444.247,293.505,444.271Z" transform="translate(-293.505 -443.174)"/>
                  </g>
                </g>
              </g>
            </g>
            <g id="Grupo_506" data-name="Grupo 506" transform="translate(13.307 5.474)">
              <g id="Grupo_505" data-name="Grupo 505">
                <g id="Grupo_504" data-name="Grupo 504">
                  <g id="Grupo_503" data-name="Grupo 503">
                    <path id="Trazado_168" data-name="Trazado 168" class="cls-2" d="M293.4,444.157a.76.76,0,0,0,.1-.553,1.275,1.275,0,0,0-.221-.586.842.842,0,0,0-.691-.416.319.319,0,0,0-.263.365.855.855,0,0,0,.138.359,2.411,2.411,0,0,0,.389.488,1.2,1.2,0,0,0,.474.329c.015-.019-.164-.145-.392-.4a2.8,2.8,0,0,1-.344-.484c-.113-.17-.187-.474.023-.508.21-.017.421.185.547.346a1.285,1.285,0,0,1,.229.523A2.8,2.8,0,0,1,293.4,444.157Z" transform="translate(-292.324 -442.603)"/>
                  </g>
                </g>
              </g>
            </g>
            <g id="Grupo_510" data-name="Grupo 510" transform="translate(0.311 5.946)">
              <g id="Grupo_509" data-name="Grupo 509">
                <g id="Grupo_508" data-name="Grupo 508">
                  <g id="Grupo_507" data-name="Grupo 507">
                    <path id="Trazado_169" data-name="Trazado 169" class="cls-2" d="M274.467,443.326c0,.028.373-.029.961.044a4.3,4.3,0,0,1,2.086.851,4.011,4.011,0,0,1,1.287,1.784c.191.535.206.893.235.89a.694.694,0,0,0,0-.25,3.107,3.107,0,0,0-.132-.672,3.828,3.828,0,0,0-1.294-1.869,4.126,4.126,0,0,0-2.174-.841,3.592,3.592,0,0,0-.715.009A.8.8,0,0,0,274.467,443.326Z" transform="translate(-274.467 -443.251)"/>
                  </g>
                </g>
              </g>
            </g>
            <g id="Grupo_514" data-name="Grupo 514" transform="translate(1.556 0.867)">
              <g id="Grupo_513" data-name="Grupo 513">
                <g id="Grupo_512" data-name="Grupo 512">
                  <g id="Grupo_511" data-name="Grupo 511">
                    <path id="Trazado_170" data-name="Trazado 170" class="cls-2" d="M276.351,436.272a41.3,41.3,0,0,0-.136,5.105,20.774,20.774,0,0,0,.147-2.551A20.984,20.984,0,0,0,276.351,436.272Z" transform="translate(-276.178 -436.272)"/>
                  </g>
                </g>
              </g>
            </g>
            <g id="Grupo_518" data-name="Grupo 518" transform="translate(6.552 8.457)">
              <g id="Grupo_517" data-name="Grupo 517">
                <g id="Grupo_516" data-name="Grupo 516">
                  <g id="Grupo_515" data-name="Grupo 515">
                    <path id="Trazado_171" data-name="Trazado 171" class="cls-2" d="M283.043,446.715a11.193,11.193,0,0,0,3.8.081c0-.044-.854,0-1.9-.028S283.049,446.671,283.043,446.715Z" transform="translate(-283.043 -446.702)"/>
                  </g>
                </g>
              </g>
            </g>
            <g id="Grupo_522" data-name="Grupo 522" transform="translate(3.996 8.431)">
              <g id="Grupo_521" data-name="Grupo 521">
                <g id="Grupo_520" data-name="Grupo 520">
                  <g id="Grupo_519" data-name="Grupo 519">
                    <path id="Trazado_172" data-name="Trazado 172" class="cls-2" d="M279.537,446.67c-.032.031.067.173.151.36s.13.353.175.351.07-.2-.03-.411S279.565,446.641,279.537,446.67Z" transform="translate(-279.531 -446.666)"/>
                  </g>
                </g>
              </g>
            </g>
            <g id="Grupo_526" data-name="Grupo 526" transform="translate(3.049 7.276)">
              <g id="Grupo_525" data-name="Grupo 525">
                <g id="Grupo_524" data-name="Grupo 524">
                  <g id="Grupo_523" data-name="Grupo 523">
                    <path id="Trazado_173" data-name="Trazado 173" class="cls-2" d="M278.237,445.085c-.031.029.051.159.184.291s.266.215.3.186-.05-.159-.183-.291S278.268,445.056,278.237,445.085Z" transform="translate(-278.23 -445.079)"/>
                  </g>
                </g>
              </g>
            </g>
            <g id="Grupo_530" data-name="Grupo 530" transform="translate(1.687 6.675)">
              <g id="Grupo_529" data-name="Grupo 529">
                <g id="Grupo_528" data-name="Grupo 528">
                  <g id="Grupo_527" data-name="Grupo 527">
                    <path id="Trazado_174" data-name="Trazado 174" class="cls-2" d="M276.359,444.321c.009.042.182.043.372.109s.327.166.361.138-.072-.2-.309-.279S276.346,444.283,276.359,444.321Z" transform="translate(-276.358 -444.253)"/>
                  </g>
                </g>
              </g>
            </g>
            <g id="Grupo_534" data-name="Grupo 534" transform="translate(0.71 6.458)">
              <g id="Grupo_533" data-name="Grupo 533">
                <g id="Grupo_532" data-name="Grupo 532">
                  <g id="Grupo_531" data-name="Grupo 531">
                    <path id="Trazado_175" data-name="Trazado 175" class="cls-2" d="M275.018,443.982c-.017.039.057.1.164.145s.208.044.224.005-.058-.1-.165-.145S275.034,443.943,275.018,443.982Z" transform="translate(-275.016 -443.954)"/>
                  </g>
                </g>
              </g>
            </g>
          </g>
        </g>
        <g id="Grupo_585" data-name="Grupo 585" transform="translate(0 100.092)">
          <g id="Grupo_540" data-name="Grupo 540">
            <g id="Grupo_539" data-name="Grupo 539">
              <g id="Grupo_538" data-name="Grupo 538">
                <g id="Grupo_537" data-name="Grupo 537">
                  <path id="Trazado_176" data-name="Trazado 176" class="cls-2" d="M280.365,258.058l-6.255,132.761-20.263.406,3.365-107.908L234.42,392.05H215.155l25.73-130.125" transform="translate(-215.155 -258.058)"/>
                </g>
              </g>
            </g>
          </g>
          <g id="Grupo_542" data-name="Grupo 542" transform="translate(25.042 5.878)">
            <g id="Grupo_541" data-name="Grupo 541">
              <path id="Trazado_177" data-name="Trazado 177" class="cls-5" d="M258.511,266.135a1.293,1.293,0,0,1,.043.527,6.557,6.557,0,0,1-.2,1.426,7.694,7.694,0,0,1-6.835,5.827,6.529,6.529,0,0,1-1.44-.027,1.3,1.3,0,0,1-.514-.125c.007-.068.75.049,1.923-.114a7.954,7.954,0,0,0,6.608-5.633C258.441,266.884,258.443,266.131,258.511,266.135Z" transform="translate(-249.564 -266.135)"/>
            </g>
          </g>
          <g id="Grupo_544" data-name="Grupo 544" transform="translate(42.541 4.551)">
            <g id="Grupo_543" data-name="Grupo 543">
              <path id="Trazado_178" data-name="Trazado 178" class="cls-5" d="M279.032,264.311a2.939,2.939,0,0,1,.042.756c0,.485-.008,1.188-.028,2.055-.04,1.734-.122,4.129-.235,6.773a14.14,14.14,0,0,1-.429,3.745,4.021,4.021,0,0,1-2.073,2.283,9.113,9.113,0,0,1-1.955.694,2.714,2.714,0,0,1-.747.131,3.126,3.126,0,0,1,.705-.273,11.322,11.322,0,0,0,1.869-.788,3.806,3.806,0,0,0,1.87-2.159,14.868,14.868,0,0,0,.381-3.649c.114-2.644.237-5.038.346-6.769.054-.866.1-1.566.148-2.05A2.924,2.924,0,0,1,279.032,264.311Z" transform="translate(-273.607 -264.311)"/>
            </g>
          </g>
          <g id="Grupo_546" data-name="Grupo 546" transform="translate(43.295 6.046)">
            <g id="Grupo_545" data-name="Grupo 545">
              <path id="Trazado_179" data-name="Trazado 179" class="cls-5" d="M275.329,266.607c-.011-.017.057-.1.237-.174a1.221,1.221,0,0,1,.8,0,1.385,1.385,0,0,1,.877.84,1.389,1.389,0,0,1-1.942,1.6,1.383,1.383,0,0,1-.654-1.023,1.219,1.219,0,0,1,.154-.79c.1-.162.2-.213.216-.2a1.782,1.782,0,0,0-.106.943,1.16,1.16,0,0,0,.557.763,1.067,1.067,0,0,0,1.442-1.185,1.164,1.164,0,0,0-.641-.694A1.781,1.781,0,0,0,275.329,266.607Z" transform="translate(-274.644 -266.366)"/>
            </g>
          </g>
          <g id="Grupo_548" data-name="Grupo 548" transform="translate(7.879 114.63)">
            <g id="Grupo_547" data-name="Grupo 547">
              <path id="Trazado_180" data-name="Trazado 180" class="cls-5" d="M228.288,417.606c-.069.079-.64-.313-1.275-.874s-1.094-1.08-1.025-1.159.64.313,1.276.875S228.358,417.527,228.288,417.606Z" transform="translate(-225.982 -415.563)"/>
            </g>
          </g>
          <g id="Grupo_550" data-name="Grupo 550" transform="translate(18.223 100.835)">
            <g id="Grupo_549" data-name="Grupo 549">
              <path id="Trazado_181" data-name="Trazado 181" class="cls-5" d="M243.089,396.611a16.351,16.351,0,0,1-2.887,4.042,16.366,16.366,0,0,1,2.887-4.042Z" transform="translate(-240.194 -396.608)"/>
            </g>
          </g>
          <g id="Grupo_552" data-name="Grupo 552" transform="translate(15.263 87.276)">
            <g id="Grupo_551" data-name="Grupo 551">
              <path id="Trazado_182" data-name="Trazado 182" class="cls-5" d="M237.047,381.728a9.88,9.88,0,0,1-.884-3.75,9.88,9.88,0,0,1,.884,3.75Z" transform="translate(-236.126 -377.978)"/>
            </g>
          </g>
          <g id="Grupo_554" data-name="Grupo 554" transform="translate(22.847 74.554)">
            <g id="Grupo_553" data-name="Grupo 553">
              <path id="Trazado_183" data-name="Trazado 183" class="cls-5" d="M250.016,360.505a13.539,13.539,0,0,1-3.465,2.887,13.5,13.5,0,0,1,3.465-2.887Z" transform="translate(-246.547 -360.498)"/>
            </g>
          </g>
          <g id="Grupo_556" data-name="Grupo 556" transform="translate(20.518 60.701)">
            <g id="Grupo_555" data-name="Grupo 555">
              <path id="Trazado_184" data-name="Trazado 184" class="cls-5" d="M244.814,346.373a17.353,17.353,0,0,1-1.444-4.909,17.353,17.353,0,0,1,1.444,4.909Z" transform="translate(-243.348 -341.463)"/>
            </g>
          </g>
          <g id="Grupo_558" data-name="Grupo 558" transform="translate(27.688 47.973)">
            <g id="Grupo_557" data-name="Grupo 557">
              <path id="Trazado_185" data-name="Trazado 185" class="cls-5" d="M257.588,323.98a20.4,20.4,0,0,1-4.386,3.394,20.388,20.388,0,0,1,4.386-3.394Z" transform="translate(-253.199 -323.974)"/>
            </g>
          </g>
          <g id="Grupo_560" data-name="Grupo 560" transform="translate(26.142 30.961)">
            <g id="Grupo_559" data-name="Grupo 559">
              <path id="Trazado_186" data-name="Trazado 186" class="cls-5" d="M252.115,306.663a9.741,9.741,0,0,1-.866-6.064c.112.007.076,1.383.32,3.048S252.22,306.624,252.115,306.663Z" transform="translate(-251.075 -300.599)"/>
            </g>
          </g>
          <g id="Grupo_562" data-name="Grupo 562" transform="translate(34.5 19.411)">
            <g id="Grupo_561" data-name="Grupo 561">
              <path id="Trazado_187" data-name="Trazado 187" class="cls-5" d="M262.749,287.905a6.732,6.732,0,0,1,0-3.176,6.759,6.759,0,0,1,0,3.176Z" transform="translate(-262.559 -284.729)"/>
            </g>
          </g>
          <g id="Grupo_564" data-name="Grupo 564" transform="translate(50.79 25.188)">
            <g id="Grupo_563" data-name="Grupo 563">
              <path id="Trazado_188" data-name="Trazado 188" class="cls-5" d="M286.656,296.794a4.12,4.12,0,0,1-1.6-4.127c.114,0,.1,1.023.551,2.159C286.042,295.969,286.737,296.715,286.656,296.794Z" transform="translate(-284.941 -292.667)"/>
            </g>
          </g>
          <g id="Grupo_566" data-name="Grupo 566" transform="translate(59.196 16.523)">
            <g id="Grupo_565" data-name="Grupo 565">
              <path id="Trazado_189" data-name="Trazado 189" class="cls-5" d="M296.529,284.227a8.525,8.525,0,0,1,.866-3.465,8.5,8.5,0,0,1-.866,3.465Z" transform="translate(-296.492 -280.761)"/>
            </g>
          </g>
          <g id="Grupo_568" data-name="Grupo 568" transform="translate(50.507 42.234)">
            <g id="Grupo_567" data-name="Grupo 567">
              <path id="Trazado_190" data-name="Trazado 190" class="cls-5" d="M286.316,322.438a28.754,28.754,0,0,1-1.745-6.349,28.647,28.647,0,0,1,1.745,6.349Z" transform="translate(-284.553 -316.088)"/>
            </g>
          </g>
          <g id="Grupo_570" data-name="Grupo 570" transform="translate(57.515 37.06)">
            <g id="Grupo_569" data-name="Grupo 569">
              <path id="Trazado_191" data-name="Trazado 191" class="cls-5" d="M297.381,308.989c.065.082-.6.725-1.478,1.436a5.7,5.7,0,0,1-1.715,1.141c-.066-.081.6-.724,1.477-1.436A5.711,5.711,0,0,1,297.381,308.989Z" transform="translate(-294.183 -308.98)"/>
            </g>
          </g>
          <g id="Grupo_572" data-name="Grupo 572" transform="translate(45.937 65.327)">
            <g id="Grupo_571" data-name="Grupo 571">
              <path id="Trazado_192" data-name="Trazado 192" class="cls-5" d="M282.337,351.27a18.814,18.814,0,0,1-4.06-3.445,18.77,18.77,0,0,1,4.06,3.445Z" transform="translate(-278.274 -347.82)"/>
            </g>
          </g>
          <g id="Grupo_574" data-name="Grupo 574" transform="translate(54.607 59.493)">
            <g id="Grupo_573" data-name="Grupo 573">
              <path id="Trazado_193" data-name="Trazado 193" class="cls-5" d="M293.945,339.847c.017.111-.984.287-2.014.937-1.039.633-1.643,1.451-1.735,1.386a4.1,4.1,0,0,1,3.749-2.322Z" transform="translate(-290.186 -339.803)"/>
            </g>
          </g>
          <g id="Grupo_576" data-name="Grupo 576" transform="translate(55.668 77.72)">
            <g id="Grupo_575" data-name="Grupo 575">
              <path id="Trazado_194" data-name="Trazado 194" class="cls-5" d="M291.675,371.205a27.577,27.577,0,0,1,1.126-6.357,27.577,27.577,0,0,1-1.126,6.357Z" transform="translate(-291.644 -364.848)"/>
            </g>
          </g>
          <g id="Grupo_578" data-name="Grupo 578" transform="translate(46.386 81.783)">
            <g id="Grupo_577" data-name="Grupo 577">
              <path id="Trazado_195" data-name="Trazado 195" class="cls-5" d="M279.272,375.916a20,20,0,0,1-.287-5.486,20,20,0,0,1,.287,5.486Z" transform="translate(-278.891 -370.43)"/>
            </g>
          </g>
          <g id="Grupo_580" data-name="Grupo 580" transform="translate(45.35 97.299)">
            <g id="Grupo_579" data-name="Grupo 579">
              <path id="Trazado_196" data-name="Trazado 196" class="cls-5" d="M281.8,391.772a13.834,13.834,0,0,1-4.337,1.427,13.854,13.854,0,0,1,4.337-1.427Z" transform="translate(-277.467 -391.749)"/>
            </g>
          </g>
          <g id="Grupo_582" data-name="Grupo 582" transform="translate(53.658 107.761)">
            <g id="Grupo_581" data-name="Grupo 581">
              <path id="Trazado_197" data-name="Trazado 197" class="cls-5" d="M288.972,409.885a4.039,4.039,0,0,1,1.444-3.754c.084.074-.48.791-.869,1.821S289.084,409.887,288.972,409.885Z" transform="translate(-288.882 -406.125)"/>
            </g>
          </g>
          <g id="Grupo_584" data-name="Grupo 584" transform="translate(45.613 115.87)">
            <g id="Grupo_583" data-name="Grupo 583">
              <path id="Trazado_198" data-name="Trazado 198" class="cls-5" d="M280.741,423.324a29.8,29.8,0,0,1-2.9-6.057,29.85,29.85,0,0,1,2.9,6.057Z" transform="translate(-277.828 -417.266)"/>
            </g>
          </g>
        </g>
        <g id="Grupo_587" data-name="Grupo 587" transform="translate(54.436 70.668)">
          <g id="Grupo_586" data-name="Grupo 586">
            <path id="Trazado_199" data-name="Trazado 199" class="cls-6" d="M289.951,222.783" transform="translate(-289.951 -222.783)"/>
          </g>
        </g>
        <g id="Grupo_626" data-name="Grupo 626" transform="translate(44.539 13.87)">
          <g id="Grupo_589" data-name="Grupo 589" transform="translate(22.259 29.567)">
            <g id="Grupo_588" data-name="Grupo 588">
              <rect id="Rectángulo_36" data-name="Rectángulo 36" class="cls-7" width="52.602" height="55" transform="matrix(0.996, -0.087, 0.087, 0.996, 0, 4.595)"/>
            </g>
          </g>
          <g id="Grupo_590" data-name="Grupo 590" transform="translate(6.36 31.75)">
            <rect id="Rectángulo_37" data-name="Rectángulo 37" class="cls-7" width="43.573" height="55" transform="translate(0 3.806) rotate(-5.011)"/>
          </g>
          <g id="Grupo_591" data-name="Grupo 591" transform="translate(23.471 35.264)">
            <path id="Trazado_200" data-name="Trazado 200" class="cls-8" d="M308.6,195.785l5.01,53.023,6.858-.6-5.707-52.962Z" transform="translate(-308.602 -195.245)"/>
          </g>
          <g id="Grupo_593" data-name="Grupo 593" transform="translate(7.407 48.835)">
            <g id="Grupo_592" data-name="Grupo 592">
              <path id="Trazado_201" data-name="Trazado 201" class="cls-8" d="M288.167,230.7c0-.039.41-.025,1.135-.125a9.463,9.463,0,0,0,2.929-.922,8.934,8.934,0,0,0,3.37-2.977,8.252,8.252,0,0,0,1.29-5.284,7.987,7.987,0,0,0-2.247-4.942,8.241,8.241,0,0,0-6.995-2.256c-.722.114-1.106.26-1.119.221,0-.012.089-.055.271-.124a5.475,5.475,0,0,1,.82-.243,7.811,7.811,0,0,1,3.142,0,8.335,8.335,0,0,1,4.125,2.158,8.225,8.225,0,0,1,2.38,5.156,8.49,8.49,0,0,1-1.378,5.512,8.984,8.984,0,0,1-3.542,3.023,8.793,8.793,0,0,1-3.03.829,6.258,6.258,0,0,1-.855.013A.888.888,0,0,1,288.167,230.7Z" transform="translate(-286.53 -213.893)"/>
            </g>
          </g>
          <g id="Grupo_595" data-name="Grupo 595" transform="translate(38.654 47.121)">
            <g id="Grupo_594" data-name="Grupo 594">
              <path id="Trazado_202" data-name="Trazado 202" class="cls-8" d="M345.111,219.421a16.718,16.718,0,0,0-.314-1.869,7.7,7.7,0,0,0-2.82-4.167,7.57,7.57,0,0,0-7.168-1.058,7.586,7.586,0,0,0-3.5,2.636,7.517,7.517,0,0,0,0,8.916,7.573,7.573,0,0,0,3.5,2.637,7.574,7.574,0,0,0,7.168-1.058,7.7,7.7,0,0,0,2.82-4.168,16.688,16.688,0,0,0,.314-1.869,5.988,5.988,0,0,1-.17,1.9,7.7,7.7,0,0,1-2.8,4.345,7.776,7.776,0,0,1-3.3,1.5,7.893,7.893,0,0,1-4.148-.323,7.89,7.89,0,0,1-3.682-2.745,7.856,7.856,0,0,1,0-9.356A7.9,7.9,0,0,1,334.69,212a7.893,7.893,0,0,1,4.148-.323,7.8,7.8,0,0,1,6.1,5.841A5.989,5.989,0,0,1,345.111,219.421Z" transform="translate(-329.464 -211.537)"/>
            </g>
          </g>
          <g id="Grupo_597" data-name="Grupo 597" transform="translate(69.065 46.571)">
            <g id="Grupo_596" data-name="Grupo 596">
              <path id="Trazado_203" data-name="Trazado 203" class="cls-8" d="M379.167,210.812a10.162,10.162,0,0,0-3.37.929,7.635,7.635,0,0,0,0,13.6,10.2,10.2,0,0,0,3.369.93c0,.013-.085.021-.247.025a5.376,5.376,0,0,1-.713-.017,7.363,7.363,0,0,1-2.528-.7,7.694,7.694,0,0,1-2.98-2.505A7.951,7.951,0,0,1,371.649,221a8.428,8.428,0,0,1-.4-2.464,7.9,7.9,0,0,1,1.451-4.533,7.7,7.7,0,0,1,2.98-2.505,7.343,7.343,0,0,1,2.528-.7,5.275,5.275,0,0,1,.713-.017C379.082,210.79,379.167,210.8,379.167,210.812Z" transform="translate(-371.249 -210.781)"/>
            </g>
          </g>
          <g id="Grupo_599" data-name="Grupo 599" transform="translate(57 68.343)">
            <g id="Grupo_598" data-name="Grupo 598">
              <path id="Trazado_204" data-name="Trazado 204" class="cls-8" d="M370.319,248.58a16.475,16.475,0,0,0-.314-1.869,7.7,7.7,0,0,0-2.82-4.168,7.572,7.572,0,0,0-7.168-1.057,7.573,7.573,0,0,0-3.5,2.636,7.517,7.517,0,0,0,0,8.916,7.583,7.583,0,0,0,3.5,2.638,7.574,7.574,0,0,0,7.169-1.059,7.7,7.7,0,0,0,2.82-4.167,16.55,16.55,0,0,0,.313-1.869,5.987,5.987,0,0,1-.17,1.9,7.691,7.691,0,0,1-2.8,4.345,7.773,7.773,0,0,1-3.3,1.5A7.9,7.9,0,0,1,359.9,256a7.907,7.907,0,0,1-3.682-2.746,7.858,7.858,0,0,1,0-9.356,7.9,7.9,0,0,1,3.681-2.744,7.885,7.885,0,0,1,4.148-.323,7.8,7.8,0,0,1,6.1,5.841A5.987,5.987,0,0,1,370.319,248.58Z" transform="translate(-354.672 -240.697)"/>
            </g>
          </g>
          <g id="Grupo_601" data-name="Grupo 601" transform="translate(21.675 80.795)">
            <g id="Grupo_600" data-name="Grupo 600">
              <path id="Trazado_205" data-name="Trazado 205" class="cls-8" d="M321.606,264.756a10.185,10.185,0,0,0-1.343-3.227,7.634,7.634,0,0,0-13.492,1.7,10.17,10.17,0,0,0-.5,3.458c-.013,0-.032-.082-.056-.242a5.346,5.346,0,0,1-.072-.709,7.373,7.373,0,0,1,.378-2.6,7.693,7.693,0,0,1,2.114-3.268,7.947,7.947,0,0,1,1.924-1.3,8.431,8.431,0,0,1,2.394-.7,7.9,7.9,0,0,1,4.679.874,7.7,7.7,0,0,1,2.857,2.643,7.365,7.365,0,0,1,1.008,2.422,5.337,5.337,0,0,1,.106.7C321.617,264.668,321.618,264.754,321.606,264.756Z" transform="translate(-306.134 -257.806)"/>
            </g>
          </g>
          <g id="Grupo_603" data-name="Grupo 603" transform="translate(48.35 23.854)">
            <g id="Grupo_602" data-name="Grupo 602">
              <path id="Trazado_206" data-name="Trazado 206" class="cls-8" d="M358.433,187.451a16.513,16.513,0,0,0-.314-1.87,7.7,7.7,0,0,0-2.82-4.167,7.574,7.574,0,0,0-7.168-1.058,7.581,7.581,0,0,0-3.5,2.637,7.517,7.517,0,0,0,0,8.916,7.588,7.588,0,0,0,3.5,2.637,7.571,7.571,0,0,0,7.169-1.058,7.705,7.705,0,0,0,2.82-4.168,16.6,16.6,0,0,0,.313-1.868,5.988,5.988,0,0,1-.17,1.9,7.693,7.693,0,0,1-2.8,4.345,7.782,7.782,0,0,1-3.3,1.5,7.9,7.9,0,0,1-4.148-.323,7.9,7.9,0,0,1-3.682-2.745,7.859,7.859,0,0,1,0-9.356,7.9,7.9,0,0,1,3.681-2.744,7.893,7.893,0,0,1,4.148-.323,7.773,7.773,0,0,1,3.3,1.5,7.693,7.693,0,0,1,2.8,4.345A5.992,5.992,0,0,1,358.433,187.451Z" transform="translate(-342.786 -179.567)"/>
            </g>
          </g>
          <g id="Grupo_605" data-name="Grupo 605" transform="translate(15.12 25.629)">
            <g id="Grupo_604" data-name="Grupo 604">
              <path id="Trazado_207" data-name="Trazado 207" class="cls-8" d="M312.775,189.89a16.57,16.57,0,0,0-.313-1.869,7.7,7.7,0,0,0-2.821-4.168,7.572,7.572,0,0,0-7.168-1.057,7.573,7.573,0,0,0-3.5,2.636,7.518,7.518,0,0,0,0,8.916,7.581,7.581,0,0,0,3.5,2.637,7.57,7.57,0,0,0,7.169-1.058,7.7,7.7,0,0,0,2.82-4.167,16.571,16.571,0,0,0,.313-1.869,5.989,5.989,0,0,1-.17,1.9,7.793,7.793,0,0,1-6.1,5.841,7.878,7.878,0,0,1-4.148-.323,7.89,7.89,0,0,1-3.682-2.745,7.857,7.857,0,0,1,0-9.356,7.895,7.895,0,0,1,3.682-2.744,7.875,7.875,0,0,1,4.147-.323,7.772,7.772,0,0,1,3.3,1.5,7.691,7.691,0,0,1,2.8,4.345A5.994,5.994,0,0,1,312.775,189.89Z" transform="translate(-297.128 -182.007)"/>
            </g>
          </g>
          <g id="Grupo_606" data-name="Grupo 606" transform="translate(61.265 31.861)">
            <path id="Trazado_208" data-name="Trazado 208" class="cls-9" d="M360.533,191.2l5.227,53,7.39-.648L367.7,190.569Z" transform="translate(-360.533 -190.569)"/>
          </g>
          <g id="Grupo_611" data-name="Grupo 611" transform="translate(17.54)">
            <g id="Grupo_608" data-name="Grupo 608" transform="translate(22.545 0.324)">
              <g id="Grupo_607" data-name="Grupo 607">
                <path id="Trazado_209" data-name="Trazado 209" class="cls-9" d="M331.6,164.821c-.012-.262.719-.544,2.042-.84s3.238-.6,5.542-1.048c1.151-.225,2.4-.491,3.7-.842.65-.178,1.319-.368,1.991-.6a19.089,19.089,0,0,0,1.956-.74,1.948,1.948,0,0,0,.956-.728.572.572,0,0,0,.009-.263,3.978,3.978,0,0,0-.207-.8,35.288,35.288,0,0,0-1.89-4.632,11.57,11.57,0,0,0-1.269-1.917,10.391,10.391,0,0,0-.731-.77,4.026,4.026,0,0,0-.694-.515,1.325,1.325,0,0,0-1.038-.2,3.94,3.94,0,0,0-1.392.878,27.533,27.533,0,0,0-5.148,5.973c-2.436,3.856-3.094,6.78-3.664,6.684-.247-.036-.41-.819-.3-2.222a18.164,18.164,0,0,1,1.6-5.73,24.319,24.319,0,0,1,5.147-7.277,7.149,7.149,0,0,1,2.661-1.757,4.713,4.713,0,0,1,2.023-.209,5.431,5.431,0,0,1,1.848.581,7.483,7.483,0,0,1,1.435.988,12.9,12.9,0,0,1,1.119,1.131,14.435,14.435,0,0,1,1.744,2.579,32.276,32.276,0,0,1,2.079,5.276,7.1,7.1,0,0,1,.337,1.7A4.071,4.071,0,0,1,351,161.7a4.386,4.386,0,0,1-1.367,1.508,6.952,6.952,0,0,1-1.406.752,19.3,19.3,0,0,1-2.432.742c-.77.2-1.523.34-2.25.465a34.981,34.981,0,0,1-4.04.43,37.39,37.39,0,0,1-5.784-.139C332.365,165.3,331.614,165.082,331.6,164.821Z" transform="translate(-331.43 -147.237)"/>
              </g>
            </g>
            <g id="Grupo_610" data-name="Grupo 610">
              <g id="Grupo_609" data-name="Grupo 609">
                <path id="Trazado_210" data-name="Trazado 210" class="cls-8" d="M324.1,165.024c-.021.261-.87.447-2.392.551a50.3,50.3,0,0,1-6.461-.055,46.364,46.364,0,0,1-9.6-1.614,11.654,11.654,0,0,1-2.959-1.205,5,5,0,0,1-1.589-1.494,3.993,3.993,0,0,1-.63-2.518,7.3,7.3,0,0,1,.458-1.9q.261-.712.525-1.435a23.429,23.429,0,0,1,1.357-3,13.387,13.387,0,0,1,2.067-2.845,11.967,11.967,0,0,1,1.32-1.184,8.093,8.093,0,0,1,1.63-.972,6.093,6.093,0,0,1,3.959-.384,8.189,8.189,0,0,1,3.051,1.6A28.8,28.8,0,0,1,321.424,156a19.361,19.361,0,0,1,2.507,6.169c.295,1.551.2,2.437-.044,2.489-.57.139-1.463-3.1-4.669-7.137a32.862,32.862,0,0,0-6.468-6.158,4.934,4.934,0,0,0-1.785-.873,2.486,2.486,0,0,0-1.606.242,4.569,4.569,0,0,0-.868.551,8.622,8.622,0,0,0-.881.82,10.242,10.242,0,0,0-1.483,2.079,22.055,22.055,0,0,0-1.16,2.535l-.521,1.354a4.343,4.343,0,0,0-.277.926c-.009.18-.015.147.02.23a1.411,1.411,0,0,0,.451.426,8.912,8.912,0,0,0,2.061.924,66.506,66.506,0,0,0,8.894,2.287c2.605.514,4.753.888,6.231,1.242S324.118,164.763,324.1,165.024Z" transform="translate(-300.453 -146.792)"/>
              </g>
            </g>
          </g>
          <g id="Grupo_612" data-name="Grupo 612" transform="translate(17.331 12.473)">
            <rect id="Rectángulo_38" data-name="Rectángulo 38" class="cls-7" width="64.048" height="18.204" transform="translate(0 5.595) rotate(-5.011)"/>
          </g>
          <g id="Grupo_613" data-name="Grupo 613" transform="translate(0 14.531)">
            <rect id="Rectángulo_39" data-name="Rectángulo 39" class="cls-7" width="57.894" height="18.204" transform="matrix(0.996, -0.087, 0.087, 0.996, 0, 5.057)"/>
          </g>
          <g id="Grupo_614" data-name="Grupo 614" transform="translate(17.694 17.452)">
            <path id="Trazado_211" data-name="Trazado 211" class="cls-8" d="M300.664,171.355l1.862,18.2,6.719-.676-1.918-18.106Z" transform="translate(-300.664 -170.771)"/>
          </g>
          <g id="Grupo_615" data-name="Grupo 615" transform="translate(65.492 13.175)">
            <path id="Trazado_212" data-name="Trazado 212" class="cls-9" d="M366.34,165.655l2.093,18.015,7.395-.65-1.846-18.126Z" transform="translate(-366.34 -164.894)"/>
          </g>
          <g id="Grupo_617" data-name="Grupo 617" transform="translate(30.375 15.73)">
            <g id="Grupo_616" data-name="Grupo 616">
              <path id="Trazado_213" data-name="Trazado 213" class="cls-8" d="M318.1,170.129a10.187,10.187,0,0,0,1.3,3.244,7.634,7.634,0,0,0,13.513-1.517,10.185,10.185,0,0,0,.549-3.451c.012,0,.031.082.053.242a5.578,5.578,0,0,1,.063.71,7.36,7.36,0,0,1-.413,2.59,7.691,7.691,0,0,1-2.156,3.24,7.945,7.945,0,0,1-1.941,1.276,8.417,8.417,0,0,1-2.4.672,7.9,7.9,0,0,1-4.667-.936,7.694,7.694,0,0,1-2.822-2.681,7.359,7.359,0,0,1-.977-2.434,5.385,5.385,0,0,1-.1-.706C318.086,170.216,318.085,170.131,318.1,170.129Z" transform="translate(-318.089 -168.405)"/>
            </g>
          </g>
          <g id="Grupo_619" data-name="Grupo 619" transform="translate(21.856 27.258)">
            <g id="Grupo_618" data-name="Grupo 618">
              <path id="Trazado_214" data-name="Trazado 214" class="cls-8" d="M321.863,191.3a10.167,10.167,0,0,0-1.3-3.244,7.635,7.635,0,0,0-13.513,1.517,10.145,10.145,0,0,0-.548,3.451c-.013,0-.031-.082-.053-.243a5.293,5.293,0,0,1-.063-.71,7.354,7.354,0,0,1,.412-2.59,7.7,7.7,0,0,1,2.157-3.241,7.929,7.929,0,0,1,1.941-1.275,8.412,8.412,0,0,1,2.4-.672,7.906,7.906,0,0,1,4.667.935,7.7,7.7,0,0,1,2.822,2.682,7.356,7.356,0,0,1,.976,2.434,5.364,5.364,0,0,1,.1.706C321.876,191.209,321.876,191.294,321.863,191.3Z" transform="translate(-306.383 -184.244)"/>
            </g>
          </g>
          <g id="Grupo_621" data-name="Grupo 621" transform="translate(52.864 15.575)">
            <g id="Grupo_620" data-name="Grupo 620">
              <path id="Trazado_215" data-name="Trazado 215" class="cls-8" d="M364.635,176.075a16.556,16.556,0,0,0-.313-1.869,7.7,7.7,0,0,0-2.821-4.168,7.571,7.571,0,0,0-7.168-1.057,7.573,7.573,0,0,0-3.5,2.636,7.518,7.518,0,0,0,0,8.916,7.581,7.581,0,0,0,3.5,2.637,7.571,7.571,0,0,0,7.169-1.058,7.7,7.7,0,0,0,2.82-4.167,16.557,16.557,0,0,0,.313-1.869,5.988,5.988,0,0,1-.17,1.9,7.793,7.793,0,0,1-6.1,5.841,7.881,7.881,0,0,1-4.148-.323,7.893,7.893,0,0,1-3.681-2.745,7.857,7.857,0,0,1,0-9.356,7.885,7.885,0,0,1,3.681-2.744,7.878,7.878,0,0,1,4.148-.323,7.772,7.772,0,0,1,3.3,1.5,7.691,7.691,0,0,1,2.8,4.345A5.993,5.993,0,0,1,364.635,176.075Z" transform="translate(-348.988 -168.192)"/>
            </g>
          </g>
          <g id="Grupo_623" data-name="Grupo 623" transform="translate(2.717 19.223)">
            <g id="Grupo_622" data-name="Grupo 622">
              <path id="Trazado_216" data-name="Trazado 216" class="cls-8" d="M295.732,181.088a16.475,16.475,0,0,0-.314-1.869,7.7,7.7,0,0,0-2.82-4.168,7.572,7.572,0,0,0-7.168-1.057,7.572,7.572,0,0,0-3.5,2.636,7.517,7.517,0,0,0,0,8.916,7.565,7.565,0,0,0,3.5,2.637,7.571,7.571,0,0,0,7.169-1.058,7.7,7.7,0,0,0,2.82-4.167,16.547,16.547,0,0,0,.313-1.869,5.988,5.988,0,0,1-.17,1.9,7.691,7.691,0,0,1-2.8,4.345,7.772,7.772,0,0,1-3.3,1.5,7.886,7.886,0,0,1-4.148-.324,7.89,7.89,0,0,1-3.682-2.745,7.858,7.858,0,0,1,0-9.356,7.9,7.9,0,0,1,3.681-2.744,7.885,7.885,0,0,1,4.148-.323,7.8,7.8,0,0,1,6.1,5.84A5.993,5.993,0,0,1,295.732,181.088Z" transform="translate(-280.085 -173.205)"/>
            </g>
          </g>
          <g id="Grupo_624" data-name="Grupo 624" class="cls-10" transform="translate(6.512 31.301)">
            <path id="Trazado_217" data-name="Trazado 217" d="M353.611,189.8l-24.9,2.184L285.3,195.79l43.938,2.25,4.121,47,24.893-2.183Z" transform="translate(-285.3 -189.8)"/>
          </g>
          <g id="Grupo_625" data-name="Grupo 625" class="cls-11" transform="translate(57.673 12.473)">
            <rect id="Rectángulo_40" data-name="Rectángulo 40" width="23.551" height="18.204" transform="matrix(0.996, -0.087, 0.087, 0.996, 0, 2.057)"/>
          </g>
        </g>
        <g id="Grupo_630" data-name="Grupo 630" transform="translate(13.672 45.48)">
          <g id="Grupo_628" data-name="Grupo 628" transform="translate(2.986 14.61)">
            <g id="Grupo_627" data-name="Grupo 627">
              <path id="Trazado_218" data-name="Trazado 218" class="cls-1" d="M298.777,228.579a8.289,8.289,0,0,1-1.272,1.916,5.428,5.428,0,0,1-1.392,1.21q-.371.223-.708.412a6.413,6.413,0,0,1-3.43.814c-5.258-.231-21.147-.977-24.189-1.715-3.657-.888-19.548-22.57-19.548-22.57l-10.194,7.174s11.273,19.861,20.605,26.5c5.935,4.224,36.965-.5,36.99-.5a67.251,67.251,0,0,0,7.207.886c3.394.09,3.407-.215,3.35-.611-.154-1.067-5.965-.384-4.8-1.255s7.2-.009,7-1.116c-.268-1.444-6.338-.618-6.858-.586-.5.031-.583-.717-.113-.721.675-.006,7.771-.238,7.522-1.659-.139-.787-1.53-.408-1.53-.408s-6.623.707-6.718.032,3.777-1.231,5.1-1.322c1.3-.09,1.791-.747,1.271-1.292-.354-.371-4.4-.186-5.705-.065s-4.87.517-3.27-1.109,2.217-3.478,2.035-4.1A.714.714,0,0,0,298.777,228.579Z" transform="translate(-238.044 -208.645)"/>
            </g>
          </g>
          <g id="Grupo_629" data-name="Grupo 629">
            <path id="Trazado_219" data-name="Trazado 219" class="cls-5" d="M238.859,188.571a20.831,20.831,0,0,0-3.109,21.98l7.195,11.759,14.588-11.043Z" transform="translate(-233.941 -188.571)"/>
          </g>
        </g>
        <g id="Grupo_631" data-name="Grupo 631" transform="translate(118.422 46.021)">
          <path id="Trazado_220" data-name="Trazado 220" class="cls-1" d="M382.2,190.521c-.424-.835-1.237-1.355-1.965-.829h0a1.423,1.423,0,0,0-.063,1.393l3.707,7.826,0,.008-3.226-5.445c-.424-.834-1.3-1.247-1.775-.691a1.474,1.474,0,0,0,0,1.357l3.162,6.483-2.386-3.993c-.511-.917-.983-1.113-1.445-.83s-.372,1.007-.194,1.37l2.227,4.8c-.182,1.009-.849,4.207.465,5.761.067.079-.052.383-.036.478l-.421.652,1.011,6.036c2.618-1.5,4.821-11.708,4.962-14.173a7.658,7.658,0,0,0-.777-4.065Z" transform="translate(-377.869 -189.48)"/>
        </g>
        <g id="Grupo_633" data-name="Grupo 633" transform="translate(21.219 43.536)">
          <g id="Grupo_632" data-name="Grupo 632">
            <path id="Trazado_221" data-name="Trazado 221" class="cls-12" d="M244.311,187.553" transform="translate(-244.311 -187.553)"/>
          </g>
        </g>
      </g>
    </g>
  </g>
</svg>
