<svg id="Grupo_815" data-name="Grupo 815" xmlns="http://www.w3.org/2000/svg" width="127.98" height="241.798" viewBox="0 0 127.98 241.798">
  <defs>
    <style>
      .cls-1 {
        fill: #ffb8b8;
      }

      .cls-2 {
        fill: #2f2e41;
      }

      .cls-3 {
        fill: #6c63ff;
      }
    </style>
  </defs>
  <path id="Trazado_638" data-name="Trazado 638" class="cls-1" d="M432.161,434.688l-8.856,4.5c-3.161,1.605-6.211,1.331-7.38-2.016h0a5.856,5.856,0,0,1,4.454-7.686l8.417-1.571,36.048-11.96,21.836-15.484,8,12.753-25.231,13.615Z" transform="translate(-415.598 -352.644)"/>
  <path id="Trazado_639" data-name="Trazado 639" class="cls-1" d="M156.387,689.679l-6.776-1.13.753-12.8h7.152Z" transform="translate(-98.483 -458.363)"/>
  <path id="Trazado_640" data-name="Trazado 640" class="cls-1" d="M23.511,664.152,16.953,666.2l-5.1-11.764,6.385-3.223Z" transform="translate(100.155 -445.337)"/>
  <path id="Trazado_641" data-name="Trazado 641" class="cls-2" d="M432.581,338.007c-12.9-5.487-28.97-2.011-44.663.4-.146-2.922-1.916-6.479-.062-8.517,2.253-2.477,2.045-5.079.69-7.7-3.466-6.693,1.5-13.815,6.514-19.736a11.106,11.106,0,0,1,9.269-3.89l9.289.663a11.124,11.124,0,0,1,9.878,7.951h0c2.218,3.017,3.405,6.025,2.658,9.017,3.322,2.27,3.88,5.011,2.388,8.1a4.656,4.656,0,0,0,.058,5.68,26.225,26.225,0,0,1,3.9,7.745Z" transform="translate(-340.083 -298.54)"/>
  <path id="Trazado_642" data-name="Trazado 642" class="cls-2" d="M403.632,603.024l-8.281,3.388-39.525-51.947L343.4,615.446l-8.281-1.506c-5.312-52.574-9.644-106.2-4.329-131.562l30.679-1.318L375.4,525.48l6.776,30.114Z" transform="translate(-283.618 -395.423)"/>
  <path id="Trazado_643" data-name="Trazado 643" class="cls-2" d="M467.785,796.014h0a5.947,5.947,0,0,1-3.686-.392l-4.025-1.811c-3.375-.173-5.673.5-7.552-1.953a4.925,4.925,0,0,1-.575-4.965h0a4.959,4.959,0,0,1,4.05-2.947l5.529-3.484.29,2.612c2.527,1.432,5.527.813,8.706-.58l1.735,6.073a5.945,5.945,0,0,1-4.471,7.447Z" transform="translate(-410.254 -554.348)"/>
  <path id="Trazado_644" data-name="Trazado 644" class="cls-2" d="M326.691,771.585h0a5.946,5.946,0,0,1-3.613.826l-4.4-.406c-3.248.932-5.2,2.314-7.777.605a4.925,4.925,0,0,1-2.156-4.509h0a4.959,4.959,0,0,1,2.873-4.1l4.1-5.09,1.122,2.376c2.855.533,5.491-1.026,8.045-3.376l3.613,5.181a5.946,5.946,0,0,1-1.811,8.5Z" transform="translate(-201.591 -542.376)"/>
  <ellipse id="Elipse_40" data-name="Elipse 40" class="cls-1" cx="13.551" cy="13.551" rx="13.551" ry="13.551" transform="translate(53.01 5.082)"/>
  <path id="Trazado_645" data-name="Trazado 645" class="cls-1" d="M118.215,289.269,100.523,285.5l-2.259-14.681,12.422-2.635Z" transform="translate(-35.091 -242.027)"/>
  <path id="Trazado_646" data-name="Trazado 646" class="cls-3" d="M429.487,430.925h-31.62l7.127-17.894c-.518-6.157,2.092-10.686,5.827-14.628l4.738-11.9c7.656-5.039,13.428-4.662,19.574,1.882C442.421,398.707,437.377,414.217,429.487,430.925Z" transform="translate(-351.257 -343.405)"/>
  <path id="Trazado_647" data-name="Trazado 647" class="cls-1" d="M426.9,493.282l-.9,9.892c-.321,3.531-2.175,5.969-5.631,5.179h0a5.856,5.856,0,0,1-4.142-7.859l3.144-7.964,9.034-36.89L426.9,428.913h15.057l-1.882,28.609Z" transform="translate(-362.975 -367.743)"/>
  <path id="Trazado_648" data-name="Trazado 648" class="cls-2" d="M433.66,338.371c-1.457-13.2-5.19-24.443-11.669-33.321l-.97-.033v-.24l-3.149.134-8.757-.294c.205.213.4.427.6.641l-6.385.272-6.023,12.422a40.005,40.005,0,0,1,17.827-1.012,4.263,4.263,0,0,1,3.331,2.655,1.586,1.586,0,0,1-.011,1.4c-2.531,4.415-2.405,9.263.167,14.354.562,1.111-.517,2.449-.855,3.675Z" transform="translate(-347.239 -301.766)"/>
  <path id="Trazado_649" data-name="Trazado 649" class="cls-3" d="M430.728,409.235H413.413l1.214-11.3a7.836,7.836,0,0,1,7.438-7.507h0a7.836,7.836,0,0,1,8.221,7.519Z" transform="translate(-350.616 -347.312)"/>
</svg>
