<svg xmlns="http://www.w3.org/2000/svg" width="210.108" height="255.505" viewBox="0 0 210.108 255.505">
  <defs>
    <style>
      .cls-1 {
        fill: #ed8a2f;
      }

      .cls-2 {
        fill: #ffa348;
      }

      .cls-3 {
        fill: #8b43ff;
      }

      .cls-4 {
        fill: #f7b6a4;
      }

      .cls-5 {
        fill: #280e1d;
      }

      .cls-6 {
        fill: #e38480;
      }

      .cls-7 {
        fill: #351429;
      }

      .cls-8 {
        fill: #fff;
      }
    </style>
  </defs>
  <g id="Grupo_806" data-name="Grupo 806" transform="translate(-87 364)">
    <g id="buen_perfil" data-name="buen perfil" transform="translate(87 -364)">
      <g id="Grupo_805" data-name="Grupo 805">
        <g id="Grupo_775" data-name="Grupo 775" transform="translate(55.541)">
          <g id="Grupo_774" data-name="Grupo 774">
            <path id="Trazado_561" data-name="Trazado 561" class="cls-1" d="M178.216,84.186l-13.1-38.05,31.744,11.292L214.627,30.98V76.522s-12.958-1.535-36.411,7.663" transform="translate(-165.114 -30.98)"/>
            <path id="Trazado_562" data-name="Trazado 562" class="cls-1" d="M286.411,84.186l13.1-38.05L267.769,57.427,250,30.98V76.522s12.958-1.535,36.411,7.663" transform="translate(-200.487 -30.98)"/>
          </g>
          <path id="Trazado_563" data-name="Trazado 563" class="cls-2" d="M230.884,50.987l11.15,28.947h13.974L238.825,39.169Z" transform="translate(-192.521 -34.392)"/>
          <path id="Trazado_564" data-name="Trazado 564" class="cls-2" d="M295.609,68.825l11.62,24.64,3.963-11.509-7.283-16.084Z" transform="translate(-219.492 -45.52)"/>
          <path id="Trazado_565" data-name="Trazado 565" class="cls-2" d="M181.007,62.616,197.27,93.136l10.5-3.9L194.94,67.572Z" transform="translate(-171.737 -44.163)"/>
        </g>
        <g id="Grupo_791" data-name="Grupo 791" transform="translate(21.606 39.641)">
          <circle id="Elipse_34" data-name="Elipse 34" class="cls-3" cx="78.842" cy="78.842" r="78.842" transform="translate(7.339 1.856)"/>
          <g id="Grupo_790" data-name="Grupo 790" transform="translate(25.017 21.913)">
            <g id="Grupo_788" data-name="Grupo 788" transform="translate(22.832)">
              <g id="Grupo_776" data-name="Grupo 776" transform="translate(24.76 72.005)">
                <path id="Trazado_566" data-name="Trazado 566" class="cls-4" d="M231.98,261.565l-.563,18.539c.88,14,25.745,4.561,24.966.451-.247-1.307-1.278-13.021-1.478-14.495l-.829-6.106Z" transform="translate(-231.417 -259.955)"/>
                <path id="Trazado_567" data-name="Trazado 567" class="cls-5" d="M232.085,263.357l-.271,9.682s16.838.976,23.093-7.712l-.527-4.233Z" transform="translate(-231.582 -260.43)"/>
              </g>
              <g id="Grupo_787" data-name="Grupo 787">
                <g id="Grupo_783" data-name="Grupo 783" transform="translate(4.079 3.418)">
                  <g id="Grupo_777" data-name="Grupo 777">
                    <path id="Trazado_568" data-name="Trazado 568" class="cls-4" d="M223.953,216.526a26.331,26.331,0,0,0,18.957-5.349c8.906-6.993,8.68-13.668,9.86-12.981,1.456.848,4,.548,6.276-7.627,2.035-7.3.306-9.782-1.354-10.173a3.125,3.125,0,0,0-2.244.719s4.522-36.014-22.961-38.526c-34.2-3.126-32.663,28.182-31.3,38.518,0,0-3.194-3.828-4.789,1.306s1.475,16.018,5.291,16.38c.331.031,2.061-.7,2.138-.6C205.2,200.1,208.971,212.776,223.953,216.526Z" transform="translate(-195.961 -142.37)"/>
                  </g>
                  <g id="Grupo_782" data-name="Grupo 782" transform="translate(2.293 35.365)">
                    <g id="Grupo_778" data-name="Grupo 778" transform="translate(0 6.576)">
                      <path id="Trazado_569" data-name="Trazado 569" class="cls-6" d="M202.6,217.829a2.8,2.8,0,0,0-.495,3.049c.807,1.715-.057,2.134-1,1.236s-1.717-5.922-.824-6.963S202.787,216.686,202.6,217.829Z" transform="translate(-199.892 -214.538)"/>
                      <path id="Trazado_570" data-name="Trazado 570" class="cls-6" d="M298.405,216.922a2.8,2.8,0,0,1,.077,3.089c-1.033,1.59-.233,2.122.82,1.36s2.5-5.633,1.761-6.786S298.376,215.766,298.405,216.922Z" transform="translate(-240.775 -214.273)"/>
                    </g>
                    <g id="Grupo_781" data-name="Grupo 781" transform="translate(11.464)">
                      <g id="Grupo_780" data-name="Grupo 780" transform="translate(0)">
                        <ellipse id="Elipse_35" data-name="Elipse 35" class="cls-6" cx="3.312" cy="3.105" rx="3.312" ry="3.105" transform="translate(0 14.499) rotate(-0.518)"/>
                        <g id="Grupo_779" data-name="Grupo 779" transform="translate(15.271 17.122)">
                          <path id="Trazado_571" data-name="Trazado 571" class="cls-6" d="M246.355,235.892a.768.768,0,0,1-.467-1.224c.631-.816,1.9-2.305,2.755-2.313,1.181-.01,2.744,2.219,2.841,2.546s-.108,1.17-2.807,1.147A13.724,13.724,0,0,1,246.355,235.892Z" transform="translate(-245.726 -232.354)"/>
                        </g>
                        <ellipse id="Elipse_36" data-name="Elipse 36" class="cls-5" cx="2.858" cy="3.519" rx="2.858" ry="3.519" transform="translate(5.168 5.187) rotate(-0.518)"/>
                        <path id="Trazado_572" data-name="Trazado 572" class="cls-5" d="M231.8,203s-3.985-.176-4.293,2.025c-.324,2.318,1.567-.274,4.7.306,1.4.259,2.016.112,2.009-.731C234.205,203.1,232.024,203.027,231.8,203Z" transform="translate(-222.848 -202.999)"/>
                        <path id="Trazado_573" data-name="Trazado 573" class="cls-5" d="M268.322,203.5s3.986-.177,4.293,2.025c.324,2.317-1.567-.274-4.7.306-1.4.259-2.016.111-2.009-.731C265.917,203.6,268.1,203.528,268.322,203.5Z" transform="translate(-238.863 -203.208)"/>
                        <ellipse id="Elipse_37" data-name="Elipse 37" class="cls-6" cx="3.105" cy="3.312" rx="3.105" ry="3.312" transform="translate(30.675 19.962) rotate(-85.567)"/>
                        <ellipse id="Elipse_38" data-name="Elipse 38" class="cls-5" cx="3.519" cy="2.858" rx="3.519" ry="2.858" transform="translate(26.752 12.059) rotate(-85.567)"/>
                      </g>
                      <path id="Trazado_574" data-name="Trazado 574" class="cls-5" d="M247.939,248.693h-.108a4.589,4.589,0,0,1-3.978-1.956.785.785,0,0,1,.44-1.185h0a.793.793,0,0,1,.874.322,3.122,3.122,0,0,0,2.69,1.247,4.45,4.45,0,0,0,3.384-1.447.776.776,0,0,1,.967-.129h0a.781.781,0,0,1,.186,1.2A5.974,5.974,0,0,1,247.939,248.693Z" transform="translate(-229.62 -220.681)"/>
                    </g>
                  </g>
                </g>
                <g id="Grupo_786" data-name="Grupo 786">
                  <g id="Grupo_785" data-name="Grupo 785" transform="translate(8.145 2.265)">
                    <g id="Grupo_784" data-name="Grupo 784">
                      <path id="Trazado_575" data-name="Trazado 575" class="cls-5" d="M259.172,151.348A21.153,21.153,0,0,0,245.857,142a72.059,72.059,0,0,0-16.217-1.571,77.447,77.447,0,0,0-12.687,1.618c-3.847.912-10.125,3.628-12.9,7.8-1.988,2.993-.928,25.744.029,31,0,0,.911,8.556,2.413,9.414a14.671,14.671,0,0,0,3.754,1.293s-1.352-15.311,0-21.463c.028-.125.042-.249.059-.373,3.916-2.016,12.957-5.721,21.717-2.484a23.149,23.149,0,0,1,3.6-1.049l.008.031.012-.036c4.19-.894,11.189-1.347,16.46,3.563a4.646,4.646,0,0,0,.106.967c1.352,6.151,0,21.463,0,21.463a14.672,14.672,0,0,0,3.755-1.293c1.5-.858,2.413-9.414,2.413-9.414C259.117,177.9,260.931,154.083,259.172,151.348Z" transform="translate(-202.932 -140.392)"/>
                    </g>
                  </g>
                  <path id="Trazado_576" data-name="Trazado 576" class="cls-7" d="M226.767,138.379s-11.244-4.606-21.571.642c-7.837,3.983-12.8.8-15.181,2.1s-1.411,15.465,10.456,23.546,24.079,4.409,31.691-.034S243.551,142.468,226.767,138.379Z" transform="translate(-188.968 -136.509)"/>
                </g>
              </g>
            </g>
            <g id="Grupo_789" data-name="Grupo 789" transform="translate(0 84.364)">
              <path id="Trazado_577" data-name="Trazado 577" class="cls-5" d="M266.688,309.983c-1.935-4.985-4.25-9.1-7.164-11.57a26,26,0,0,0-5.37-3.291h.008l-.015,0a113.814,113.814,0,0,0-11.508-4.55c-1.584-.671-3.311-1.387-5.316-2.166-5.366-2.086-12.951-7.411-14.185-7.254a1.042,1.042,0,0,0-.551.234,1.122,1.122,0,0,0-.215.246,7.358,7.358,0,0,1-1.185,2.742c-1.77,2.556-4.525,6.6-10.976,6.465-7.452-.154-11.214-2.757-12.832-7.487a15.869,15.869,0,0,1-.536-1.98c-.133-.65-8.555,4.228-15.771,7.033-2,.779-3.731,1.5-5.316,2.166a113.831,113.831,0,0,0-11.508,4.55l-.014,0h.008a26,26,0,0,0-5.37,3.291c-3.923,3.321-6.762,9.633-9.047,17.03,3.387,5.175,10.567,12.971,24.6,17.107h60.888C243.849,328.476,257.844,320.688,266.688,309.983Z" transform="translate(-149.825 -281.144)"/>
              <path id="Trazado_578" data-name="Trazado 578" class="cls-8" d="M230.352,281.144s2.791,9.1,13.588,8.195,11.989-7.712,11.989-7.712L249.8,332.55h-13.24Z" transform="translate(-183.381 -281.144)"/>
            </g>
          </g>
          <path id="Trazado_579" data-name="Trazado 579" class="cls-2" d="M190.444,265.957a83.508,83.508,0,1,1,83.508-83.508A83.6,83.6,0,0,1,190.444,265.957Zm0-157.684a74.176,74.176,0,1,0,74.176,74.176A74.26,74.26,0,0,0,190.444,108.274Z" transform="translate(-106.936 -98.941)"/>
        </g>
        <g id="Grupo_804" data-name="Grupo 804" transform="translate(0 223.421)">
          <g id="Grupo_799" data-name="Grupo 799">
            <path id="Trazado_599" data-name="Trazado 599" class="cls-1" d="M103.46,426.469l-12.972-.463-3.619-11.993-3.99,12.153-12.984-.223,10.25,7.378L76,445.773l10.681-8.559L96.74,446.1,92.962,434Z" transform="translate(-69.894 -414.013)"/>
            <path id="Trazado_600" data-name="Trazado 600" class="cls-2" d="M86.4,433.838l5.763,12.223,1.395-1.118,4.365,3.853-7.726-16.236-.438,1.335Z" transform="translate(-76.77 -421.742)"/>
            <path id="Trazado_601" data-name="Trazado 601" class="cls-2" d="M97.085,417.405l8.68,21.309L104.293,434l1.221-.876-2.756-7.084-.94-.034L98.2,414.013Z" transform="translate(-81.225 -414.013)"/>
            <path id="Trazado_602" data-name="Trazado 602" class="cls-2" d="M74.318,434.543l1.664,3.011,3.406,2.452-3.017-5.427Z" transform="translate(-71.738 -422.568)"/>
            <path id="Trazado_603" data-name="Trazado 603" class="cls-2" d="M113.237,434.861l2.073,4.751,1.873-1.344-1.526-3.321Z" transform="translate(-87.956 -422.701)"/>
          </g>
          <g id="Grupo_800" data-name="Grupo 800" transform="translate(44.136)">
            <path id="Trazado_604" data-name="Trazado 604" class="cls-1" d="M179.126,426.469l-12.973-.463-3.619-11.993-3.99,12.153-12.984-.223,10.25,7.378-4.148,12.451,10.681-8.559,10.063,8.883L168.629,434Z" transform="translate(-145.561 -414.013)"/>
            <path id="Trazado_605" data-name="Trazado 605" class="cls-2" d="M162.062,433.838l5.763,12.223,1.395-1.118,4.365,3.853-7.726-16.236-.438,1.335Z" transform="translate(-152.437 -421.742)"/>
            <path id="Trazado_606" data-name="Trazado 606" class="cls-2" d="M172.752,417.405l8.68,21.309L179.959,434l1.221-.876-2.756-7.084-.94-.034-3.619-11.993Z" transform="translate(-156.892 -414.013)"/>
            <path id="Trazado_607" data-name="Trazado 607" class="cls-2" d="M149.984,434.543l1.664,3.011,3.406,2.452-3.017-5.427Z" transform="translate(-147.404 -422.568)"/>
            <path id="Trazado_608" data-name="Trazado 608" class="cls-2" d="M188.9,434.861l2.073,4.751,1.873-1.344-1.526-3.321Z" transform="translate(-163.622 -422.701)"/>
          </g>
          <g id="Grupo_801" data-name="Grupo 801" transform="translate(88.272)">
            <path id="Trazado_609" data-name="Trazado 609" class="cls-1" d="M254.793,426.469l-12.973-.463L238.2,414.013l-3.99,12.153-12.984-.223,10.25,7.378-4.148,12.451,10.681-8.559,10.063,8.883L244.3,434Z" transform="translate(-221.228 -414.013)"/>
            <path id="Trazado_610" data-name="Trazado 610" class="cls-2" d="M237.729,433.838l5.763,12.223,1.395-1.118,4.365,3.853-7.726-16.236-.438,1.335Z" transform="translate(-228.104 -421.742)"/>
            <path id="Trazado_611" data-name="Trazado 611" class="cls-2" d="M248.418,417.405l8.68,21.309L255.626,434l1.221-.876-2.756-7.084-.94-.034-3.619-11.993Z" transform="translate(-232.558 -414.013)"/>
            <path id="Trazado_612" data-name="Trazado 612" class="cls-2" d="M225.651,434.543l1.664,3.011,3.406,2.452-3.017-5.427Z" transform="translate(-223.071 -422.568)"/>
            <path id="Trazado_613" data-name="Trazado 613" class="cls-2" d="M264.57,434.861l2.073,4.751,1.873-1.344-1.526-3.321Z" transform="translate(-239.289 -422.701)"/>
          </g>
          <g id="Grupo_802" data-name="Grupo 802" transform="translate(132.407)">
            <path id="Trazado_614" data-name="Trazado 614" class="cls-1" d="M330.46,426.469l-12.973-.463-3.619-11.993-3.99,12.153-12.984-.223,10.25,7.378L303,445.773l10.681-8.559L323.74,446.1,319.962,434Z" transform="translate(-296.895 -414.013)"/>
            <path id="Trazado_615" data-name="Trazado 615" class="cls-2" d="M313.4,433.838l5.763,12.223,1.395-1.118,4.365,3.853-7.726-16.236-.438,1.335Z" transform="translate(-303.77 -421.742)"/>
            <path id="Trazado_616" data-name="Trazado 616" class="cls-2" d="M324.085,417.405l8.68,21.309L331.293,434l1.221-.876-2.756-7.084-.94-.034L325.2,414.013Z" transform="translate(-308.225 -414.013)"/>
            <path id="Trazado_617" data-name="Trazado 617" class="cls-2" d="M301.318,434.543l1.664,3.011,3.406,2.452-3.017-5.427Z" transform="translate(-298.738 -422.568)"/>
            <path id="Trazado_618" data-name="Trazado 618" class="cls-2" d="M340.237,434.861l2.073,4.751,1.873-1.344-1.526-3.321Z" transform="translate(-314.956 -422.701)"/>
          </g>
          <g id="Grupo_803" data-name="Grupo 803" transform="translate(176.543)">
            <path id="Trazado_619" data-name="Trazado 619" class="cls-1" d="M406.126,426.469l-12.973-.463-3.619-11.993-3.99,12.153-12.984-.223,10.25,7.378-4.148,12.451,10.681-8.559,10.063,8.883L395.629,434Z" transform="translate(-372.561 -414.013)"/>
            <path id="Trazado_620" data-name="Trazado 620" class="cls-2" d="M389.062,433.838l5.763,12.223,1.395-1.118,4.365,3.853-7.726-16.236-.438,1.335Z" transform="translate(-379.437 -421.742)"/>
            <path id="Trazado_621" data-name="Trazado 621" class="cls-2" d="M399.752,417.405l8.68,21.309L406.959,434l1.221-.876-2.756-7.084-.94-.034-3.619-11.993Z" transform="translate(-383.892 -414.013)"/>
            <path id="Trazado_622" data-name="Trazado 622" class="cls-2" d="M376.984,434.543l1.664,3.011,3.406,2.452-3.017-5.427Z" transform="translate(-374.404 -422.568)"/>
            <path id="Trazado_623" data-name="Trazado 623" class="cls-2" d="M415.9,434.861l2.073,4.751,1.873-1.344-1.526-3.321Z" transform="translate(-390.622 -422.701)"/>
          </g>
        </g>
      </g>
    </g>
  </g>
</svg>
